<?xml version="1.0" standalone="no"?>
<!DOCTYPE svg PUBLIC "-//W3C//DTD SVG 1.1//EN" "http://www.w3.org/Graphics/SVG/1.1/DTD/svg11.dtd" >
<svg>
<metadata>
Created by FontForge 20090914 at Thu Jul 17 12:11:37 2014
 By www-data
Generated by Fontographer 4.0
</metadata>
<defs>
<font id="Daniel" horiz-adv-x="1037" >
  <font-face 
    font-family="Daniel"
    font-weight="400"
    font-stretch="normal"
    units-per-em="2048"
    panose-1="2 11 5 0 0 0 0 0 0 0"
    ascent="1638"
    descent="-410"
    x-height="558"
    cap-height="1541"
    bbox="-507 -1100 3084 1890"
    underline-thickness="20"
    underline-position="-123"
    unicode-range="U+0009-U+F002"
  />
<missing-glyph horiz-adv-x="1536" 
d="M256 0v1280h1024v-1280h-1024zM1248 32v1216h-960v-1216h960z" />
    <glyph glyph-name=".notdef" horiz-adv-x="1536" 
d="M256 0v1280h1024v-1280h-1024zM1248 32v1216h-960v-1216h960z" />
    <glyph glyph-name=".null" horiz-adv-x="0" 
 />
    <glyph glyph-name=".null" horiz-adv-x="0" 
 />
    <glyph glyph-name="space" unicode="&#x9;" horiz-adv-x="870" 
 />
    <glyph glyph-name="nonmarkingreturn" unicode="&#xd;" horiz-adv-x="870" 
 />
    <glyph glyph-name="space.0" unicode=" " horiz-adv-x="870" 
 />
    <glyph glyph-name="exclam" unicode="!" horiz-adv-x="742" 
d="M665 1822c0 -4 -19.001 -92.6641 -57.001 -265.997l-94 -428c-18 -35.333 -40.667 -91 -68 -167l-81 -568c-1.33301 -10 -11.666 -15 -30.999 -15c-22 0 -42 22.667 -60 68c-16 38.667 -24 71.667 -24 99c0 25.333 28.667 122.666 86 291.999c1.33301 4 2 29.333 2 76
c0 19.333 6.66699 43 20 71c16.667 33.333 26 56.666 28 69.999l44 234c26.667 142.667 57.667 293.667 93 453c2.66699 13.333 12.667 47.666 30 102.999l53 42c39.333 -16 59 -37.333 59 -64zM344.999 128.003c-6.66699 -35.333 -16.333 -81.001 -29 -137.001
c-66 16.667 -101.667 26.334 -107 29.001c-8.66699 6 -23 28 -43 66c44 56 76 84 96 84c9.33301 0 37 -14 83 -42z" />
    <glyph glyph-name="quotedbl" unicode="&#x22;" horiz-adv-x="648" 
d="M565 1767c0 -18 -8.33301 -73.665 -25 -166.998c-22 -126.667 -44 -232.334 -66 -317.001l-43 -30c-38.667 30 -58 60.333 -58 91c0 14 8.33301 70 25 168c16 95.333 34.667 200.666 56 315.999c6 6.66699 23.667 25 53 55c38.667 -36 58 -74.667 58 -116zM246 1765
c0 -95.333 -7.99805 -183.333 -23.998 -264c-10.667 -35.333 -25.334 -88.333 -44.001 -159h-85c-18 50.667 -27 90.667 -27 120c0 17.333 6.66699 53.666 20 108.999c15.333 60.667 24 101.334 26 122.001c-6.66699 12 -18 29.333 -34 52
c3.33301 5.33301 19.666 25.333 48.999 60c24 28 43 42 57 42c6 0 11.333 -1 16 -3h16c20 -20.667 30 -47 30 -79z" />
    <glyph glyph-name="numbersign" unicode="#" horiz-adv-x="1711" 
d="M1802 859l0.000976562 -5.99609c0 -14 -5 -29 -15 -45c-11.333 -18.667 -24.666 -30.334 -39.999 -35.001c-32 -8.66699 -110.667 -14.667 -236 -18c-112.667 -2 -191.334 -15.333 -236.001 -40c-58.667 -32.667 -88 -129.667 -88 -291c74.667 2.66699 145 4 211 4
c13.333 0 57.666 -1.33301 132.999 -4c75.333 -2 119 -3 131 -3c-5.33301 -15.333 -18 -31.833 -38 -49.5s-36.667 -26.5 -50 -26.5c-4 0 -15.667 2.33301 -35 7c-20.667 5.33301 -32.667 8 -36 8c-58 0 -126 -8 -204 -24c-102 -20.667 -159.333 -46 -172 -76l-95 -225
c-42.667 -97.333 -92 -156.333 -148 -177c-28.667 14 -43 26.667 -43 38c0 12.667 51 135 153 367c-8.66699 22 -35.667 33 -81 33c-163.333 0 -283 -19 -359 -57c-19.333 -10 -35.666 -42.333 -48.999 -97c-12.667 -50.667 -22 -90 -28 -118c-30 19.333 -58.667 29 -86 29
h-11c0 48 8 105 24 171c-34 33.333 -108.333 58.333 -223 75c-96 13.333 -150.333 44.666 -163 93.999c27.333 28 57.333 42 90 42c8.66699 0 55 -8.5 139 -25.5s134.333 -25.5 151 -25.5c8.66699 0 15.667 1 21 3c17.333 23.333 36 68.666 56 135.999
c20.667 67.333 31 117.333 31 150c0 30.667 -12.667 46 -38 46c-5.33301 0 -23.666 -2.16699 -54.999 -6.5s-49.666 -6.5 -54.999 -6.5c-114.667 0 -189.334 18.333 -224.001 55c0 14.667 6.33301 30.667 19 48c13.333 17.333 26 26 38 26c8 0 33.833 -2.16699 77.5 -6.5
s69.167 -6.5 76.5 -6.5c101.333 0 161.333 3.66699 180 11c41.333 15.333 73.666 61 96.999 137l80 263c19.333 1.33301 37.666 9.66602 54.999 24.999c30.667 -26.667 46 -54.334 46 -83.001c0 -6.66699 -17.167 -55.667 -51.5 -147s-51.5 -140.666 -51.5 -147.999
c0 -12.667 11.333 -28 34 -46l388 1c27.333 0 65.666 71 114.999 213l87 258c12 37.333 36 94.333 72 171h46c10 -11.333 15 -32.333 15 -63c0 -46 -6 -87.667 -18 -125c-10.667 -10.667 -25 -32 -43 -64c-9.33301 -27.333 -24.666 -83.333 -45.999 -168
c-22.667 -92 -34 -146.667 -34 -164c0 -30.667 19.333 -46 58 -46c9.33301 0 39.333 4.5 90 13.5s80.667 13.5 90 13.5c12.667 0 54 -2.33301 124 -7c70.667 -5.33301 112 -8 124 -8zM1121 703.004c-100.667 0 -175.668 1.99902 -225.001 5.99902
c-5.33301 0 -24.666 1.66699 -57.999 5c-28 3.33301 -46.333 5 -55 5c-52 0 -96.333 -11 -133 -33c-52.667 -99.333 -79 -183 -79 -251c0 -17.333 5.66699 -29.666 17 -36.999h257c115.333 0 187 24 215 72z" />
    <glyph glyph-name="dollar" unicode="$" horiz-adv-x="1322" 
d="M1268 1161v0.998047c-1.33301 0 -6.66602 -17 -15.999 -51c-134 33.333 -221 50 -261 50c-12 0 -37.5 -31 -76.5 -93s-58.5 -101.667 -58.5 -119c0 -13.333 27.667 -43 83 -89c71.333 -58 123.333 -106.333 156 -145c56 -67.333 84 -135.333 84 -204
c0 -24 -8.16699 -43.667 -24.5 -59s-48.5 -33.833 -96.5 -55.5s-83.667 -32.5 -107 -32.5h-369c-42.667 -55.333 -86 -130.666 -130 -225.999c-62.667 -134 -100 -212.333 -112 -235h-5c-16.667 0 -32 6.66699 -46 20c-16 14.667 -24 30.667 -24 48
c0 38.667 21.333 104.667 64 198l90 201l-35 28c-147.333 30.667 -259.333 50 -336 58c-8.66699 34 -13.667 51 -15 51v-2c0 42.667 24 64 72 64h-2c0 -2.66699 128 -24.334 384 -65.001c134.667 195.333 202 309 202 341c0 18.667 -15.333 34.667 -46 48
c-12.667 4.66699 -35.334 13.667 -68.001 27c-48.667 30 -99 72.333 -151 127c-63.333 66.667 -95 121.334 -95 164.001c0 14 10.667 32.5 32 55.5s38.666 34.5 51.999 34.5c22 0 98.333 -2.33301 229 -7s207.667 -7 231 -7c16 0 28 4.66699 36 14
c4.66699 6 33.334 55.333 86.001 148l186 329h44c18 -18.667 27.667 -34.667 29 -48l-205 -435c6 -19.333 45.667 -33.666 119 -42.999c66.667 -8.66699 100 -39 100 -91zM816 1157c-5.33301 4 -34.3369 6 -87.0039 6c-15.333 0 -51.666 -1 -108.999 -3
s-93.666 -3 -108.999 -3c6 -19.333 36.333 -49.333 91 -90s92.334 -61 113.001 -61c30.667 0 64.334 50.333 101.001 151zM1074 576.998c-52 72.667 -108.33 132.001 -168.997 178.001c-20.667 9.33301 -52 24.666 -94 45.999c-14.667 -8 -47.334 -54 -98.001 -138
s-76 -134.667 -76 -152c0 -20 5 -30 15 -30h261c15.333 0 45.166 13 89.499 39s68.166 45 71.499 57z" />
    <glyph glyph-name="percent" unicode="%" horiz-adv-x="1862" 
d="M1830 360c0 -102.667 -64.998 -186 -194.998 -250c-105.333 -52 -216.333 -78 -333 -78c-3.33301 0 -13 2.33301 -29 7c-15.333 4 -25 6 -29 6s-12.333 -4.33301 -25 -13c-12 -8.66699 -20.667 -13 -26 -13c-10 0 -47.667 12 -113 36l-125 44v182
c0 15.333 18.667 34 56 56l75 44c21.333 18 56.333 41 105 69c147.333 64 237.666 96 270.999 96c79.333 0 154.666 -13 225.999 -39c94.667 -34.667 142 -83.667 142 -147zM1598 1150c0 -32 -15.334 -60.334 -46.001 -85.001c-60 -48 -122.667 -95.667 -188 -143
c-94.667 -53.333 -223.334 -133 -386.001 -239c-372.667 -240.667 -629 -444 -769 -610c-7.33301 -8.66699 -11 -19 -11 -31c0 -6 0.666992 -12 2 -18c0 -0.666992 -5.33301 -6.16699 -16 -16.5l-32 -31.5c-22.667 -22.667 -39.667 -34 -51 -34
c-21.333 0 -42.833 7.66699 -64.5 23s-32.5 31.333 -32.5 48c0 40 74 123 222 249l285 240c18 15.333 60 45.333 126 90l743 507c-9.33301 8.66699 -21.666 13 -36.999 13c-230 0 -373 -14.333 -429 -43l-151 -78c-38 -14 -92.667 -21 -164 -21
c-78.667 0 -143.667 26.667 -195 80c-1.33301 14.667 -2 28.334 -2 41.001c0 184.667 86 277 258 277c124.667 0 208.334 -19 251.001 -57c8.66699 -25.333 30.667 -62 66 -110c62.667 0 176.667 8 342 24l156 15c82 0 123 -30 123 -90zM801.001 1207
c-30.667 30.667 -58.333 46 -83 46c-6.66699 0 -27.167 -5.16699 -61.5 -15.5s-54.5 -15.5 -60.5 -15.5c1.33301 -0.666992 22 -10 62 -28c26.667 -12 46.667 -18 60 -18c14 0 41.667 10.333 83 31zM1726 348.999c-60.667 45.333 -119.332 68 -175.999 68
c-220 0 -379.333 -66.667 -478 -200c61.333 -46.667 127.666 -70 198.999 -70c93.333 0 181 14 263 42c105.333 36 169.333 89.333 192 160z" />
    <glyph glyph-name="ampersand" unicode="&#x26;" horiz-adv-x="1402" 
d="M1298 593c0 -24 -47.666 -75.001 -142.999 -153.001c-108 -89.333 -167 -140.666 -177 -153.999c19.333 -36 62 -69.333 128 -100v-57c-10 -11.333 -31.333 -17 -64 -17c-24 0 -58.333 15.333 -103 46c-42.667 27.333 -64 42 -64 44v0c2 0 3 -0.333008 3 -1
c0 -6.66699 -66 -42.667 -198 -108c-147.333 -72.667 -253.333 -109 -318 -109c-189.333 0 -284 94.667 -284 284c0 83.333 28.333 160.333 85 231c20 24 81 79.333 183 166c100 85.333 161.667 143.666 185 174.999c-14 64.667 -21 131 -21 199
c0 144.667 28.667 271.667 86 381c25.333 48.667 88.333 106.667 189 174c99.333 66 174.333 99 225 99c167.333 0 251 -74.667 251 -224c0 -107.333 -31.667 -206.333 -95 -297c-42.667 -60.667 -116.334 -136.334 -221.001 -227.001l-188 -159
c-10.667 -0.666992 -21.667 -1.66699 -33 -3c-18.667 -3.33301 -28 -10.666 -28 -21.999v-37l178 -331c-1.33301 0 -2.33301 -0.666992 -3 -2c0 -6 7 -9 21 -9h3c9.33301 0.666992 66 41.334 170 122.001l188 146h45v-57zM1146 1475c0 60 -32.333 90 -97 90
c-124 0 -228.667 -57 -314 -171c-78.667 -104.667 -118 -221 -118 -349c0 -38 9.66699 -82.667 29 -134h44c110 66 207.667 145.667 293 239c108.667 118.667 163 227 163 325zM798.001 324.999c-22 21.333 -55.3359 88.666 -100.003 201.999
c-35.333 92 -72.666 138 -111.999 138c-51.333 0 -127.333 -53.667 -228 -161c-100 -108 -150 -189.333 -150 -244c0 -98.667 55.667 -148 167 -148c20.667 0 59.334 8.33301 116.001 25s96.334 31.334 119.001 44.001c81.333 45.333 144 93.333 188 144z" />
    <glyph glyph-name="quotesingle" unicode="'" horiz-adv-x="387" 
d="M281 1832l-0.000976562 -16c0 -88.667 -5.66699 -178 -17 -268c-16.667 -143.333 -44 -215 -82 -215h-68v81c0 7.33301 8.66699 61 26 161l41 227c4.66699 28 18.334 51.333 41.001 70z" />
    <glyph glyph-name="parenleft" unicode="(" horiz-adv-x="586" 
d="M956 1848c0 -12.667 -49.334 -71.668 -148.001 -177.001l-184 -193c-38 -40.667 -72 -92 -102 -154c-21.333 -59.333 -45.666 -115 -72.999 -167l-220 -426c-56 -143.333 -84 -300 -84 -470c0 -298 60 -520.333 180 -667c-2.66699 -20.667 -13 -40.334 -31 -59.001
c-156 92 -241 235.333 -255 430c-14 184.667 -21 298 -21 340c0 11.333 3.16699 31.333 9.5 60l11.5 52c48.667 378 214.334 762.667 497.001 1154c77.333 106.667 188.666 211.334 333.999 314.001h56c20 -11.333 30 -23.666 30 -36.999z" />
    <glyph glyph-name="parenright" unicode=")" horiz-adv-x="657" 
d="M578 798c0 -225.333 -59.333 -471.333 -178 -738c-18.667 -42.667 -136 -270 -352 -682c-19.333 0.666992 -65.333 1 -138 1v59c61.333 71.333 103 127 125 167c10.667 21.333 67 113 169 275c68 110 114 206.667 138 290c72 259.333 108 449 108 569
c0 274.667 -36.333 533.667 -109 777c-36 85.333 -72.667 180.333 -110 285v81h68c22.667 0 48 -43.333 76 -130c16 -28.667 35 -64.667 57 -108c40.667 -80 74.667 -194.667 102 -344c29.333 -160 44 -327.333 44 -502z" />
    <glyph glyph-name="asterisk" unicode="*" horiz-adv-x="855" 
d="M810 1739c-14.667 -4.66699 -62.3359 -32.6689 -143.003 -84.002c-30 -26.667 -76.667 -66 -140 -118l232 -191c-22.667 -39.333 -43.667 -59 -63 -59c-12 0 -44.333 12.667 -97 38c-54 25.333 -81.667 38 -83 38c-36.667 0 -55 -22.667 -55 -68c0 -12 2 -30.333 6 -55
c-11.333 -27.333 -31 -67.666 -59 -120.999c-32.667 16.667 -53 51.667 -61 105c-1.33301 15.333 -5.66602 58 -12.999 128c-1.33301 3.33301 -3.66602 5.33301 -6.99902 6c-2.66699 -1.33301 -5.66699 -4 -9 -8c-8.66699 4 -17 6 -25 6c-32 0 -60.333 -21.667 -85 -65
c-6.66699 -10.667 -27 -45 -61 -103c-18.667 -12 -31 -18 -37 -18c-13.333 0 -28.5 9.33301 -45.5 28s-25.5 35.667 -25.5 51c0 10.667 34.333 56.334 103 137.001s103 131 103 151c0 9.33301 -21 29 -63 59l-78 54v69c17.333 19.333 32.333 29 45 29
c16 0 88.333 -42.667 217 -128c18.667 28 37.334 70.333 56.001 127c19.333 59.333 34.333 103 45 131h44c25.333 -12 38 -45.333 38 -100c0 -25.333 8 -43.333 24 -54c92 68 150 102 174 102c16 0 37 -14 63 -42v-45z" />
    <glyph glyph-name="plus" unicode="+" horiz-adv-x="942" 
d="M921 511c-50.667 -37.333 -99.999 -56 -147.999 -56c-9.33301 0 -39.5 2.33301 -90.5 7s-80.5 7 -88.5 7c-75.333 0 -115.333 -34 -120 -102c-6.66699 -102 -30 -174.667 -70 -218h-72c0 10.667 1.33301 47.667 4 111c2.66699 62.667 4 99.334 4 110.001
c0 37.333 -2 70.666 -6 99.999c-64.667 -18 -119.667 -27 -165 -27c-46.667 0 -91.334 14.333 -134.001 43c14.667 41.333 41.667 66 81 74c7.33301 1.33301 46 2 116 2c67.333 0 116 23.333 146 70c10 16 26.333 76.333 49 181c15.333 69.333 51 108.333 107 117l14 -28
c8.66699 -18.667 13 -32.667 13 -42s-8.5 -41.333 -25.5 -96s-25.5 -86.667 -25.5 -96c0 -47.333 30 -71 90 -71c4 0 17 2.16699 39 6.5s35 6.5 39 6.5c28 0 59 -2 93 -6l94 -12c15.333 -8.66699 34 -35.667 56 -81z" />
    <glyph glyph-name="comma" unicode="," horiz-adv-x="460" 
d="M321 53c0 -78.667 -19.668 -142.333 -59.001 -191c-43.333 -38.667 -106.333 -91.334 -189 -158.001c-25.333 -5.33301 -64.333 -23.333 -117 -54h-72c-4 15.333 -8.66699 40 -14 74c102 62.667 167 105.667 195 129c64.667 53.333 105.334 114 122.001 182
c2.66699 38.667 10 96.334 22 173.001h41c47.333 0 71 -51.667 71 -155z" />
    <glyph glyph-name="hyphen" unicode="-" horiz-adv-x="767" 
d="M709 412c0 -38 -17.333 -56.999 -52 -56.999c-9.33301 0 -39.333 4 -90 12s-80.667 12 -90 12c-84.667 0 -157.667 -5 -219 -15c-65.333 -11.333 -106.333 -19 -123 -23c-5.33301 -0.666992 -8 -1.33398 -8 -2.00098s1 -1 3 -1c-12 0 -26.667 10.333 -44 31
s-26 38 -26 52c0 36 19.333 58 58 66c67.333 13.333 154.333 20 261 20c40 0 79 1.33301 117 4c3.33301 0.666992 23.666 6.66699 60.999 18c36.667 12 59.334 18 68.001 18c20 0 39.333 -18 58 -54c17.333 -32.667 26 -59.667 26 -81z" />
    <glyph glyph-name="period" unicode="." horiz-adv-x="421" 
d="M338 121c0 -20 -19.999 -45.333 -59.999 -76c-39.333 -30.667 -70.333 -46 -93 -46c-22 0 -58 12.667 -108 38c6 28 18.333 65.667 37 113c12 15.333 33.667 33 65 53s53.666 30 66.999 30c21.333 0 42 -12.5 62 -37.5s30 -49.833 30 -74.5z" />
    <glyph glyph-name="slash" unicode="/" horiz-adv-x="1521" 
d="M1498 1807c0 -46 -90.667 -181.664 -272 -406.997c-16 -18.667 -44.333 -55.667 -85 -111l-123 -192c-68.667 -81.333 -143.334 -176 -224.001 -284c-28.667 -38 -182.667 -287.333 -462 -748l-150 -241c-17.333 -27.333 -43 -41 -77 -41
c-23.333 0 -46.666 5.33301 -69.999 16c-0.666992 1.33301 -3.33398 5.33301 -8.00098 12s-7 14.334 -7 23.001c0 6 8.83301 27.167 26.5 63.5s27.5 59.5 29.5 69.5c69.333 60 136 142 200 246l166 274c16.667 36.667 45 91.667 85 165c2 5.33301 61.667 80.666 179 225.999
c82.667 103.333 125.334 182.666 128.001 237.999c56.667 46 124.334 123.333 203.001 232c70 98 125.333 186.667 166 266c-6.66699 6 -16 9 -28 9c-2.66699 0 -5.66699 -0.333008 -9 -1c2.66699 8 33 38 91 90c39.333 35.333 104.666 90.666 195.999 165.999
c30 -12.667 45 -36.334 45 -71.001z" />
    <glyph glyph-name="zero" unicode="0" horiz-adv-x="1633" 
d="M1530 911c0 -74.667 -5.00195 -130.001 -15.002 -166.001c-50.667 -184.667 -187 -360.334 -409 -527.001c-198.667 -148.667 -385 -223 -559 -223c-124 0 -237.667 54.333 -341 163c-108 112.667 -162 245 -162 397c0 86 4.66699 142.333 14 169
c2 6.66699 9.66699 23.667 23 51c-7.33301 32.667 -11 65.667 -11 99c0 200.667 116.333 377.334 349 530.001c78.667 52 183.334 98 314.001 138s240.334 60 329.001 60c74 0 165 -23.333 273 -70c66.667 -28 109.667 -65.667 129 -113
c44 -109.333 66 -278.666 66 -507.999zM1452 848.999l-14.001 363c-2 49.333 -28 102 -78 158c-58 64 -100.333 101 -127 111c-56 20.667 -118.667 31 -188 31c-195.333 0 -370.666 -53.333 -525.999 -160c-69.333 -46.667 -116.333 -80.334 -141 -101.001
c-57.333 -47.333 -96.666 -92 -117.999 -134h38c120 122.667 230.667 191.667 332 207c-20.667 -26 -99.667 -105.667 -237 -239c-114 -110.667 -189 -214 -225 -310c-18 -47.333 -27 -106 -27 -176c0 -153.333 47 -276.666 141 -369.999c86.667 -86.667 194 -130 322 -130
c34 0 105.333 20.167 214 60.5s178.667 72.833 210 97.5c153.333 118 258.666 225.667 315.999 323c17.333 28.667 38.333 73 63 133c30 70 45 114.667 45 134v2z" />
    <glyph glyph-name="one" unicode="1" horiz-adv-x="537" 
d="M448 1237c0 -52 -7.33203 -113.333 -21.999 -184l-103 -486c-52.667 -262.667 -106.334 -448.667 -161.001 -558c-13.333 6.66699 -27.333 18 -42 34c-12.667 14.667 -19 26 -19 34v2l259 1266h59c19.333 -36 29 -72 29 -108z" />
    <glyph glyph-name="two" unicode="2" horiz-adv-x="1481" 
d="M1453 1404c0 -70 -38.665 -145.999 -115.998 -227.999l-186 -192c-248.667 -258 -542.667 -528.333 -882 -811v-5c0 -22 16 -37.333 48 -46c43.333 -11.333 87.666 -17 132.999 -17c10.667 0 21.667 0.333008 33 1l597 39h14c42 0 128.667 -7 260 -21l18 16l15 -83
c-54 -2.66699 -158.333 -7 -313 -13c-67.333 -2.66699 -178 -11.334 -332 -26.001l-169 -16c-4.66699 0 -19.667 2.33301 -45 7s-40.333 7 -45 7c-4 0 -15.667 -4.5 -35 -13.5s-31.333 -13.5 -36 -13.5c-46.667 0 -107.667 10.333 -183 31
c-76.667 20 -131.334 41 -164.001 63v18v12c0 28 6 50.667 18 68c20.667 28 76 76.667 166 146c124 96.667 268.667 216 434 358c59.333 50.667 179 165 359 343c150 148.667 248.333 275.334 295 380.001c-29.333 31.333 -61.333 47 -96 47
c-132 0 -323.667 -56.333 -575 -169c-176.667 -78.667 -265 -120.667 -265 -126h2h-52c-19.333 13.333 -29 27.666 -29 42.999c0 34 32.333 63.333 97 88c26 8 71.333 25 136 51c325.333 144 562.333 216 711 216c54 0 99 -14.333 135 -43
c34.667 -29.333 52 -66.333 52 -111z" />
    <glyph glyph-name="three" unicode="3" horiz-adv-x="1798" 
d="M1729 600c0 -26.667 -34.6709 -64.6709 -104.004 -114.004c-50.667 -36 -98.667 -65 -144 -87c-200 -94 -508.667 -191 -926 -291c-116 -28 -263 -82.333 -441 -163l-42 58c50 45.333 115.333 84.333 196 117c99.333 39.333 248 85 446 137
c200 52 347.667 95.333 443 130c164 59.333 303.667 133.333 419 222c-12.667 36.667 -66.667 66.334 -162 89.001c-89.333 22.667 -239.666 45.667 -450.999 69c-153.333 17.333 -251.333 26 -294 26c-4 0 -11.333 -2.33301 -22 -7c-11.333 -4 -19 -6 -23 -6
c-80.667 0 -174.667 22.333 -282 67v58c22 20 40.333 32.333 55 37c0.666992 0 19 4.33301 55 13c36.667 8.66699 91.334 22.667 164.001 42c92.667 27.333 212 78.333 358 153c178 90 267 157.333 267 202c0 39.333 -32 59 -96 59c-239.333 0 -478.666 -32 -717.999 -96
c-12 -3.33301 -48.333 -16.666 -109 -39.999c-52.667 -21.333 -85.667 -32 -99 -32c-38 0 -57 19.333 -57 58c0 54 151 105 453 153c246.667 39.333 436 59 568 59c32.667 0 75.334 -16.333 128.001 -49c56.667 -35.333 85 -68.333 85 -99
c0 -71.333 -93.667 -156.666 -281 -255.999l-376 -200c18 -16 104.667 -31.333 260 -46h-1l110 -16c22.667 -1.33301 66 -5.66602 130 -12.999c327.333 -40.667 491 -118.667 491 -234z" />
    <glyph glyph-name="four" unicode="4" horiz-adv-x="1266" 
d="M1379 1583c0 -9.33301 -9 -24.666 -27 -45.999c-20.667 -24 -35.334 -46.667 -44.001 -68c-15.333 -34 -34.666 -90.667 -57.999 -170c-26 -84.667 -49 -149 -69 -193c-12 -16 -26.667 -41.667 -44 -77c-16 -54.667 -24 -111.334 -24 -170.001c0 -20 1 -40.333 3 -61
c-12.667 -10 -27 -23.667 -43 -41c-8.66699 -28 -23 -69.667 -43 -125c-76 -222 -114 -384.333 -114 -487c0 -6.66699 -2.5 -29 -7.5 -67s-7.5 -60 -7.5 -66c-15.333 -5.33301 -39 -10.333 -71 -15c-19.333 18 -29 65 -29 141c0 18 2 42.667 6 74
c2 14.667 5 39.334 9 74.001c6.66699 67.333 28 157 64 269c24 72.667 36 111.667 36 117v61c-16.667 16 -38 24 -64 24c-3.33301 0 -31 -4.33301 -83 -13c-60 -10 -139.333 -15 -238 -15c-100.667 0 -179 6 -235 18c-58.667 13.333 -138.334 41.666 -239.001 84.999
c-2.66699 12 -4 23.667 -4 35c0 33.333 18.667 78.666 56 135.999c50.667 75.333 78.667 120 84 134c12 32.667 35 92 69 178c39.333 98 66.333 147 81 147c-1.33301 0 -2 -0.333008 -2 -1s15.333 -5 46 -13c0 -2 2.33301 -12.667 7 -32
c4.66699 -20.667 7 -33.334 7 -38.001c0 -43.333 -25.667 -121 -77 -233c-61.333 -133.333 -95.333 -213.666 -102 -240.999c95.333 -48.667 177.333 -73 246 -73h333c70.667 0 119.334 9.66699 146.001 29c36.667 26.667 61.667 83.667 75 171
c3.33301 24 20.666 72 51.999 144l102 236c34.667 78.667 82.334 151.334 143.001 218.001h43c11.333 -8.66699 17 -24 17 -46z" />
    <glyph glyph-name="five" unicode="5" horiz-adv-x="1481" 
d="M1422 538c0 -22.667 -36.9932 -65.334 -110.993 -128.001c-68.667 -58 -118.334 -93.333 -149.001 -106c-128.667 -53.333 -223.334 -90.333 -284.001 -111l-244 -79c-0.666992 0 -87.667 -29.333 -261 -88c-142 -48.667 -220.333 -73 -235 -73
c-22 0 -56.333 9.66699 -103 29c13.333 35.333 40.333 62.666 81 81.999l233 75c620.667 200.667 931 344.334 931 431.001c0 56.667 -88.667 126.334 -266 209.001c-126.667 59.333 -266.334 100.333 -419.001 123c-53.333 8 -136 22.667 -248 44c-8 2.66699 -20 13 -36 31
c-10 11.333 -31 17 -63 17h-4c-10.667 9.33301 -16 26.333 -16 51c0 36.667 32 122 96 256c62 130 108.333 211.667 139 245c159.333 -18 312 -27 458 -27c39.333 0 66.666 1.66699 81.999 5c3.33301 0 20 6.33301 50 19c26 10.667 44.667 16 56 16h274
c3.33301 -16.667 7.66602 -41.667 12.999 -75c-182.667 -52.667 -317.334 -79 -404.001 -79c-19.333 0 -83.833 4.5 -193.5 13.5s-173.834 13.5 -192.501 13.5c-69.333 0 -119.333 -47.667 -150 -143l-63 -198l36 -31l104 -23l265 -64c170.667 -42.667 311.667 -97 423 -163
c134 -79.333 201 -170 201 -272z" />
    <glyph glyph-name="six" unicode="6" horiz-adv-x="1631" 
d="M1552 433c0 -192 -241 -328.999 -723 -410.999c-100.667 -16.667 -172.334 -25 -215.001 -25c-80.667 0 -160 9 -238 27c-70.667 17.333 -142.667 75.666 -216 174.999c-74 100 -111 188.667 -111 266c0 12 5.33301 35 16 69c12 36.667 18 57 18 61
c10.667 62.667 25.334 122 44.001 178c90.667 272.667 331.334 534.667 722.001 786c52.667 34 111.334 57.333 176.001 70c3.33301 1.33301 66.333 10 189 26l29 -32c-1.33301 -14.667 -10.333 -29 -27 -43c-148.667 -24 -314.334 -111 -497.001 -261
c-162.667 -134.667 -290.667 -275 -384 -421c-30 -46 -67 -122.333 -111 -229c-1.33301 -3.33301 -10.333 -20 -27 -50c-12.667 -23.333 -19 -39.666 -19 -48.999v-153l22 -24c9.33301 0 17.333 8 24 24c7.33301 35.333 27.666 64.666 60.999 87.999
c47.333 34 128 68.667 242 104c174 54 357.667 81 551 81c316 0 474 -85.667 474 -257zM1475 440.001c0 48 -53.667 86.333 -161 115c-80 22 -154.333 33 -223 33c-146 0 -305.333 -23 -478 -69c-226 -60 -349.667 -138 -371 -234c89.333 -124 224 -186 404 -186
c105.333 0 260.333 31.333 465 94c61.333 18 132 50.667 212 98c101.333 60 152 109.667 152 149z" />
    <glyph glyph-name="seven" unicode="7" horiz-adv-x="1333" 
d="M1236 1376c0 -96 -78.9961 -249.668 -236.996 -461.001c-198 -266 -345.333 -470.667 -442 -614l-162 -246c-18 -27.333 -44 -50 -78 -68c-14 10 -32.333 15 -55 15l-10 15c-3.33301 4.66699 -5 12 -5 22c0 22.667 46.667 98.334 140 227.001l177 245l285 394
c116 158 202.333 295.333 259 412c-14.667 23.333 -41.667 35 -81 35c-11.333 0 -66 -5 -164 -15c-146 -15.333 -254.667 -23 -326 -23c-4 0 -18.833 1.16699 -44.5 3.5s-40.834 3.5 -45.501 3.5c-8.66699 0 -17 -0.666992 -25 -2c-16.667 -14 -34.334 -21 -53.001 -21
c-2 0 -59 0.333008 -171 1l-168 1v72c47.333 29.333 201.666 49 462.999 59c109.333 4 262.666 13.667 459.999 29l212 18h8c42 0 63 -34 63 -102z" />
    <glyph glyph-name="eight" unicode="8" horiz-adv-x="1425" 
d="M237 422c-10 -46.667 -14.999 -80.334 -14.999 -101.001c0 -46 15.333 -82 46 -108c16.667 -14 38 -23.667 64 -29c15.333 -2 38.333 -6 69 -12c49.333 -9.33301 91.333 -14 126 -14c86.667 0 176 24.667 268 74l304 168c26 14.667 56 37.667 90 69
c40 36.667 60 65 60 85c0 96 -64.333 168 -193 216l-104 39c-28.667 8 -65.667 12 -111 12c-101.333 0 -231 -28.667 -389 -86c-18 -6.66699 -41.333 -32 -70 -76c-6 -8 -17.667 -18.667 -35 -32c-8 -7.33301 -20.333 -23.666 -37 -48.999
c-14 -19.333 -31.667 -50.333 -53 -93c-6.66699 -12 -13.334 -33 -20.001 -63zM189.001 573c10 13.333 21.668 33.665 35.001 60.998c24.667 46.667 63.334 97.334 116.001 152.001c7.33301 6.66699 20 13.667 38 21c6.66699 2.66699 17.667 11.667 33 27l-233 80
c-101.333 52.667 -152 145.334 -152 278.001c0 46 14 88.333 42 127c13.333 17.333 45 49.666 95 96.999l72 -43c-10.667 -24 -33.667 -58.333 -69 -103c-24 -29.333 -36 -58.333 -36 -87c0 -60.667 38.667 -113.667 116 -159c65.333 -38.667 125 -58 179 -58h69
c10 11.333 36.333 20.666 79 27.999c12 2.66699 32.333 12.667 61 30c32 20.667 52.667 33.334 62 38.001c20.667 2 50 8.66699 88 20c2.66699 0.666992 20.667 17.667 54 51c5.33301 6 27.333 25.667 66 59c20.667 22 31 50.667 31 86c0 29.333 -18.333 59 -55 89
c-33.333 28 -66 44.333 -98 49c-21.333 3.33301 -43.333 8.33301 -66 15c-18.667 4.66699 -29.667 7 -33 7c-13.333 0 -39 5.66699 -77 17c-37.333 11.333 -61.333 17.333 -72 18h-7c-40.667 0 -90.334 -11 -149.001 -33l-64 -21c-13.333 -4.66699 -33 -16 -59 -34
c2.66699 10.667 4 24.334 4 41.001c0.666992 17.333 -0.666016 38 -3.99902 62v2c0 16 19.667 33.667 59 53c49.333 24.667 106.666 37 171.999 37h10c10.667 0 44.667 -1.66699 102 -5c48.667 -2.66699 96.667 -4 144 -4c12 0 21.667 -5 29 -15c4 -6 31 -17.667 81 -35
c53.333 -20 87.666 -36 102.999 -48c18.667 -14 37.334 -38 56.001 -72c18.667 -33.333 28 -60 28 -80c0 -120 -31.667 -203.667 -95 -251c-25.333 -25.333 -64.666 -62 -117.999 -110c21.333 -8.66699 50.333 -13 87 -13h-1c0 -0.666992 24.667 -4 74 -10
c71.333 -10.667 145.333 -46.667 222 -108c91.333 -73.333 137 -154.333 137 -243c0 -95.333 -56.667 -186.666 -170 -273.999c-27.333 -25.333 -49.666 -44.333 -66.999 -57c-38.667 -26.667 -82.334 -46.667 -131.001 -60c-54 -24.667 -144 -58.667 -270 -102
c-44.667 -22 -89.334 -38 -134.001 -48s-86.667 -15 -126 -15c-34.667 0 -67.334 4 -98.001 12c-79.333 19.333 -136.333 48.666 -171 87.999c-36.667 40.667 -55 97 -55 169c0 64 10 122.667 30 176z" />
    <glyph glyph-name="nine" unicode="9" horiz-adv-x="1139" 
d="M1091 1301c0 -348.667 -271.332 -753.666 -813.999 -1215c-105.333 -90 -162.333 -135 -171 -135h-65l-17 19v88l363 307c141.333 121.333 247.333 242.666 318 363.999c-8 16 -20.667 24 -38 24c-4.66699 0 -10.167 -2.66699 -16.5 -8s-11.833 -8 -16.5 -8
c-174.667 0 -316 47 -424 141c-38.667 32.667 -64.667 58.334 -78 77.001c-20 28 -30 84.333 -30 169c0 152 84 274.333 252 367c135.333 74 275.666 111 420.999 111c112 0 189 -15.667 231 -47c56.667 -42.667 85 -127.334 85 -254.001zM974.001 1324
c0 70.667 -19.667 116 -59 136c-22.667 11.333 -69.334 17 -140.001 17c-107.333 0 -222 -27.667 -344 -83c-151.333 -69.333 -227 -157.333 -227 -264c0 -83.333 50 -151.333 150 -204c81.333 -43.333 162 -65 242 -65c18.667 0 42.334 5.66699 71.001 17
c36.667 13.333 60 21 70 23c16.667 2.66699 44 12.667 82 30c42.667 29.333 79.167 82.5 109.5 159.5s45.5 154.833 45.5 233.5z" />
    <glyph glyph-name="colon" unicode=":" horiz-adv-x="490" 
d="M362 645c0 -22 -2.66602 -36.667 -7.99902 -44c-14.667 -21.333 -26.334 -41 -35.001 -59c-3.33301 0 -16.333 -4 -39 -12s-35.667 -12 -39 -12c-42 0 -63 0.333008 -63 1v0c-2 3.33301 -14 15 -36 35c-15.333 14 -23 27 -23 39c0 32 14.667 62 44 90
c27.333 28 57 42 89 42c26 0 51 -8 75 -24c23.333 -17.333 35 -36 35 -56zM299.001 183c0 -24.667 -11.668 -54.832 -35.001 -90.499s-45 -53.5 -65 -53.5c-15.333 0 -43.666 8.66699 -84.999 26c0 4 -2.33301 20.333 -7 49c-4 29.333 -6 46.666 -6 51.999
c0 76.667 34.333 115 103 115c4.66699 0 18.167 -2.16699 40.5 -6.5s35.833 -6.5 40.5 -6.5c0 -4 2.33301 -18.167 7 -42.5s7 -38.5 7 -42.5z" />
    <glyph glyph-name="semicolon" unicode=";" horiz-adv-x="529" 
d="M244 468c-50.667 0 -76 37.334 -76 112.001c0 29.333 13.833 55.666 41.5 78.999s58.167 35 91.5 35c65.333 -0.666992 98 -42.667 98 -126c0 -66.667 -51.667 -100 -155 -100zM289 -117.999c-16 -24 -33.332 -42.667 -51.999 -56l-59 -46l-77 -63
c-24 -4.66699 -62.333 -22.667 -115 -54h-58c-2.66699 12.667 -6.33398 32 -11.001 58c166.667 104.667 264.334 214.667 293.001 330c0 26 1 69 3 129c0.666992 20 10 30 28 30l80 -1c16 -9.33301 24.667 -25.666 26 -48.999c0.666992 -8.66699 1 -18 1 -28
c0 -18 -1 -38.667 -3 -62c-6.66699 -76.667 -25.334 -139.334 -56.001 -188.001z" />
    <glyph glyph-name="less" unicode="&#x3c;" horiz-adv-x="886" 
d="M902 1298c-1.33301 0 -114.999 -103 -340.999 -309c-227.333 -207.333 -341 -322.666 -341 -345.999c0 -20 23 -53.667 69 -101l92 -94c52.667 -72 133 -174.667 241 -308c20 -13.333 49 -35.333 87 -66v-71c-32 -18 -64 -27 -96 -27c-38 0 -85 41 -141 123l-114 174
c-34.667 51.333 -99.667 121.333 -195 210l-78 75c-21.333 21.333 -32 45.333 -32 72c0 61.333 263 314 789 758c9.33301 -4.66699 21.666 -18.334 36.999 -41.001s23 -39 23 -49z" />
    <glyph glyph-name="equal" unicode="=" horiz-adv-x="1155" 
d="M1068 678c-11.333 -30.667 -68.666 -46 -171.999 -46c-32.667 0 -142 2 -328 6c-186.667 4 -296 6 -328 6c-42.667 0 -103.667 9.66699 -183 29l-29 41c18 55.333 45.667 83 83 83c16.667 0 67 -3 151 -9l378 -29c102 -8 163.667 -12 185 -12
c3.33301 0 16.666 6.33301 39.999 19c22.667 13.333 37.334 20 44.001 20c9.33301 0 29.666 -8.33301 60.999 -25l66 -34c6 -12 16.667 -28.333 32 -49zM1119 247c-13.333 -8 -32.334 -21 -57.001 -39l-28 21c-28 5.33301 -151.667 15 -371 29
c-30 2 -102.667 11.333 -218 28c-89.333 12.667 -162.333 19 -219 19c-95.333 0 -156.666 -10.667 -183.999 -32v110c55.333 28.667 117 43 185 43c32 0 118 -3.66699 258 -11c186 -9.33301 331.333 -20.333 436 -33c87.333 -10.667 153.333 -35.667 198 -75v-60z" />
    <glyph glyph-name="greater" unicode="&#x3e;" horiz-adv-x="870" 
d="M843 696c0 -26 -41.332 -70.334 -123.999 -133.001l-162 -121l-249 -266l-146 -154c-12.667 -13.333 -19 -34.666 -19 -63.999l-18 11h-103c-11.333 10 -17 29 -17 57c0 32 10.667 59.333 32 82c12 12.667 120 113.667 324 303c184 170.667 276 263 276 277
c0 12 -34.333 52.667 -103 122l-123 127c-33.333 47.333 -87 117.666 -161 210.999l-118 121c-66.667 67.333 -100 105.333 -100 114c0 14.667 8.66699 29 26 43c17.333 14.667 34.333 22 51 22c37.333 0 80 -29.667 128 -89l104 -133c68 -84 125.667 -150 173 -198
c7.33301 -6.66699 66.666 -64 177.999 -172c100.667 -97.333 151 -150.666 151 -159.999z" />
    <glyph glyph-name="question" unicode="?" horiz-adv-x="1616" 
d="M1576 1565c0 -121.333 -43.333 -228.667 -130 -322c-72 -76.667 -170.667 -146.334 -296 -209.001l-276 -133l-48 -23c-102 -51.333 -168.667 -94 -200 -128c-4.66699 -14 -15.667 -39.333 -33 -76c-80.667 -158 -149 -266 -205 -324c-39.333 28.667 -59 58.667 -59 90
c0 24.667 8.16699 68.334 24.5 131.001s30.833 107.667 43.5 135c29.333 60.667 80.666 119.667 153.999 177c14.667 11.333 90.334 46.333 227.001 105c446.667 193.333 670 385.666 670 576.999c0 89.333 -53.667 134 -161 134c-159.333 0 -354 -28.333 -584 -85
c-259.333 -64.667 -437 -138.667 -533 -222h-58c-8 34.667 -12.667 52 -14 52c-0.666992 0 -1 -0.666992 -1 -2c0 53.333 103 116.333 309 189c154.667 54.667 285 91.334 391 110.001c92 16 189 34.5 291 55.5s157.667 31.5 167 31.5c214 0 321 -87.667 321 -263z
M444 25.999c-49.333 -27.333 -137.333 -61.667 -264 -103c-37.333 32.667 -56 62.667 -56 90c0 20.667 8 42.667 24 66s31.667 35 47 35c4.66699 0 19.667 -4 45 -12s40.333 -12 45 -12c22.667 0 65.667 12.333 129 37c20 -26 30 -59.667 30 -101z" />
    <glyph glyph-name="at" unicode="@" horiz-adv-x="1719" 
d="M1679 614c0 -82.667 -49.0029 -159.664 -147.003 -230.997c-85.333 -61.333 -174 -99 -266 -113c1.33301 -7.33301 2 -14 2 -20c0 -62 -43.667 -106 -131 -132c-15.333 -4.66699 -84.666 -16.334 -207.999 -35.001c-10.667 -1.33301 -51 -10.666 -121 -27.999
c-52.667 -12 -90.667 -18 -114 -18h-80c-150.667 0 -275 28 -373 84c-121.333 69.333 -182 173.666 -182 312.999c0 94 23.333 173 70 237c34.667 47.333 98.334 101.666 191.001 162.999c28.667 25.333 76.334 57.666 143.001 96.999c186 72 332 108 438 108
c10 0 46.333 -3.5 109 -10.5s99 -10.833 109 -11.5c119.333 -2.66699 238 -40.667 356 -114c136 -82.667 204 -179 204 -289zM1563 609.003c0 82 -65.332 150.668 -195.999 206.001c-106.667 46 -208.334 69 -305.001 69c-111.333 0 -263.333 -18.667 -456 -56
c-44.667 -8.66699 -101.667 -34 -171 -76s-124.333 -84 -165 -126c-55.333 -58 -83 -119.333 -83 -184c0 -96 67.333 -165.667 202 -209c90 -28 196.667 -42 320 -42c6 0 39 6 99 18c99.333 20 188 36.333 266 49c-26.667 34.667 -62 89 -106 163
c-147.333 -60 -263.666 -90 -348.999 -90c-184.667 0 -277 58 -277 174c0 126.667 118 207.334 354 242.001c12.667 2 60.334 11.333 143.001 28c63.333 12.667 107.666 19 132.999 19c19.333 0 55.666 -5.33301 108.999 -16c54 -10.667 87.333 -19.334 100 -26.001
c4.66699 -2.66699 20.667 -16.334 48 -41.001v-8c0 -22 -15 -70.667 -45 -146c-29.333 -73.333 -44.333 -110 -45 -110v0v3c1.33301 0 6 -17.333 14 -52c30.667 -8 46 -12.667 46 -14c0 -0.666992 -0.666992 -1 -2 -1c16.667 0 70 18.333 160 55
c88 36.667 142.667 62.667 164 78c28 19.333 42 50.333 42 93zM1047 637.004c-18.667 4.66699 -40.332 8.33301 -64.999 11c-20.667 2.66699 -69 4 -145 4v0l-69 -11c-72 -11.333 -125.333 -23.666 -160 -36.999c-62 -22.667 -103.667 -56 -125 -100
c29.333 -28.667 59.333 -43 90 -43c85.333 0 187 18.333 305 55c29.333 8.66699 61.333 24.667 96 48c41.333 27.333 65.666 51.666 72.999 72.999z" />
    <glyph glyph-name="A" unicode="A" horiz-adv-x="1550" 
d="M1460 -22c0 -47.333 -30.002 -71.001 -90.002 -71.001c-23.333 0 -39.333 1.66699 -48 5c-222.667 228 -440 342 -652 342c-46.667 0 -144.667 -18.667 -294 -56c-46.667 -11.333 -88 -51.666 -124 -120.999c-8.66699 -16 -32 -72 -70 -168
c-9.33301 -8 -30.666 -20 -63.999 -36c-21.333 20.667 -32 49 -32 85c0 128.667 31.333 262 94 400c16 25.333 39.333 64.333 70 117l181 397c147.333 318.667 287 590 419 814l1 -31c31.333 14.667 55 54.334 71 119.001c14.667 58 36.667 87 66 87
c2.66699 2 6.33398 3 11.001 3c19.333 0 34.666 -15.667 45.999 -47c2 -8 11.333 -47.333 28 -118c60.667 -256.667 123.667 -554.667 189 -894l60 -312c14.667 -28.667 33.667 -71.334 57 -128.001c10.667 -35.333 26.334 -100 47.001 -194
c22.667 -102.667 34 -167 34 -193zM1266 151.999v59.001c0 26.667 -19 140.667 -57 342l-98 519c-30 162.667 -77.667 331 -143 505c-85.333 -90 -200.333 -305 -345 -645l-67 -155c-16 -22.667 -30 -43.834 -42 -63.501s-36.667 -74.5 -74 -164.5
c-39.333 -94 -59 -147.333 -59 -160c0 -20.667 5.33301 -31 16 -31v0l281 12c12 0.666992 24 1 36 1c97.333 0 189.333 -17.667 276 -53c64 -26.667 156 -82 276 -166z" />
    <glyph glyph-name="B" unicode="B" horiz-adv-x="1738" 
d="M1719 433c0 -88 -103.335 -183.333 -310.002 -286l-129 -69c-20 -14.667 -61.667 -32.667 -125 -54c-18 -5.33301 -62.333 -20 -133 -44l-308 -147c-97.333 -33.333 -201.666 -71.333 -312.999 -114c-122 -46 -206.667 -111.667 -254 -197
c-48.667 21.333 -73 46.666 -73 75.999c0 111.333 132.667 212.333 398 303l144 51c37.333 24 138.333 67.667 303 131c188.667 72 303 117.333 343 136c128 60.667 232.333 127.334 313 200.001c4 8.66699 9.66699 23.334 17 44.001c-47.333 32 -93.333 55 -138 69
c-8.66699 2.66699 -59.334 8.66699 -152.001 18c-242.667 25.333 -403.667 38 -483 38c-3.33301 0 -14 -2.16699 -32 -6.5s-28.667 -6.5 -32 -6.5c-107.333 0 -205.333 18 -294 54v41c0 14 5.66699 27 17 39c664 350.667 996 614.334 996 791.001c0 64 -40.667 112 -122 144
c-59.333 23.333 -127.666 35 -204.999 35c-12 0 -52.667 -8.33301 -122 -25s-110 -25 -122 -25c-4.66699 0 -11.334 2 -20.001 6c-8 4.66699 -14 7 -18 7c-13.333 0 -21.666 -2.66699 -24.999 -8c-4.66699 -7.33301 -8.33398 -12 -11.001 -14
c-6.66699 -4 -56 -17.667 -148 -41c-196.667 -48.667 -330 -121.334 -400 -218.001c-18 -26 -27 -95.333 -27 -208c0 -12.667 2.66699 -58.334 8 -137.001s8 -124.667 8 -138c0 -178 21.667 -388 65 -630c2 -10.667 11 -40.667 27 -90c13.333 -41.333 20 -67 20 -77
c0 -15.333 -8 -31.166 -24 -47.499s-31.667 -24.5 -47 -24.5c-33.333 0 -53.666 27 -60.999 81c-2.66699 16 -7 54.667 -13 116c-16.667 78.667 -30.667 154.667 -42 228l-4 21c-11.333 73.333 -21.666 341.666 -30.999 804.999c-1.33301 7.33301 -6.33301 19 -15 35
c-5.33301 -8.66699 -18.333 -13 -39 -13c-38 0 -57 19 -57 57c0 42.667 56.333 91 169 145c50.667 24 214.334 90.333 491.001 199c39.333 21.333 86.333 40 141 56c130 38 233.667 57 311 57c103.333 0 195.666 -20 276.999 -60c102 -51.333 153 -123.666 153 -216.999
c0 -111.333 -77 -236 -231 -374c-84 -74.667 -209.333 -166.334 -376 -275.001c-74 -48.667 -154.667 -106 -242 -172c10 -8 61.333 -12 154 -12c548.667 0 823 -84.333 823 -253z" />
    <glyph glyph-name="C" unicode="C" horiz-adv-x="1703" 
d="M1589 92c84.667 21.333 145.333 39.6641 182 54.9971l-14 75l-499 -53c-156 -16 -244 -24 -264 -24c-152.667 0 -268 11.667 -346 35c-113.333 34.667 -214.333 97 -303 187c-102.667 104.667 -154 217.667 -154 339c0 7.33301 7.33301 37.5 22 90.5
s25.334 88.167 32.001 105.5c64.667 162 221 306.333 469 433l192 99c24 22.667 41 40.667 51 54l154 51c5.33301 2.66699 104.333 42.667 297 120c17.333 16.667 26.666 35.334 27.999 56.001c-18.667 2.66699 -37 4 -55 4c-83.333 0 -170.333 -20 -261 -60l-244 -114
c-236.667 -110 -411.334 -210.667 -524.001 -302c-184.667 -149.333 -277 -317.666 -277 -504.999c0 -123.333 14.667 -218.666 44 -285.999c66.667 -152.667 220.334 -296.667 461.001 -432c44.667 -24.667 120 -37 226 -37c54.667 0 146 4 274 12
c146 8.66699 229 16.667 249 24l195 54z" />
    <glyph glyph-name="D" unicode="D" horiz-adv-x="1705" 
d="M1967 1086c0 -94 -32.335 -174.335 -97.002 -241.002c-49.333 -52 -116.666 -104 -201.999 -156l-217 -133c-88 -55.333 -169.667 -102.666 -245 -141.999l-339 -182l-136 -74l-40 -44c-77.333 -18.667 -201.666 -92.667 -372.999 -222h-56c-20 18 -30 41.667 -30 71
c0 42.667 75 104 225 184l293 151l180 101c286.667 156 526.334 291.667 719.001 407c44.667 26 89 68.333 133 127c46 61.333 69 116.666 69 165.999c0 9.33301 -18.333 45 -55 107c-78 133.333 -248 236.333 -510 309c-204.667 56.667 -410.334 85 -617.001 85
c-5.33301 0 -83.333 -3.66699 -234 -11c-16 -108 -37 -274 -63 -498c-16.667 -144.667 -25 -229 -25 -253v-351c0 -14.667 7 -26.334 21 -35.001c4.66699 -32.667 7 -64.667 7 -96l-2 -88c-6 -10.667 -18.333 -16 -37 -16c-36.667 0 -64.667 57.333 -84 172
c-13.333 76 -20 149 -20 219c0 72.667 12 225.334 36 458.001c26 252.667 48.333 392 67 418v33c-5.33301 7.33301 -11.333 11 -18 11c-51.333 0 -124 -14 -218 -42c-112.667 -33.333 -169 -67.666 -169 -102.999c0 -14.667 10 -27.667 30 -39v-48c-76 38 -114 80 -114 126
c0 88.667 121.333 157.667 364 207c169.333 34 331.333 51 486 51c443.333 0 800.333 -100.333 1071 -301c38 -27.333 80 -77.333 126 -150c49.333 -77.333 74 -136.666 74 -177.999z" />
    <glyph glyph-name="E" unicode="E" horiz-adv-x="1402" 
d="M1734 1759c-24.667 -8 -60.334 -28.667 -107.001 -62c-19.333 2.66699 -41.333 4 -66 4c-117.333 0 -304 -21 -560 -63l-231 -37c-6.66699 0 -31 2.33301 -73 7c-42 5.33301 -66.667 8 -74 8c-36 0 -79.667 -10.333 -131 -31c-56.667 -22 -91.334 -46.333 -104.001 -73
c-18.667 -42 -34.667 -111.333 -48 -208c-12.667 -86.667 -19 -160 -19 -220c0 -6 7.33301 -29.333 22 -70c132.667 19.333 215.667 29 249 29h576v-88c-38 -4.66699 -88.667 -7 -152 -7c-22 0 -70.333 0.666992 -145 2l-144 2c-60.667 0 -137.667 -18.667 -231 -56
c-18 -4.66699 -60 -13.667 -126 -27c-52.667 -10.667 -88 -32.334 -106 -65.001c-31.333 -275.333 -47 -470 -47 -584c23.333 -28.667 47.333 -45.667 72 -51l161 -33c51.333 0 109 3 173 9c144 12.667 312 19 504 19c42 0 79.667 -1.33301 113 -4l51 -2
c20.667 -5.33301 31 -15.666 31 -30.999v-51c-40 -18.667 -117 -28 -231 -28c-17.333 0 -44.333 -6 -81 -18l-53 -18v0c-9.33301 0 -38 3.33301 -86 10c-38 4.66699 -64.667 7 -80 7h-8l-17 -1c-38.667 -2.66699 -127 -13 -265 -31
c-81.333 -10.667 -126.666 -16 -135.999 -16c-37.333 0 -93.333 23.333 -168 70c-80.667 50.667 -121 94.334 -121 131.001c0 16 8.33301 87 25 213c22.667 164.667 43.334 301 62.001 409c-23.333 16.667 -35 42.667 -35 78c0 4 0.666992 15.333 2 34
c1.33301 19.333 2 30.666 2 33.999c74.667 24 116.334 181 125.001 471c-40.667 20.667 -100.667 55.667 -180 105v87c17.333 26 46 40.667 86 44c58.667 3.33301 91.667 6.66602 99 9.99902c7.33301 2 22.666 15 45.999 39c21.333 22.667 38.666 34 51.999 34
c4.66699 0 21.334 -5.33301 50.001 -16s46.334 -16 53.001 -16l277 28c66.667 6 224.667 18.667 474 38c7.33301 0.666992 32.666 7.83398 75.999 21.501s67.333 20.5 72 20.5c10.667 0 32 -1.66699 64 -5l58 -7c56.667 -2.66699 135 -4 235 -4z" />
    <glyph glyph-name="F" unicode="F" horiz-adv-x="1433" 
d="M1710 1661c-71.333 -28.667 -116.002 -43 -134.002 -43c-4 0 -18 4.33301 -42 13c-23.333 8.66699 -37 13 -41 13c-11.333 0 -47 2 -107 6c-60 4.66699 -95.333 7 -106 7c-13.333 0 -94.333 -10 -243 -30c-170 -22 -324 -43.667 -462 -65c-52 -8 -109 -27.667 -171 -59
c-8.66699 -4.66699 -24 -12.334 -46 -23.001h-6c-13.333 0 -33 -2.33301 -59 -7c-6.66699 -2.66699 -32 -19.334 -76 -50.001c-34.667 -24 -59.667 -36 -75 -36s-31.666 9 -48.999 27c-18.667 16.667 -28 33.334 -28 50.001c0 52 36 88.667 108 110l372 116
c33.333 10.667 96.666 17.334 189.999 20.001c110 3.33301 180.333 8 211 14c24 12 62 26.333 114 43c42 6 94.333 9 157 9h36c60.667 -0.666992 107.334 -1 140.001 -1h51c16.667 15.333 30.667 23 42 23c4 0 14.5 -4.33301 31.5 -13s27.5 -13 31.5 -13s16 2 36 6
c19.333 4.66699 31 7 35 7c34.667 0 57.334 -16.333 68.001 -49zM51.998 686c0 10 1.99707 20.6699 5.99707 32.0029l36 37c12.667 9.33301 32.334 18.666 59.001 27.999c18.667 32 36.334 96.333 53.001 193c24 138 41.667 227.333 53 268
c29.333 107.333 70.333 186.333 123 237c17.333 -8 45.333 -31.333 84 -70c-53.333 -108 -89.333 -228 -108 -360c-8 -54.667 -17.667 -112.334 -29 -173.001l35 -21l1015 207l88 -55v-46c-36.667 -18.667 -122.667 -33.667 -258 -45c0.666992 -2 1 -3.66699 1 -5
c0 -11.333 -10.333 -17 -31 -17c-4 0 -15.833 2.16699 -35.5 6.5s-31.167 6.5 -34.5 6.5c-42.667 0 -71 0.666992 -85 2h19c42 0 63 -2 63 -6c-3.33301 -2.66699 -15.666 -6 -36.999 -10c-9.33301 -2 -47.333 -7.66699 -114 -17l-180 -68l-244 -47
c-42 -8.66699 -102 -34 -180 -76c-14.667 -8 -31.667 -37 -51 -87c-18 -46 -33 -70.333 -45 -73c3.33301 -16.667 5 -35 5 -55c0 -16 -6.5 -69.333 -19.5 -160s-19.5 -144.334 -19.5 -161.001c0 -54 10.667 -99.333 32 -136c-36 -38 -86.667 -57 -152 -57
c-19.333 18 -29 39.333 -29 64c0 10 4.33301 49 13 117l35 280c10.667 84 16 129.667 16 137v61l-50.5 21c-22.333 9.33301 -33.5 25.333 -33.5 48z" />
    <glyph glyph-name="G" unicode="G" horiz-adv-x="2329" 
d="M2262 551c0 -124 -156.661 -240.671 -469.994 -350.004l-130 -47c-27.333 -26.667 -67.666 -45 -120.999 -55c-302 -54.667 -532.333 -82 -691 -82c-15.333 0 -67.666 4.33301 -156.999 13c-88.667 8 -140.667 12 -156 12c-2.66699 0 -21.334 9.33301 -56.001 28
c-34.667 19.333 -56 29 -64 29c-66.667 46 -161.667 123.667 -285 233c-19.333 22.667 -41.333 75.334 -66 158.001c-3.33301 12.667 -5 24.334 -5 35.001v24l1 23v-2c0 53.333 13 105 39 155l75 148c1.33301 6 2 14.333 2 25c0 13.333 -3 26.333 -9 39l160 161
c74.667 72 147 135 217 189l227 175c102.667 78.667 183.667 123.334 243 134.001c10.667 11.333 28 25.666 52 42.999c12 4.66699 29 11.667 51 21c18 10.667 53 29.667 105 57c132 64 276.333 96 433 96c21.333 0 47.166 -13.333 77.499 -40s45.5 -50 45.5 -70
c0 -39.333 -17.333 -59 -52 -59c-8 0 -21 5.66699 -39 17s-29.333 17.333 -34 18c-18.667 6 -47.334 9 -86.001 9c-4.66699 0 -21.334 -0.666992 -50.001 -2c-29.333 -1.33301 -46.333 -2 -51 -2c-54.667 0 -202.334 -70.333 -443.001 -211
c-222.667 -131.333 -366.334 -227.333 -431.001 -288c-84.667 -78 -157 -149.667 -217 -215c-6.66699 -7.33301 -14 -33 -22 -77c-42.667 -15.333 -78.667 -50.333 -108 -105c-0.666992 -15.333 -3.33398 -36.666 -8.00098 -63.999c-8 -13.333 -18 -34.666 -30 -63.999
c-2 -8.66699 -3 -43 -3 -103c0 -2.66699 -1 -12.667 -3 -30s-3 -27.666 -3 -30.999c0 -32.667 21.333 -73.667 64 -123c37.333 -42.667 73 -73.334 107 -92.001c142 -80.667 232.333 -121 271 -121c5.33301 0 21 1.5 47 4.5s41 4.5 45 4.5
c8.66699 0 38.834 -5.83301 90.501 -17.5s81.834 -17.5 90.501 -17.5c8 0 37.167 2.16699 87.5 6.5s79.833 6.5 88.5 6.5c88 0 215.333 18.333 382 55c70.667 30 131.334 53.333 182.001 70l302 101c142.667 52 214 113.333 214 184c0 108.667 -211.333 163 -634 163
c-132.667 0 -226.334 -14 -281.001 -42c-18.667 -10 -40.334 -39 -65.001 -87h-44c-29.333 20.667 -44 39.667 -44 57v0c2 0 20 43.333 54 130c43.333 24 110.333 36 201 36c19.333 0 86.333 2 201 6c114.667 3.33301 182 5 202 5c2.66699 0 14.5 -4.5 35.5 -13.5
s35.167 -13.5 42.5 -13.5c3.33301 0 13.166 2.16699 29.499 6.5s26.166 6.5 29.499 6.5c34 0 90.333 -14.333 169 -43c78.667 -28 130 -53 154 -75c27.333 -24 41 -71.333 41 -142z" />
    <glyph glyph-name="H" unicode="H" horiz-adv-x="1701" 
d="M1717 1434c0 -4.66699 -18.332 -26.9961 -54.999 -66.9961c-37.333 -42.667 -57 -66.667 -59 -72c-32 -84.667 -62.333 -222.334 -91 -413.001c-28 -182.667 -42 -324.334 -42 -425.001c0 -21.333 -7.33301 -41.333 -22 -60c-0.666992 -40.667 -10 -126.334 -28 -257.001
c-8 -57.333 -12 -92.333 -12 -105c0 -4.66699 11.333 -45 34 -121c-14.667 -4.66699 -39.334 -9.66699 -74.001 -15c-36 73.333 -54 125.333 -54 156c0 12.667 6 81.667 18 207c12 118.667 23.667 258 35 418h-162c-11.333 0 -56.666 -6.66699 -135.999 -20
s-125.666 -20 -138.999 -20h-62l-62 1c-64.667 0 -114 -2.33301 -148 -7c-18.667 -2.66699 -47 -10.334 -85 -23.001c-34.667 -12 -62.667 -18 -84 -18c-20 0 -37.333 5.33301 -52 16c-18.667 -12 -46 -22.333 -82 -31l-85 -21c-24 -21.333 -36 -56.333 -36 -105
c0 -6 1 -25.667 3 -59c2.66699 -34 4 -53.667 4 -59c0 -50.667 -21 -139.334 -63 -266.001c-3.33301 0 -13.333 -0.5 -30 -1.5s-26 -1.5 -28 -1.5c-10.667 0 -20.667 1.66699 -30 5c16.667 101.333 25 258.666 25 471.999c0 6 8.33301 48 25 126
c50 236.667 91 408.334 123 515.001c22 40 52.333 101.333 91 184h60c8 -31.333 12.667 -47 14 -47v4c0 -10 -13.333 -44.667 -40 -104c-28 -64.667 -44 -104.667 -48 -120c-46 -172 -69 -288.333 -69 -349c0 -32 12.333 -48 37 -48c30.667 0 76.667 6.33301 138 19
c67.333 12.667 115.666 20 144.999 22c104 6 207 9 309 9c14 0 61.333 -1.33301 142 -4c80 -3.33301 127 -5 141 -5c20 0 51.333 2.33301 94 7c40 4.66699 71 7.66699 93 9c20 12 36.667 71.333 50 178c18 141.333 36.333 243 55 305c36.667 118.667 93 199.334 169 242.001
h59c7.33301 -36 11.666 -54 12.999 -54c0.666992 0 1 1 1 3z" />
    <glyph glyph-name="I" unicode="I" horiz-adv-x="442" 
d="M377 1475l-70 -307c-93.333 -414 -140 -776.667 -140 -1088v-45c-10.667 -2 -21 -7.66699 -31 -17c-47.333 56.667 -71 152.334 -71 287.001c0 24.667 8.66699 116 26 274c27.333 236 54.333 420.333 81 553c32.667 161.333 75.667 297.666 129 408.999h46
c20 -16.667 30 -38.667 30 -66z" />
    <glyph glyph-name="J" unicode="J" horiz-adv-x="1775" 
d="M1708 803c0 -322.667 -49.6689 -548.668 -149.002 -678.001c-25.333 -32.667 -90.666 -62 -195.999 -88c-91.333 -23.333 -164.666 -35 -219.999 -35c-118 0 -307.333 49 -568 147s-434 185 -520 261v59c20.667 2 39.667 11.667 57 29c140.667 -95.333 308 -180 502 -254
c216.667 -82.667 397 -124 541 -124c140 0 240.833 30.333 302.5 91s99.5 167.667 113.5 321c10.667 120 16 248 16 384c0 24 -2.33301 105.333 -7 244c-4 137.333 -6 218 -6 242c0 23.333 11 47 33 71c30 -1.33301 49.333 -16.666 58 -45.999c0 -2 4.33301 -54.667 13 -158
c20 -254 30 -409.333 30 -466z" />
    <glyph glyph-name="K" unicode="K" horiz-adv-x="1616" 
d="M1705 101c-16 -30.667 -35.665 -46 -58.998 -46c-11.333 0 -38.333 8.66699 -81 26c-51.333 20.667 -81.333 32.334 -90 35.001c-37.333 9.33301 -93.666 17.666 -168.999 24.999c-90.667 8.66699 -147 16 -169 22c-106 26 -236.333 56.333 -391 91
c-72.667 16 -165.667 54.667 -279 116c-138.667 75.333 -208 137.333 -208 186c0 10 87 90 261 240c189.333 163.333 289.666 250.666 300.999 261.999c10.667 16.667 28 40.334 52 71.001l163 149c82 75.333 150 134.666 204 177.999c84 68 158.667 117.333 224 148
c9.33301 -8.66699 19.666 -13.667 30.999 -15v-73l-9 -5c-50.667 -30.667 -100.334 -65.667 -149.001 -105c-163.333 -132.667 -466 -420 -908 -862c130.667 -93.333 311 -162.666 541 -207.999c24 -4.66699 169.333 -41 436 -109l188 -46
c6.66699 -2 43.667 -28.667 111 -80zM323.002 1360l-157 -1351c-10.667 -10.667 -30 -16 -58 -16c-47.333 0 -71 17 -71 51c0 13.333 10.333 101 31 263l77 525c7.33301 59.333 21.333 165.666 42 318.999c17.333 120.667 42.333 224.334 75 311.001
c41.333 -8.66699 62 -36 62 -82c0 -7.33301 -0.333008 -14 -1 -20z" />
    <glyph glyph-name="L" unicode="L" horiz-adv-x="1701" 
d="M1600 63c-3.33301 -0.666992 -10.666 -1.00195 -21.999 -1.00195c-34 0 -106 4 -216 12c-124 8.66699 -186 13.334 -186 14.001h1l-698 -47c-128 0 -220.333 5.33301 -277 16c-36.667 6.66699 -86.334 32.334 -149.001 77.001c58 180 108.333 355.333 151 526
c121.333 483.333 209.666 805 264.999 965l43 19c20 -40.667 30 -65.667 30 -75v-2l-332 -1325c8 -57.333 71.333 -86 190 -86c40.667 0 99.667 4.66699 177 14c79.333 9.33301 135.333 14 168 14h7l78 -3h5c18.667 0 64.334 1.66699 137.001 5c56 3.33301 103.333 5 142 5
c94.667 0 252.667 -22 474 -66z" />
    <glyph glyph-name="M" unicode="M" horiz-adv-x="2402" 
d="M2501 1791c0 -16.667 -96.665 -282.333 -289.998 -797c-30.667 -80 -67.334 -196 -110 -348c-46.667 -170 -71 -285 -73 -345c-27.333 -44 -57.333 -127.667 -90 -251c-41.333 18 -62 43.667 -62 77c0 121.333 99.667 491 299 1109l96 296l-1 45
c-140.667 -87.333 -257 -194 -349 -320c-42 -58.667 -97.333 -125.334 -166 -200.001l-177 -194c-66.667 -78.667 -157.334 -191.667 -272.001 -339c-102.667 -130 -162 -204.333 -178 -223c-92.667 -104 -162.667 -156 -210 -156h-84v228c7.33301 46 19.333 134 36 264
l68 527l-19 21l-869 -1209l-48 13v86l1030 1449h48c19.333 -32.667 29 -58.667 29 -78c0 -8.66699 -9 -51 -27 -127c-16.667 -72 -33.334 -149 -50.001 -231c-10.667 -58.667 -29.667 -216 -57 -472c-15.333 -141.333 -23 -222.333 -23 -243c2 -4 9.33301 -24.333 22 -61
c63.333 48 129.333 116 198 204c31.333 42.667 89.666 117.334 174.999 224.001c140 174 313.667 372.333 521 595c172.667 186 363.667 370.333 573.001 553c40 -24.667 60 -57 60 -97z" />
    <glyph glyph-name="N" unicode="N" horiz-adv-x="1826" 
d="M2239 1752c0 -48.667 -74.665 -208.333 -223.998 -479c-108.667 -198 -205 -364.667 -289 -500c-72.667 -118 -174.334 -266 -305.001 -444c-109.333 -148 -216.333 -252.667 -321 -314c-16.667 8.66699 -30 18.334 -40 29.001c-2 6 -44.667 186.667 -128 542
c-51.333 218.667 -112.333 393 -183 523l-624 -1068c-10.667 9.33301 -28 14 -52 14h-6v82c0 8.66699 107 195.667 321 561l369 630h50c69.333 -124 140 -355.333 212 -694c40.667 -190 82.667 -328 126 -414h2c5.33301 0 11.666 -3.33301 18.999 -10
c220 219.333 476 604 768 1154l147 285c9.33301 20 28.666 58 58 114c7.33301 14.667 26 30.667 56 48c29.333 -20.667 44 -40.334 44 -59.001z" />
    <glyph glyph-name="O" unicode="O" horiz-adv-x="2136" 
d="M2233 982c0 -23.333 -13.3311 -73.333 -39.998 -150c-24 -69.333 -44.333 -119.666 -61 -150.999c-80 -160.667 -207.667 -299.667 -383 -417c-102.667 -68.667 -262.5 -136.5 -479.5 -203.5s-385.833 -100.5 -506.5 -100.5h-136c-114.667 0 -233.667 44.667 -357 134
c-131.333 96 -197 198.667 -197 308c0 95.333 35.667 200 107 314c64 101.333 137.667 184.333 221 249c35.333 27.333 90.666 82 165.999 164c66 72 123.667 123 173 153c58 34.667 168.333 70.667 331 108c158.667 36 275 54 349 54
c181.333 0 350.666 -33.333 507.999 -100c203.333 -86.667 305 -207.334 305 -362.001zM2156 970c0 53.333 -15.665 96.332 -46.998 128.999c-143.333 148.667 -299 223 -467 223c-3.33301 0 -14.5 -0.833008 -33.5 -2.5s-29.833 -2.5 -32.5 -2.5c-4 0 -16 4 -36 12
s-31.333 12 -34 12c-6.66699 0 -28 -3 -64 -9c-35.333 -5.33301 -56 -8 -62 -8c-67.333 0 -184.666 -19.667 -351.999 -59l-123 -30c-50.667 -17.333 -83.334 -39.666 -98.001 -66.999l-21 -65c-133.333 -92 -208 -144.667 -224 -158c-76.667 -65.333 -130 -139 -160 -221
c-0.666992 -1.33301 -4.33398 -34.666 -11.001 -99.999c-3.33301 -40.667 -20 -66.667 -50 -78c-24 34 -41.333 73 -52 117c-74 -123.333 -111 -196.666 -111 -219.999c0 -70.667 49.667 -148.334 149 -233.001s189 -127 269 -127c2.66699 0 9.66699 0.833008 21 2.5
s17.666 2.5 18.999 2.5c4 0 17.5 -3.83301 40.5 -11.5s36.833 -11.5 41.5 -11.5c7.33301 0 68 7 182 21c80 10 158.333 21.667 235 35c18.667 9.33301 53.667 23.666 105 42.999c208.667 62 389.334 148.667 542.001 260c191.333 139.333 308.666 295 351.999 467
c13.333 52.667 20.666 79 22 79v0z" />
    <glyph glyph-name="P" unicode="P" horiz-adv-x="1591" 
d="M1828 1356c0 -7.33301 -8.33887 -33.332 -25.0059 -77.999s-27.334 -71.334 -32.001 -80.001c-55.333 -90.667 -159.666 -169.334 -312.999 -236.001l-573 -238c-85.333 -22.667 -166.666 -47.334 -243.999 -74.001c-63.333 -20.667 -155.333 -69.334 -276 -146.001
c-10 -74 -18.333 -154.333 -25 -241c-8.66699 -116 -20 -236.667 -34 -362c-20.667 -28 -46.667 -42 -78 -42c2.66699 0 4 0.333008 4 1c-4.66699 2.66699 -21 7 -49 13v68c0 64 5.33301 129 16 195c0 1.33301 6 18.333 18 51c12 31.333 18 50.333 18 57
c0 38 -7 76.667 -21 116c-9.33301 -26.667 -26.333 -44 -51 -52c-29.333 17.333 -44 47.333 -44 90c0 4.66699 24.667 40.667 74 108c50.667 70 80 118 88 144c6.66699 19.333 18.334 81.666 35.001 186.999c24.667 156 46.334 270 65.001 342
c40 156.667 87.333 256.334 142 299.001l57 -43v-44c-35.333 -27.333 -60.333 -77 -75 -149c-4.66699 -22 -15.334 -78.667 -32.001 -170c-3.33301 -16.667 -17 -60 -41 -130c-21.333 -61.333 -32 -98.666 -32 -111.999v-128c6 -6 11.667 -9 17 -9
c28.667 0 73.334 12 134.001 36c72.667 27.333 118.334 43.666 137.001 48.999c308.667 80 546.667 171 714 273c146.667 88.667 235.667 149 267 181c37.333 36.667 56 86.334 56 149.001c0 110 -49.667 202 -149 276c-91.333 68.667 -193.666 103 -306.999 103
c-89.333 0 -195 -11 -317 -33c-157.333 -28.667 -305 -68.667 -443 -120c-209.333 -77.333 -324.333 -161 -345 -251l-26 -19c-39.333 34 -59 66 -59 96c0 42.667 44.333 94.667 133 156c72.667 50.667 137.334 84.334 194.001 101.001c376.667 116 658 174 844 174
c176 0 316.333 -46 421 -138c104.667 -91.333 157 -214.666 157 -369.999z" />
    <glyph glyph-name="Q" unicode="Q" horiz-adv-x="2173" 
d="M2331 -3c-8.66699 -10 -13.667 -20.665 -15 -31.998l-44 -7c-24.667 -5.33301 -41.334 -8 -50.001 -8c-4 0 -94 49.333 -270 148c-177.333 98.667 -269.666 148 -276.999 148c-4.66699 0 -86 -33.667 -244 -101c-226 -95.333 -405.333 -143 -538 -143
c-193.333 0 -378.333 58.667 -555 176c-197.333 132 -296 289.333 -296 472c0 225.333 77.667 348.666 233 369.999c126.667 153.333 316.667 267.666 570 342.999c202.667 60.667 426 91 670 91c74 0 176.333 -23.667 307 -71c152.667 -54.667 229 -110.334 229 -167.001
c0 -2.66699 7.33301 -13.167 22 -31.5s22 -28.833 22 -31.5c6.66699 -15.333 15.667 -51.333 27 -108c11.333 -58.667 17 -96 17 -112c0 -82.667 -35.667 -186.334 -107 -311.001c-64.667 -113.333 -131.667 -202.666 -201 -267.999
c17.333 -35.333 93.333 -91.666 228 -168.999c144 -83.333 234.667 -146 272 -188zM2049 947.002c0 109.333 -38.4971 200.333 -115.497 273s-174.167 109 -291.5 109h-24c-10.667 0 -40.667 5.83301 -90 17.5s-77.333 17.5 -84 17.5c-117.333 0 -244 -14.333 -380 -43
c-430 -92.667 -687.667 -259.334 -773 -500.001c-5.33301 -56.667 -12.333 -117 -21 -181c-6 -23.333 -16.333 -35 -31 -35c-2 0 -4 0.333008 -6 1c-38 36 -57 79.333 -57 130c0 3.33301 0.666992 14.5 2 33.5s2 30.5 2 34.5c0 6.66699 -0.666992 13.334 -2 20.001
c0 -7.33301 -7.33301 -30.5 -22 -69.5s-22 -60.833 -22 -65.5c0 -11.333 9.66699 -45.666 29 -102.999c37.333 -113.333 125.166 -215.5 263.499 -306.5s274.166 -136.5 407.499 -136.5h154c56.667 0 127.667 16 213 48l208 81l84 29c15.333 12 24.666 31 27.999 57l-66 48
c-32.667 23.333 -49 41 -49 53c0 21.333 7 44.666 21 69.999h48c2.66699 0 37.5 -17.167 104.5 -51.5s103.167 -51.5 108.5 -51.5c70 0 149 70 237 210c82.667 132 124 235.667 124 311z" />
    <glyph glyph-name="R" unicode="R" horiz-adv-x="1790" 
d="M1811 201c-18.667 -40 -44.333 -59.998 -77 -59.998c-24.667 0 -85.334 12.333 -182.001 37l-388 95c-118 25.333 -230.667 51 -338 77c-51.333 8 -103 15.667 -155 23c-94.667 17.333 -157.667 37 -189 59c-78 56 -117 96.333 -117 121c0 50.667 26.667 88 80 112
l176 44c107.333 25.333 180.333 49.333 219 72c85.333 49.333 188.666 137.333 309.999 264c132 138 198 250 198 336c0 127.333 -49 209.333 -147 246c-53.333 20 -156 30 -308 30c-61.333 0 -116 -6 -164 -18c-28.667 -8.66699 -72.667 -21.334 -132 -38.001
c-62 -16 -147 -65.333 -255 -148c-22 -30 -57 -73 -105 -129c-22 17.333 -33 38.666 -33 63.999c0 72 55.667 138.667 167 200c64.667 36 153.334 73.667 266.001 113c141.333 48.667 252.333 73 333 73c162.667 0 283.334 -28 362.001 -84
c19.333 -13.333 48.333 -56.833 87 -130.5s58 -122.167 58 -145.5c0 -116.667 -65.667 -248 -197 -394c-100 -110.667 -215.667 -210 -347 -298c-16.667 -12 -63.667 -39.667 -141 -83l-119 -25c-78.667 -16 -126 -30.667 -142 -44c7.33301 -19.333 55 -38 143 -56l187 -37
c34.667 -8 96.667 -23.333 186 -46c121.333 -32 376 -108.667 764 -230zM422.001 1315c0 -11.333 -14.6689 -66 -44.002 -164c-32.667 -108.667 -51 -174 -55 -196c-40 -228 -63.667 -480 -71 -756c-8 -40 -16.667 -100.667 -26 -182c-2.66699 -2 -34.667 -20.667 -96 -56
c-19.333 138 -29 228 -29 270c0 15.333 12.667 103.666 38 264.999c34.667 224 66 399.667 94 527c14.667 66.667 40.334 159.334 77.001 278.001c16.667 18.667 33.334 46.667 50.001 84l62 -12v-58z" />
    <glyph glyph-name="S" unicode="S" horiz-adv-x="1715" 
d="M1631 544c0 -34.667 -32.9961 -75.333 -98.9961 -122c-52.667 -36.667 -102.334 -63.334 -149.001 -80.001c-35.333 -12 -249.666 -62.333 -642.999 -151c-296 -66.667 -488.667 -137 -578 -211c-14 1.33301 -30 10 -48 26v62c72.667 56 147 97.667 223 125
c84 29.333 204.333 62.666 361 99.999l364 87c55.333 12.667 113.666 28.667 174.999 48c70 22 125.333 44.667 166 68c8.66699 4.66699 28.334 23.334 59.001 56.001c-21.333 38 -56 68.667 -104 92c-32 16 -77 32.667 -135 50l-250 74
c-572.667 175.333 -859 340.666 -859 495.999c0 45.333 14.667 78 44 98c3.33301 2.66699 40.666 14.667 111.999 36c396.667 116 694 174 892 174h34c122.667 0 207.667 -27.333 255 -82c-8.66699 -10 -13.667 -20.667 -15 -32c-114 16 -179.667 24 -197 24
c-74 0 -200 -17 -378 -51c-162.667 -32 -319.334 -67.667 -470.001 -107c-62.667 -17.333 -112.334 -40 -149.001 -68c41.333 -69.333 115.666 -129.666 222.999 -180.999c16 -7.33301 107.333 -46.666 274 -117.999l206 -56c457.333 -126.667 686 -245.667 686 -357z" />
    <glyph glyph-name="T" unicode="T" horiz-adv-x="1790" 
d="M2418 1439l-1060 -53.999c-141.333 -6.66699 -219.333 -34.667 -234 -84c-8.66699 -27.333 -23 -102.333 -43 -225c-26 -160 -48.333 -324.667 -67 -494c-7.33301 -59.333 -18.666 -176 -33.999 -350c-4.66699 -50 -11 -100.333 -19 -151
c-2.66699 -8.66699 -23.667 -31.334 -63 -68.001h-72c10.667 46.667 23.667 154.334 39 323.001c17.333 202 37 368 59 498l83 478c-32 0.666992 -66.667 1 -104 1c-215.333 0 -422.666 -7.33301 -621.999 -22c-7.33301 0 -39.166 -7.83301 -95.499 -23.5
s-89.5 -23.5 -99.5 -23.5c-16.667 0 -35.334 14 -56.001 42v60l55 35c106.667 17.333 218.667 31.666 336 42.999l465 47c216.667 20.667 434.334 31 653.001 31h333c16 0 71.833 4.33301 167.5 13s151.834 13 168.5 13c84.667 0 154.667 -14 210 -42v-47z" />
    <glyph glyph-name="U" unicode="U" horiz-adv-x="2152" 
d="M2070 1251c0 -44 -28.6699 -166.669 -86.0029 -368.002c-30.667 -107.333 -75 -202.666 -133 -285.999c-117.333 -169.333 -283.666 -313 -498.999 -431c-215.333 -117.333 -419.333 -176 -612 -176c-75.333 0 -164.333 28.667 -267 86
c-93.333 52 -167.666 110 -222.999 174c-12 13.333 -36 52.333 -72 117c-12 10.667 -26.667 28 -44 52c-4.66699 18 -10 36 -16 54c-43.333 132.667 -65 233.334 -65 302.001c0 94 19.333 195.667 58 305c46 128.667 104.667 210 176 244c27.333 12.667 49.333 19 66 19
c10.667 0 16 -10.667 16 -32v0c-4 0 -56.667 -105 -158 -315c-28 -57.333 -42 -135.333 -42 -234c0 -143.333 56 -284 168 -422c118 -146.667 247 -220 387 -220h54c144 0 303.333 42 478 126c165.333 79.333 301.333 173.666 408 282.999
c68.667 70 128.334 155 179.001 255c30 59.333 61.667 127.333 95 204c28 88 42 179.333 42 274c0 84.667 -20.333 133.667 -61 147c-2 6.66699 -3 13.334 -3 20.001c0 49.333 16.333 74 49 74c4 0 10.667 -1.66699 20 -5c56.667 -22 85 -104.333 85 -247z" />
    <glyph glyph-name="V" unicode="V" horiz-adv-x="2018" 
d="M1969 1803c0 -40 -315 -501.998 -945 -1386c-63.333 -89.333 -117.666 -162.333 -162.999 -219c-78.667 -100 -138.667 -163.667 -180 -191c-16 -9.33301 -53.333 -14 -112 -14h-24c-77.333 121.333 -154.333 259 -231 413c-15.333 29.333 -59.333 145.666 -132 348.999
c-69.333 196.667 -104 308.667 -104 336c0 4.66699 2.33301 20.334 7 47.001c5.33301 26.667 8 42.334 8 47.001c16.667 3.33301 41 7.66602 73 12.999l135 -415c24 -52.667 55.333 -125.334 94 -218.001l94 -238c4 -6.66699 24 -38.334 60 -95.001
c37.333 -58 60.666 -87 69.999 -87c44.667 0 179 164.667 403 494c161.333 236.667 466 641.667 914 1215c22 -15.333 33 -32.333 33 -51z" />
    <glyph glyph-name="W" unicode="W" horiz-adv-x="2672" 
d="M2961 1705c-16 -17.333 -27.002 -47.3281 -33.002 -89.9951c-119.333 -148.667 -291.333 -388.334 -516 -719.001c-218.667 -320 -392.667 -558 -522 -714c-65.333 -80 -133.333 -158.333 -204 -235c-14 -14.667 -37 -22 -69 -22c-4 0 -13.667 0.666992 -29 2h-25
c-59.333 118.667 -120 305.667 -182 561c-62.667 260.667 -121 449 -175 565c-37.333 -52 -171.333 -261.333 -402 -628c-1.33301 -10.667 -4 -26.334 -8 -47.001c-11.333 -33.333 -51.666 -95 -120.999 -185c-74.667 -96 -122.667 -144 -144 -144h1
c0 -1.33301 -33.667 -6 -101 -14l-389 1280c6.66699 20.667 17.334 51 32.001 91c71.333 -59.333 139 -202.333 203 -429l44 -147c2 -30.667 8.66699 -77 20 -139c14 -26 33 -66.667 57 -122l48 -189c26 -96.667 52 -145 78 -145c38 0 153.333 163.333 346 490
c165.333 281.333 277 482.666 335 603.999c10.667 -10.667 28 -23.334 52 -38.001c49.333 -83.333 96.333 -218.333 141 -405c16.667 -74 48 -206.333 94 -397c35.333 -144.667 78.333 -271.334 129 -380.001h1c11.333 0 28.333 13.333 51 40l98 114
c60.667 66 111.667 126 153 180l1018 1318z" />
    <glyph glyph-name="X" unicode="X" horiz-adv-x="1678" 
d="M1745 1319c-10.667 -10.667 -15.999 -24 -15.999 -40v-4c-22.667 2 -40 3 -52 3c-20.667 0 -38 -3 -52 -9c-110 -52 -246.333 -129.667 -409 -233c-179.333 -115.333 -303 -210 -371 -284c68 -82 205.333 -229.333 412 -442l192 -192c19.333 -1.33301 41 -12.333 65 -33
v-55c-27.333 -28.667 -55 -43 -83 -43c-37.333 0 -68.666 15 -93.999 45l-176 207c-12 13.333 -128.333 124 -349 332c-50.667 48 -82.334 72 -95.001 72c-26.667 0 -57.334 -16.333 -92.001 -49l-79 -75c-70 -49.333 -149.667 -138.333 -239 -267
c-86 -122.667 -157.667 -202 -215 -238c-20.667 18 -31 41.667 -31 71c0 12 4 21.667 12 29c12 12 19.333 20.333 22 25l42 85c27.333 54.667 63.666 112 108.999 172c10 13.333 75.667 78.333 197 195c104.667 100.667 157 160.667 157 180c0 18 -28.667 52 -86 102
l-114 97c-40 44 -105.333 105 -196 183l-61 39c-28 18 -42 34 -42 48c0 31.333 23 59.333 69 84l171 -108c2.66699 -2 30.667 -29 84 -81c187.333 -182.667 295.333 -274 324 -274c10.667 0 26.334 5.66699 47.001 17c13.333 11.333 64.666 48 153.999 110
c362.667 250 591 375 685 375c28.667 0 65.334 -14.667 110.001 -44z" />
    <glyph glyph-name="Y" unicode="Y" horiz-adv-x="1045" 
d="M1437 1611c0 -24 -43.667 -70.667 -131 -140l-167 -134c-11.333 -8.66699 -44.333 -41 -99 -97l-227 -322c-119.333 -169.333 -240.333 -370 -363 -602c-26.667 -50 -44.667 -91 -54 -123l-41 -144c-15.333 -51.333 -42 -92 -80 -122h-67c-20 16 -30 39.333 -30 70
c0 24 48 132 144 324c53.333 106.667 135 252 245 436c134.667 226 219.334 370 254.001 432c-42.667 -8 -117.667 -33.333 -225 -76c-93.333 -37.333 -168.666 -56 -225.999 -56c-92.667 0 -161.334 49.333 -206.001 148c-34.667 74.667 -52 164.667 -52 270
c0 96 19.333 162.667 58 200c10 -6 23.667 -16.333 41 -31v-59c0 -275.333 57 -413 171 -413c127.333 0 297.666 65.333 510.999 196l484 304h45c8.66699 -42.667 13.667 -64 15 -64v3z" />
    <glyph glyph-name="Z" unicode="Z" horiz-adv-x="2167" 
d="M2336 59c-93.333 0 -255.331 4.66699 -485.998 14l-239 10l-1183 -105c-24.667 -2 -44.334 -3 -59.001 -3c-80.667 0 -156.334 15.667 -227.001 47c-62 26.667 -93 53 -93 79c0 73.333 108 202 324 386c9.33301 8 209 166 599 474c215.333 170 323 275.333 323 316
c0 46.667 -77.667 70 -233 70c-61.333 0 -110 -1.66699 -146 -5c-22 -6.66699 -56.333 -14.334 -103 -23.001c-64.667 -2.66699 -150 -9.66699 -256 -21c-9.33301 -1.33301 -42 -10.333 -98 -27c-42.667 -12.667 -74.667 -19 -96 -19c-22.667 0 -41.667 10 -57 30
c14 30.667 45 57.334 93 80.001c13.333 3.33301 40.666 9.33301 81.999 18c243.333 50.667 424.666 76 543.999 76h7c260.667 0 391 -44.667 391 -134c0 -44.667 -29.333 -102 -88 -172c-98 -116.667 -226.333 -239.667 -385 -369l-415 -335l-165 -125
c-66 -50.667 -113.333 -99 -142 -145v-34c50.667 -32 117.334 -48 200.001 -48c10.667 0 67.334 5 170.001 15l331 32c212.667 20.667 481 31 805 31c340 0 540.667 -37.667 602 -113z" />
    <glyph glyph-name="bracketleft" unicode="[" horiz-adv-x="1078" 
d="M1034 -413c-28 -48.667 -47.334 -73 -58.001 -73c-6 0 -19.667 2 -41 6s-35.333 6 -42 6c-4 0 -10 -4.5 -18 -13.5s-14.667 -13.5 -20 -13.5c-2 0 -20 5.66699 -54 17c-33.333 10.667 -53.666 16 -60.999 16h-1l28 -4c17.333 -2.66699 26 -4.33398 26 -5.00098v0
c-21.333 0 -62.666 4.66699 -123.999 14c-26.667 4.66699 -44.667 7 -54 7h1c0 -1.33301 -10.667 -5.33301 -32 -12c-24.667 -7.33301 -49.667 -11 -75 -11h-100c-64.667 -7.33301 -170.667 -17.333 -318 -30l75 1101c20 291.333 30 468 30 530v5l-1 205
c-0.666992 138 -5 233.333 -13 286c-0.666992 4.66699 -1 10 -1 16c0 16 4.33301 45 13 87c8.66699 46 13.667 73 15 81l26 24c74.667 0 186.667 7.66699 336 23h5c30.667 0 73 4 127 12c7.33301 2.66699 17 5 29 7c13.333 2.66699 34 4 62 4c18.667 0 40 -0.666992 64 -2
h38c35.333 0 64 2.66699 86 8c17.333 -14 26 -37 26 -69c0 -43.333 -38.333 -65.333 -115 -66c-66 -0.666992 -123 -3.66699 -171 -9c-24.667 -10 -67.667 -17 -129 -21c-43.333 -2.66699 -86.666 -5 -129.999 -7c-50 -3.33301 -78.333 -6.33301 -85 -9
c-25.333 -8 -38 -25.667 -38 -53c0 -3.33301 0.333008 -17 1 -41c0.666992 -27.333 1 -53 1 -77l1 -119v-21c0 -97.333 -6.33301 -213.666 -19 -348.999c-14 -150.667 -21 -237 -21 -259c0 -182.667 -10.333 -405.667 -31 -669c-2 -26 -12 -112.333 -30 -259
c-8 -64 -12 -101.667 -12 -113c0 -64.667 30 -97 90 -97c9.33301 0 27.166 1.5 53.499 4.5s42.166 4.5 47.499 4.5c62 2.66699 100.333 4 115 4c2.66699 0 16.667 4.16699 42 12.5s41.333 12.5 48 12.5s23.667 -3.33301 51 -10c27.333 -6 44.666 -9 51.999 -9
c3.33301 0 10.333 2.33301 21 7c10.667 3.33301 18.334 5 23.001 5c20 0 84 -15.333 192 -46z" />
    <glyph glyph-name="backslash" unicode="\" horiz-adv-x="1028" 
d="M994 -248c-91.333 28 -153.668 80.332 -187.001 156.999c-18 58 -46.333 144 -85 258l-140 324c-15.333 36.667 -28.666 75 -39.999 115c-2.66699 11.333 -7 28 -13 50c-15.333 19.333 -38 53 -68 101c-2 2.66699 -15.667 35.667 -41 99l-363 957l17 57h46
c92 -152.667 188.333 -368 289 -646c110 -303.333 221 -581.666 333 -834.999l252 -567v-70z" />
    <glyph glyph-name="bracketright" unicode="]" horiz-adv-x="1053" 
d="M994 1321c0 -10 -12.3301 -79.002 -36.9971 -207.002c-10 -54 -18.333 -133.333 -25 -238c-8.66699 -123.333 -16.334 -202.666 -23.001 -237.999l-44 -232c-1.33301 -50 -4.33301 -105.333 -9 -166c-20 -294 -45.667 -529.667 -77 -707
c-111.333 -48.667 -201.333 -73 -270 -73v0l-104 8c-71.333 4.66699 -121.666 7 -150.999 7c-69.333 0 -125 -3 -167 -9c-29.333 -4.66699 -51 -10.667 -65 -18l-17 -8v0h1c0 0.666992 -18.333 4.66699 -55 12c-10.667 21.333 -16 54 -16 98v17l41 35
c5.33301 2 107.666 3 306.999 3c4 0 14.333 -2 31 -6c15.333 -4.66699 24.666 -7 27.999 -7c46 0 102.333 6.66699 169 20c89.333 17.333 136.333 39 141 65c17.333 75.333 33.333 180 48 314l89 790c2.66699 40.667 9.33398 118.334 20.001 233.001c8 60.667 22 178 42 352
c9.33301 86 14 142 14 168c0 80 -16 130.333 -48 151c-48 32.667 -132 49 -252 49c-8 0 -35 -1.66699 -81 -5c-46.667 -2.66699 -74.334 -4 -83.001 -4c-16.667 0 -74 3 -172 9c-97.333 5.33301 -154.333 8 -171 8c-3.33301 15.333 -8 40 -14 74
c7.33301 5.33301 25.666 17 54.999 35c12 0.666992 49 6 111 16c57.333 10 96.333 15 117 15c6.66699 0 29 -4.5 67 -13.5s60.333 -13.5 67 -13.5c8 0 35.833 4.5 83.5 13.5s75.5 13.5 83.5 13.5c13.333 0 61.333 -8 144 -24c80 -16 130.667 -27.333 152 -34
c14.667 -4 38 -24.667 70 -62v-441z" />
    <glyph glyph-name="asciicircum" unicode="^" horiz-adv-x="966" 
d="M963 1446c0 -15.333 -12.168 -34.167 -36.501 -56.5s-44.833 -33.5 -61.5 -33.5c-4 0 -55 53.333 -153 160c-98 107.333 -149.667 161 -155 161c-22.667 0 -86 -52.667 -190 -158l-195 -198c-29.333 -29.333 -76.666 -52.333 -141.999 -69
c-12.667 11.333 -19 33.666 -19 66.999c0 24.667 6 44.334 18 59.001c11.333 13.333 70 68.333 176 165c154.667 140.667 267 253.334 337 338.001h3c14 0 35.333 -9 64 -27c30.667 -18.667 52 -36.334 64 -53.001s35.667 -47.667 71 -93l119 -134
c66.667 -76 100 -118.667 100 -128z" />
    <glyph glyph-name="underscore" unicode="_" horiz-adv-x="3072" 
d="M3032 -189c-8 0 -31.335 -8.66895 -70.002 -26.002s-60 -26 -64 -26c-8.66699 0 -28.667 7 -60 21c-35.333 14.667 -58 23 -68 25c-34 6.66699 -77 11 -129 13l-855 32h-10c-40.667 0 -153 -4.33301 -337 -13c-179.333 -10 -294.666 -15 -345.999 -15
c-4 0 -17.833 4.66699 -41.5 14s-37.834 14 -42.501 14c-6 0 -26.333 -6.66699 -61 -20s-55 -20 -61 -20c-14.667 -0.666992 -60.667 -3 -138 -7c-163.333 -10 -302.666 -17.667 -417.999 -23l-40 -32c-4.66699 0 -27 -2.66699 -67 -8c-36 -5.33301 -61.667 -8 -77 -8
c-72 0 -108 23.667 -108 71c0 24.667 10.333 50.334 31 77.001c134.667 22 250.334 33 347.001 33c4.66699 0 18 -2.33301 40 -7c22 -4 35 -6 39 -6c3.33301 0 20 3.33301 50 10c7.33301 1.33301 16.333 2.33301 27 3l893 45l1330 -33c3.33301 0 20 6.66699 50 20
c29.333 12 46.666 18 52 18c26 0 50.667 -14.667 74 -44c29.333 -35.333 49.333 -55.666 60 -60.999v-47z" />
    <glyph glyph-name="grave" unicode="`" horiz-adv-x="739" 
d="M719 1508c0 -7.33301 -6.99902 -17.667 -20.999 -31c-23.333 -22 -47 -33 -71 -33c-14 0 -41.333 10.333 -82 31l-86 42c-55.333 28 -117.333 68.333 -186 121c-74.667 57.333 -139.667 93.666 -195 108.999c-29.333 36.667 -44 65.334 -44 86.001
c0 20 2.66699 32.333 8 37c4 3.33301 17 5 39 5c35.333 0 88.666 -20.667 159.999 -62c170 -100.667 326 -198 468 -292z" />
    <glyph glyph-name="a" unicode="a" 
d="M999 3c-14 -19.333 -29.3311 -29.0029 -45.998 -29.0029c-10.667 0 -46.667 32 -108 96c-61.333 64.667 -102.333 97 -123 97v0c0 -1.33301 -72.667 -29.333 -218 -84c-148.667 -55.333 -243.334 -83 -284.001 -83c-33.333 0 -70.333 16.333 -111 49
s-61 63.334 -61 92.001c0 74 81 160.333 243 259c152 93.333 268 140 348 140c33.333 0 63.333 -19 90 -57v-43c-13.333 -19.333 -28.666 -29 -45.999 -29c-3.33301 0 -14.833 4.33301 -34.5 13s-31.5 13 -35.5 13c-26.667 0 -87.667 -27.333 -183 -82
c-90.667 -51.333 -151.334 -89.666 -182.001 -114.999c-30.667 -26.667 -50.334 -57 -59.001 -91c23.333 -22 51 -33 83 -33c16.667 0 97 27.667 241 83c143.333 56 230 84 260 84c44 0 75.667 -11 95 -33c4.66699 -5.33301 21.667 -35.333 51 -90
c22 -41.333 48.667 -78.666 80 -111.999v-45z" />
    <glyph glyph-name="b" unicode="b" horiz-adv-x="1457" 
d="M1411 417c0 -50.667 -56.3311 -109.332 -168.998 -175.999c-84 -50.667 -165.667 -88.334 -245 -113.001c-72.667 -22 -163.334 -39.333 -272.001 -52c-30.667 -4 -123.334 -14.667 -278.001 -32c-18 -2 -69.667 -11 -155 -27c-69.333 -12.667 -118.333 -19 -147 -19
c-16.667 0 -42.334 10 -77.001 30c18.667 44 41.667 70.667 69 80c42.667 14 120 25.333 232 34c69.333 5.33301 202 18.333 398 39c62.667 7.33301 164 39 304 95c148.667 59.333 223 111 223 155v4c-4 38 -52 70.333 -144 97c-74 21.333 -142 32 -204 32
c-6 0 -10.333 -0.333008 -13 -1l-670 -126c-3.33301 -0.666992 -7.66602 -1 -12.999 -1c-26 0 -68.667 9.66699 -128 29v272c0 85.333 5.66699 205.333 17 360l43 578c4.66699 65.333 17 118.666 37 159.999h58c20.667 -31.333 31 -70.333 31 -117
c0 -8 -0.333008 -15.667 -1 -23l-70 -1059v-3c0 -13.333 7 -27.666 21 -42.999c14 -16.667 28.333 -25 43 -25c6 0 66.667 7.66699 182 23l377 49c93.333 12 144.666 18 153.999 18c92.667 0 177.334 -18 254.001 -54c95.333 -44.667 143 -106 143 -184z" />
    <glyph glyph-name="c" unicode="c" horiz-adv-x="1045" 
d="M1006 142c-39.333 -24 -79.668 -40.3311 -121.001 -48.998c-65.333 -13.333 -160.333 -29.666 -285 -48.999c-82 -13.333 -131.333 -20 -148 -20c-84 0 -167.667 17 -251 51c-106 42.667 -159 99 -159 169c0 79.333 57 150 171 212c166 90 270 135 312 135l127 -13h-1
c-8.66699 0 -13.667 -8 -15 -24c-2.66699 -22 -4.66699 -33.667 -6 -35c-65.333 -20.667 -149.333 -57.334 -252 -110.001c-130 -66.667 -195 -117.334 -195 -152.001c0 -64.667 81.333 -106.334 244 -125.001c28.667 -2.66699 47.334 -4 56.001 -4h3l502 76l18 -15v-47z
" />
    <glyph glyph-name="d" unicode="d" horiz-adv-x="1314" 
d="M1241 594c-86.667 -38 -224.669 -87.335 -414.002 -148.002c-178 -57.333 -286 -92.666 -324 -105.999c-160 -59.333 -254.667 -108 -284 -146c0.666992 -18.667 8.33398 -32 23.001 -40c34 -19.333 105.667 -29 215 -29c38 0 125.667 14.667 263 44
c184 38.667 352.667 79 506 121c-8 -42 -25.333 -70 -52 -84c-28 -15.333 -131 -49.333 -309 -102c-184 -54.667 -290 -82 -318 -82c-9.33301 0 -40.5 -2.16699 -93.5 -6.5s-84.167 -6.5 -93.5 -6.5c-54.667 0 -116 13 -184 39c-82 31.333 -123 70 -123 116
c0 58.667 18.333 99.667 55 123c6 3.33301 47.333 22.666 124 57.999c160.667 72.667 295.334 120.334 404.001 143.001c36.667 8 84 24.667 142 50c66 30 112.667 49 140 57l114 22c38 8 71.333 26.667 100 56c-18.667 236.667 -28 528.334 -28 875.001
c0 197.333 15.333 301.333 46 312c25.333 -11.333 41.666 -21.666 48.999 -30.999c12.667 -16.667 20.334 -47.334 23.001 -92.001v3c-0.666992 0 -1 -76.667 -1 -230l1 -673c0 -78 6.33301 -159 19 -243z" />
    <glyph glyph-name="e" unicode="e" horiz-adv-x="1053" 
d="M1025 53c-24.667 -29.333 -56.666 -44.002 -95.999 -44.002h-354c-82 0 -173.333 12.333 -274 37c-132 32 -206.667 72.333 -224 121c-19.333 54.667 -29 107 -29 157c0 100.667 43.333 178 130 232c73.333 46.667 162.666 70 267.999 70
c90.667 0 162.667 -19.5 216 -58.5s80 -92.167 80 -159.5c0 -37.333 -64 -78.333 -192 -123c-106 -38 -183 -57 -231 -57c-6 0 -11.333 0.333008 -16 1c0 -9.33301 -7.33301 -20.666 -22 -33.999c8 -13.333 47 -28.666 117 -45.999c62.667 -16 107.334 -24 134.001 -24h318
v0c0 -0.666992 40 -6.66699 120 -18c25.333 -16 43.666 -34 54.999 -54zM613.001 451.998c-37.333 38 -97.333 57 -180 57c-58 0 -111.667 -11.333 -161 -34c-64 -29.333 -96 -69 -96 -119c0 -18 6 -30.667 18 -38h64c22.667 0 84 19 184 57s157 63.667 171 77z" />
    <glyph glyph-name="f" unicode="f" horiz-adv-x="1528" 
d="M1805 1383l0.000976562 1.00195c-1.33301 0 -6.66602 -17.667 -15.999 -53c-116.667 162.667 -284.334 244 -503.001 244c-73.333 0 -151.666 -17.667 -234.999 -53c-89.333 -36.667 -154 -82.334 -194 -137.001c-45.333 -62 -90.333 -155.667 -135 -281
c-48 -131.333 -72 -231 -72 -299c0 -21.333 4.33301 -65.333 13 -132c8.66699 -72.667 13.667 -115.667 15 -129c29.333 -23.333 51.666 -35 66.999 -35c6.66699 0 22.667 3.33301 48 10c26 6.66699 39.667 10 41 10c51.333 5.33301 164 8 338 8
c114 0 222.333 -3.33301 325 -10c-6 0 -20.333 -9 -43 -27l3 -28l-371 -22c-150.667 -8.66699 -266.667 -39.334 -348 -92.001c20 -70.667 63 -163.667 129 -279v-55c-6.66699 -12 -19.334 -18 -38.001 -18c-18 0 -64 60.333 -138 181c-75.333 120 -121.333 180 -138 180
c-38.667 0 -94 -7.33301 -166 -22c-22 -5.33301 -66 -20 -132 -44c-65.333 -24.667 -103.333 -37 -114 -37c-36.667 0 -77 22.667 -121 68v4c0 30 14 51.333 42 64c77.333 36 231.333 64.667 462 86c13.333 9.33301 23.333 19.333 30 30
c-9.33301 78.667 -14 155.667 -14 231c0 260 57 475.667 171 647c130 197.333 319 296 567 296c112.667 0 222 -24 328 -72c132.667 -60.667 199 -139 199 -235z" />
    <glyph glyph-name="g" unicode="g" horiz-adv-x="1006" 
d="M907 -216c0 -140 -33.666 -278.664 -100.999 -415.997c-77.333 -154.667 -183 -271.334 -317 -350.001c-74.667 -44.667 -224.334 -67 -449.001 -67c-36 0 -89.333 7.33301 -160 22c-71.333 15.333 -125.666 30.333 -162.999 45c-52.667 20.667 -95.667 47 -129 79
c-22.667 21.333 -44.334 56 -65.001 104c-20 47.333 -30 86.666 -30 117.999c0 90 97.667 182.333 293 277c136 65.333 292.333 121.666 469 168.999c128 34.667 295.333 64 502 88l22 11c0.666992 7.33301 1 14.666 1 21.999c0 6 -6.33301 56.333 -19 151
c-4 28.667 -19.667 77.334 -47 146.001c-31.333 78.667 -54.666 118 -69.999 118c2 0 3 -0.333008 3 -1c0 -4 -38 -18.667 -114 -44c-90 -30 -154 -45 -192 -45c-54 0 -100.667 9.33301 -140 28c-52 24.667 -78 60 -78 106c0 15.333 2.33301 37 7 65l10 53l40 48
c31.333 17.333 78.666 37 141.999 59c70.667 25.333 118.334 38 143.001 38h286l15 -61l-44 -38c-18.667 1.33301 -37 2 -55 2c-233.333 0 -380 -46 -440 -138c33.333 -39.333 77.666 -59 132.999 -59c22 0 84 25.667 186 77c92 46 138 71.333 138 76
c0 0.666992 -0.333008 1 -1 1c35.333 0 68 -40.333 98 -121c84 -220 126 -407.667 126 -563zM792.001 -239.997c0 28 -5.66602 49.333 -16.999 64h-42c-14.667 -7.33301 -42.334 -28.333 -83.001 -63c-46.667 -6 -100.334 -15.667 -161.001 -29
c-288 -64 -531.333 -149.333 -730 -256c-94 -51.333 -141 -116.333 -141 -195c0 -94.667 101.667 -166.667 305 -216c64.667 -16 129.667 -24 195 -24c114 0 205 16 273 48c24 20.667 45.333 36.667 64 48c12.667 8 36 24.333 70 49c74.667 58 139.334 148.667 194.001 272
c48.667 110 73 210.667 73 302z" />
    <glyph glyph-name="h" unicode="h" horiz-adv-x="1116" 
d="M1082 -172l-31.001 -28c-84.667 34 -127 90.667 -127 170c0 6 0.833008 24.167 2.5 54.5s2.5 47.833 2.5 52.5c0 89.333 -48.667 134 -146 134h-28c-73.333 0 -204.333 -23 -393 -69c-94.667 -22.667 -143.667 -34 -147 -34c-45.333 0 -98.666 22 -159.999 66l79 858
c36 391.333 91.667 672 167 842c16 -4 40.667 -9 74 -15c-18 -60.667 -43.333 -196.667 -76 -408c-31.333 -196.667 -50.333 -334 -57 -412c-14 -155.333 -28 -320.333 -42 -495c-11.333 -146 -17 -229.667 -17 -251v-14c0 -19.333 2.66699 -31.333 8 -36
c5.33301 -4 20 -6 44 -6c6.66699 0 22.167 3.33301 46.5 10l36.5 10v0c17.333 2 120.666 16.667 309.999 44c120.667 17.333 184.334 26 191.001 26c2.66699 0 12 0.333008 28 1s25.333 1 28 1c20 0 36.333 -2.66699 49 -8c60.667 -24 98.667 -76 114 -156
c6 -30 9 -98.333 9 -205c0 -36.667 11.667 -65.667 35 -87v-45z" />
    <glyph glyph-name="i" unicode="i" horiz-adv-x="433" 
d="M364 970l1 -4c0 -26 -27.333 -57.667 -82 -95c-16 4.66699 -48.667 32 -98 82c20 48 41.667 72 65 72c22 0 60 -18.333 114 -55zM270 206c-8 -108 -12 -170.668 -12 -188.001c-32 -18 -60.667 -27 -86 -27c-10.667 30.667 -16 68.667 -16 114
c0 252 31.333 385.667 94 401c22 -10 34 -27 36 -51c-0.666992 8.66699 -1.66699 13.334 -3 14.001c0.666992 -7.33301 1 -16.333 1 -27c0 -47.333 -4.66699 -126 -14 -236z" />
    <glyph glyph-name="j" unicode="j" horiz-adv-x="529" 
d="M373 988c0 -30.667 -25.667 -67.332 -77 -109.999c-54 22 -81 53.667 -81 95c0 24 24.667 48.667 74 74c56 -16.667 84 -36.334 84 -59.001zM435 -728.998c0.666992 -12 0.998047 -23.334 0.998047 -34.001c0 -94.667 -11 -161.334 -33 -200.001
c-19.333 -35.333 -91.666 -63.333 -216.999 -84c-90.667 -14.667 -174.667 -22 -252 -22c-85.333 0 -156.333 24.667 -213 74c-54 46.667 -81.333 103.334 -82 170.001c0 4 0.333008 8.33301 1 13c112.667 -96.667 186 -145 220 -145c248 0 386.667 30 416 90
c21.333 43.333 32 117.333 32 222c0 29.333 -0.666992 50.666 -2 63.999l-51 974v8c0 23.333 5.66699 49.333 17 78c14.667 38 32.334 57 53.001 57c38 0 60.667 -81.333 68 -244c1.33301 -33.333 3 -129.666 5 -288.999c8 -37.333 15.667 -79.666 23 -126.999z" />
    <glyph glyph-name="k" unicode="k" horiz-adv-x="1122" 
d="M990 18l-0.00195312 -5.99707c0 -22.667 -16 -46.334 -48 -71.001c-31.333 -24.667 -59.666 -38.667 -84.999 -42h-4c-20.667 0 -56 20 -106 60l-105 85l-89 101c-9.33301 -3.33301 -85.333 -33.333 -228 -90c-47.333 -18.667 -97.666 -36 -150.999 -52
c-7.33301 -0.666992 -14.666 -1 -21.999 -1c-50 0 -77.667 24.333 -83 73c-0.666992 2 -1 5 -1 9c0 31.333 9.33301 114 28 248l39 283c24 179.333 41.333 362.666 52 549.999c0.666992 6.66699 8.66699 169 24 487c2 51.333 5.66699 98 11 140
c3.33301 20.667 19.333 41.334 48 62.001c31.333 -11.333 50 -36.666 56 -75.999v-12c0 -30.667 -3 -118.334 -9 -263.001c-4.66699 -88.667 -25.334 -343.667 -62.001 -765v-77c0 -42 -0.666992 -83.333 -2 -124c-0.666992 -15.333 -8.66699 -62 -24 -140
c-12 -62.667 -18 -102 -18 -118v-4l13 -111c25.333 -2.66699 38 -4.66699 38 -6h-4c54.667 24 112.334 46 173.001 66c156.667 51.333 282 99.666 376 144.999l179 83l41 5c23.333 -11.333 37.666 -47.333 42.999 -108c-19.333 -13.333 -75 -39 -167 -77
c-80 -33.333 -130.333 -65.333 -151 -96c42 -86.667 121.333 -139.334 238 -158.001z" />
    <glyph glyph-name="l" unicode="l" horiz-adv-x="448" 
d="M327 1710l-57.001 -1264c-3.33301 -2.66699 -5 -10.667 -5 -24s1.66699 -31.666 5 -54.999c7.33301 -62.667 24.666 -181.334 51.999 -356.001c-1.33301 -6 -12.666 -12.667 -33.999 -20c-4 -0.666992 -7.66699 -1 -11 -1c-70 0 -115.333 80.667 -136 242
c-0.666992 3.33301 -1 10 -1 20c0 31.333 1.66699 95.666 5 192.999c4.66699 125.333 10.334 256.333 17.001 393c2 52 9.66699 148.667 23 290c12.667 129.333 19 225.333 19 288c0 191.333 12.667 325 38 401l15 1h5c22.667 0 38 -12.667 46 -38
c6 -16.667 12.333 -40 19 -70z" />
    <glyph glyph-name="m" unicode="m" horiz-adv-x="1616" 
d="M1570 365c0 -19.333 -2.33203 -82.333 -6.99902 -189c-4.66699 -107.333 -7 -170.333 -7 -189c-19.333 -1.33301 -38.333 -10.333 -57 -27c-48.667 39.333 -73 100 -73 182c0 8.66699 2 39.667 6 93c4.66699 53.333 7 84.666 7 93.999c0 40 -6.33301 71.667 -19 95h-35
c-29.333 0 -142 -60.333 -338 -181l-292 -181c-29.333 0 -69 18.667 -119 56c-1.33301 6 -2 12.667 -2 20c0 8 3 36 9 84s9 76.333 9 85c0 42 -9.33301 76.333 -28 103h-34c-30 0 -176 -119.667 -438 -359h-58c-17.333 26 -26 45 -26 57c0 18.667 43.333 55.667 130 111
c12.667 8 88.667 75.333 228 202c105.333 95.333 187 143 245 143c62.667 0 94 -72.333 94 -217c0 -12 -0.666992 -31.667 -2 -59c-2.66699 -27.333 -4 -47.333 -4 -60c24.667 -5.33301 37.667 -8.66602 39 -9.99902c-0.666992 -0.666992 -2.33398 -1 -5.00098 -1
c13.333 0 128 65 344 195c16 14.667 42.333 33.667 79 57c126 54.667 212.333 82 259 82c63.333 0 95 -62 95 -186z" />
    <glyph glyph-name="n" unicode="n" horiz-adv-x="1041" 
d="M940 540c0 -14 -7.00293 -93.668 -21.0029 -239.001c-12 -120.667 -26.667 -252 -44 -394c-1.33301 -10.667 -12 -16 -32 -16c-26 0 -47.333 32.667 -64 98c-12.667 50 -19 94.333 -19 133c0 14.667 8.5 67.334 25.5 158.001s25.5 143 25.5 157
c0 39.333 -10.667 59 -32 59c-27.333 0 -85.666 -23.667 -174.999 -71c-77.333 -41.333 -133.666 -75 -168.999 -101c-67.333 -49.333 -143.666 -123.666 -228.999 -222.999l-82 -92c-16 -16.667 -47.667 -25.334 -95 -26.001v67c0 31.333 61.333 100.333 184 207
c98 85.333 200.667 162.666 308 231.999c150.667 98 262.667 147 336 147c19.333 0 38 -10.667 56 -32s27 -42.666 27 -63.999z" />
    <glyph glyph-name="o" unicode="o" horiz-adv-x="1243" 
d="M1166 365c0 -71.333 -15.001 -132.332 -45.001 -182.999c-27.333 -46 -124.333 -91.333 -291 -136c-148.667 -40 -261.667 -60 -339 -60c-90.667 0 -180.334 21.667 -269.001 65c-107.333 53.333 -161 119.666 -161 198.999c0 35.333 20.333 71.333 61 108
c36 26 90.333 75 163 147c48 58.667 136 106 264 142c108 30.667 209 46 303 46c25.333 0 63.333 -11 114 -33c50.667 -23.333 85.334 -44.666 104.001 -63.999c18.667 -20.667 39.334 -57.834 62.001 -111.501s34 -93.5 34 -119.5zM1064 373.001
c0 49.333 -29.667 96.335 -89 141.002c-54.667 42 -108.667 63 -162 63c-10 0 -87.667 -14.333 -233 -43c-56 -11.333 -107 -33 -153 -65c-157.333 -112 -236 -189.333 -236 -232c0 -36 43 -68.667 129 -98c73.333 -25.333 133 -38 179 -38c68.667 0 165 14 289 42
c113.333 25.333 194 63.666 242 114.999c22.667 23.333 34 61.666 34 114.999z" />
    <glyph glyph-name="p" unicode="p" horiz-adv-x="1076" 
d="M1054 450c0 -68 -65.002 -146.998 -195.002 -236.998c-91.333 -64 -186.666 -117.333 -285.999 -160c-70.667 -31.333 -118.667 -47 -144 -47h-41l-28 31c14 35.333 32 61.666 54 78.999l109 44c267.333 103.333 401 204.333 401 303c0 64 -92.667 96 -278 96
c-91.333 0 -181.666 -7.33301 -270.999 -22c-127.333 -21.333 -205.666 -53 -234.999 -95c-8.66699 -35.333 -23.334 -84 -44.001 -146c-39.333 60.667 -59 110 -59 148c0 41.333 11 75 33 101c26 31.333 114.333 63.666 265 96.999c135.333 30 233.333 45 294 45
c283.333 0 425 -79 425 -237zM397.998 276.002c0 -8.66699 -12.667 -39.667 -38 -93c-30 -60.667 -46.667 -96.667 -50 -108c-107.333 -358.667 -168.333 -689.334 -183 -992.001c-38.667 -8.66699 -58 -13.667 -58 -15h1c-15.333 0 -30.833 8 -46.5 24
s-23.5 31.667 -23.5 47c0 185.333 65.333 498.333 196 939c18 60.667 43.667 121 77 181c11.333 20.667 42.333 43.334 93 68.001c21.333 -14.667 32 -31.667 32 -51z" />
    <glyph glyph-name="q" unicode="q" horiz-adv-x="1076" 
d="M1025 138c0 -48.667 -16.333 -115.332 -49 -199.999l-78 -201c-49.333 -139.333 -75.666 -219 -78.999 -239l-24 -169l-61 -400l-23 -29h-70c-11.333 8 -17 22.667 -17 44c0 163.333 29.667 351 89 563c3.33301 23.333 31 122.666 83 297.999c2 7.33301 18.333 52 49 134
c25.333 66.667 38 107.334 38 122.001c0 30 -12.667 45 -38 45c-18 0 -114.333 -18.667 -289 -56c-106.667 -22.667 -226.667 -34 -360 -34c-38 0 -76.333 15 -115 45c-40 30 -60 60 -60 90c0 23.333 9.66699 54.666 29 93.999s38 64 56 74c36.667 21.333 112.667 43 228 65
c105.333 20 185.666 30 240.999 30c51.333 0 94 -13.667 128 -41c-3.33301 -18.667 -8 -46.667 -14 -84c-19.333 -10.667 -47 -16 -83 -16c-6.66699 0 -28 6.33301 -64 19s-57.333 19 -64 19c-26.667 0 -80 -17 -160 -51c-81.333 -35.333 -133 -63.333 -155 -84
c14 -31.333 41 -47 81 -47c2 0 10.833 0.5 26.5 1.5s25.167 1.5 28.5 1.5c6.66699 0 62.667 9.33301 168 28l345 64c86 15.333 133 23 141 23c48 0 72 -36.333 72 -109z" />
    <glyph glyph-name="r" unicode="r" horiz-adv-x="1001" 
d="M935 518l-32.002 -29.002c-70 22 -124.333 33 -163 33h-8c-50 -2.66699 -86.667 -4 -110 -4h-80c-1.33301 0 -24.666 -7.33301 -69.999 -22c-28.667 -2 -71 -9.33301 -127 -22c-89.333 -39.333 -142.666 -108.666 -159.999 -207.999c-7.33301 -39.333 -11 -74 -11 -104
c0 -8 0.333008 -16 1 -24c5.33301 -74 8 -117.667 8 -131c-15.333 -4 -40 -8 -74 -12c-18.667 36 -28 61 -28 75c0 7.33301 1.66699 26.333 5 57c2 30.667 3 51.334 3 62.001c0 56 24.667 152.333 74 289c16.667 34.667 40.667 63 72 85c68 46.667 193.667 70 377 70
c184 -0.666992 291.667 -25 323 -73v-42z" />
    <glyph glyph-name="s" unicode="s" horiz-adv-x="775" 
d="M725 241c0 -56.667 -18.332 -94.3281 -54.999 -112.995c-27.333 -12.667 -94 -35.334 -200 -68.001c-110 -34 -177.333 -51 -202 -51c-4 0 -9.33301 2.16699 -16 6.5s-11.667 6.5 -15 6.5c-14.667 0 -43 -21.333 -85 -64c-29.333 22 -44 39 -44 51
c0 74.667 112.333 134.667 337 180c14 3.33301 40 8.33301 78 15c10.667 7.33301 27 22 49 44c-21.333 35.333 -54.333 61.666 -99 78.999c-44.667 15.333 -125.334 45.666 -242.001 90.999c-116 44.667 -174 95 -174 151c0 72.667 72.667 109 218 109
c55.333 0 126.333 -6.33301 213 -19c101.333 -14.667 167.333 -31.334 198 -50.001l-16 -26l-371 -19c-2 -2.66699 -10 -9.33398 -24 -20.001l267 -119c122 -54 183 -115.333 183 -184z" />
    <glyph glyph-name="t" unicode="t" horiz-adv-x="1085" 
d="M1098 676c-152.667 0 -284.002 -25.3291 -394.002 -75.9961c-26.667 -12 -43 -29 -49 -51c-1.33301 -31.333 -6.66602 -88.333 -15.999 -171c-3.33301 -30.667 -5 -62.334 -5 -95.001c0 -6.66699 1.5 -28.834 4.5 -66.501s4.5 -59.5 4.5 -65.5
c0 -52.667 -13 -96.334 -39 -131.001c-5.33301 1.33301 -20 7 -44 17c-26 67.333 -39 145.666 -39 234.999c0 22 3.66699 66 11 132c6.66699 64.667 10 108.334 10 131.001c0 20 -7 35 -21 45c-12 -4.66699 -54.667 -10.667 -128 -18
c-12.667 -2.66699 -50.667 -8.66699 -114 -18l-62 -7c-6.66699 -0.666992 -23 -11.334 -49 -32.001c-6.66699 -6 -10 -19 -10 -39v-7h-44c-10 0 -30.833 13.833 -62.5 41.5s-47.5 45.5 -47.5 53.5c0 41.333 73.333 72 220 92c179.333 24.667 286.333 46.334 321 65.001
c20 12 42 143.667 66 395c12 124 36.667 283 74 477l16 77c2.66699 7.33301 26 21.666 70 42.999l17 -123c-3.33301 -16.667 -9.66602 -51.667 -18.999 -105l-42 -257c-4.66699 -21.333 -10 -62.333 -16 -123l-17 -357l404 4v-66z" />
    <glyph glyph-name="u" unicode="u" horiz-adv-x="1021" 
d="M1054 564c0 -28 -50.6689 -97.999 -152.002 -209.999c-89.333 -98.667 -155.666 -164 -198.999 -196l-141 -104c-30 -21.333 -76 -42.333 -138 -63c-63.333 -20.667 -113 -31 -149 -31c-68 0 -124.333 43.667 -169 131c-36.667 71.333 -55 145.666 -55 222.999
c0 64 13.333 129.667 40 197c10 0 20.333 4.66699 31 14c12.667 -7.33301 30 -21.333 52 -42c-6.66699 -52.667 -10 -98.667 -10 -138c0 -161.333 52.333 -242 157 -242c101.333 0 223 63 365 189c22.667 20 129.334 119.667 320.001 299h16c21.333 0 32 -9 32 -27z" />
    <glyph glyph-name="v" unicode="v" horiz-adv-x="1148" 
d="M1162 668c-50 -22.667 -110.668 -54.333 -182.001 -95c-6 -3.33301 -52 -48.666 -138 -135.999c-297.333 -301.333 -479.333 -452 -546 -452c-15.333 0 -44 35 -86 105c-38.667 63.333 -62.334 106.666 -71.001 129.999l-56 161c-20 55.333 -49.333 104.666 -88 147.999
v84c34.667 8 52 12.667 52 14c0 0.666992 -1 1 -3 1c14 0 64.5 -77 151.5 -231s139.5 -231 157.5 -231c22.667 0 97.334 60.333 224.001 181c142.667 136.667 223.334 211.334 242.001 224.001c87.333 61.333 174.333 119 261 173h66l16 -15v-61z" />
    <glyph glyph-name="w" unicode="w" horiz-adv-x="1639" 
d="M1612 468c-70.667 -58 -139.33 -123 -205.997 -195c-206.667 -223.333 -346 -335 -418 -335c-58 0 -122.667 52.333 -194 157l-154 228c-29.333 -4.66699 -82.333 -58 -159 -160c-72 -97.333 -138 -146 -198 -146l-28 15c-20.667 38 -59.667 121.667 -117 251
c-62.667 140 -94 219.667 -94 239c0 34 20 62 60 84c40 -48 79.333 -114.667 118 -200c58 -126 91.333 -196.667 100 -212h49c13.333 24.667 44.666 62.667 93.999 114c17.333 26.667 43 63.667 77 111c39.333 56 72.666 84 99.999 84c25.333 0 46.666 -14 63.999 -42
l136 -215c72 -112 125 -168 159 -168c25.333 0 120 72.667 284 218c164.667 145.333 255 218 271 218h56v-46z" />
    <glyph glyph-name="x" unicode="x" horiz-adv-x="1164" 
d="M1113 169c0 -51.333 -31.667 -77 -95 -77c-24 0 -110.667 53.667 -260 161s-228 161 -236 161c-101.333 0 -211.666 -97.667 -330.999 -293c-10.667 -16.667 -17 -37.334 -19 -62.001c-2 -32 -4.33301 -53 -7 -63c-8 -30.667 -31.667 -54 -71 -70
c-1.33301 14 -8 41.667 -20 83c-10 36 -15 63.667 -15 83c0 49.333 27.333 108.666 82 177.999c28 34.667 116.333 119 265 253c-32 38.667 -78 71.334 -138 98.001l-154 68c-11.333 30 -17 49.667 -17 59c0 42.667 19.667 64 59 64c3.33301 0 64.666 -32 183.999 -96
c118 -64.667 180.333 -97 187 -97c4.66699 0 76.334 30.333 215.001 91s221.667 91 249 91c30 0 70.667 -19 122 -57v-44c-4 -1.33301 -40 -5.66602 -108 -12.999c-12.667 -1.33301 -90 -21 -232 -59c-38 -10 -79 -45 -123 -105c67.333 -81.333 178.666 -171 333.999 -269
c80 -50.667 123 -79 129 -85z" />
    <glyph glyph-name="y" unicode="y" horiz-adv-x="911" 
d="M875 406c0 -7.33301 -4.33301 -26.333 -13 -57c-9.33301 -32 -14 -49.667 -14 -53v-7c0 -17.333 -1.33301 -41.333 -4 -72c-33.333 -78.667 -77 -197.334 -131 -356.001c-18 -19.333 -53.333 -85.333 -106 -198c1.33301 0.666992 2 1.33398 2 2.00098v-1
c0 -2 -19 -54.333 -57 -157c-20.667 -55.333 -49 -126.666 -85 -213.999c-4.66699 -22.667 -12 -61 -22 -115c-1.33301 -9.33301 -10 -34 -26 -74c-13.333 -32.667 -20 -57.334 -20 -74.001c0 -6 1.33301 -11.333 4 -16c-12.667 -21.333 -36.334 -49.333 -71.001 -84h-44
c-20 37.333 -30 64.666 -30 81.999c0 66 44 212 132 438c34.667 89.333 77.334 192.333 128.001 309c16.667 30 43.667 85.333 81 166c12.667 39.333 26 74 40 104c12.667 19.333 34.334 73.333 65.001 162c-2 2 -3 5.33301 -3 10c0 6.66699 1.66699 15.334 5 26.001
c1.33301 5.33301 2 9.66602 2 12.999c0 6.66699 -2.33301 10 -7 10c-6 0 -46 -15 -120 -45s-113.333 -45 -118 -45c-14 0 -47.833 -4.33301 -101.5 -13s-84.167 -13 -91.5 -13c-54 0 -103 43.667 -147 131c-38.667 76.667 -58 146.667 -58 210
c0 18.667 9.66699 46.334 29 83.001h58c49.333 -206.667 118.666 -310 207.999 -310c75.333 0 166 39 272 117l178 131c43.333 -15.333 65 -45.333 65 -90z" />
    <glyph glyph-name="z" unicode="z" horiz-adv-x="1322" 
d="M1315 125c-40.667 -17.333 -80.9961 -32.668 -120.996 -46.001c-32 -10.667 -93.667 -20.334 -185 -29.001l-187 -17c-15.333 -6.66699 -45.333 -17 -90 -31c-110.667 -28 -228.667 -42 -354 -42c-40.667 0 -93.334 7 -158.001 21c-76.667 16 -122.334 36 -137.001 60v84
l296 227c112.667 86.667 202 173 268 259c-10 29.333 -26 44 -48 44h-3l-19 -1c-8.66699 -0.666992 -67.334 -13.667 -176.001 -39s-170.334 -38 -185.001 -38c-10.667 0 -38 9.66699 -82 29c0 2.66699 -0.833008 11.167 -2.5 25.5s-2.5 22.833 -2.5 25.5
c0 14 2.33301 25.333 7 34l596 104c46 -12 69 -48.333 69 -109c0 -81.333 -69 -184.666 -207 -309.999c-10 -9.33301 -112 -98.666 -306 -267.999c11.333 -13.333 29.666 -20 54.999 -20h28h-1c0 1.33301 108 11.333 324 30c104.667 8.66699 237 20.667 397 36
c1.33301 0 15 4 41 12s42.333 12 49 12c46.667 0 91.334 -17.667 134.001 -53z" />
    <glyph glyph-name="braceleft" unicode="{" horiz-adv-x="863" 
d="M909 1796l-3.99414 -7l-12 -9l-274 9h-6c-45.333 0 -79.333 -15.333 -102 -46c-4.66699 -12 -21.334 -48 -50.001 -108c2.66699 -16 5.33398 -39.333 8.00098 -70c11.333 10 17 22.333 17 37v6l-23 -71c6.66699 -40 20 -103.333 40 -190c10 -22 22.333 -57.333 37 -106
c22 -114 33 -189.667 33 -227c0 -10 -4.33301 -39.5 -13 -88.5s-14 -75.167 -16 -78.5c-10 -18.667 -29.667 -40 -59 -64c-34 -26.667 -56 -46 -66 -58c35.333 -61.333 67 -105 95 -131l30 -23c10.667 -12 16 -30.333 16 -55c0 -88.667 -11.667 -159.334 -35 -212.001
c-6 -38.667 -19.333 -95 -40 -169l-70 -161c-25.333 -60 -38 -116.333 -38 -169c0 -84.667 28 -143 84 -175c11.333 -6.66699 44.666 -15.334 99.999 -26.001s93.333 -16 114 -16c2.66699 0 14.5 0.666992 35.5 2s33.5 2 37.5 2c2.66699 0 8.33398 -0.666992 17.001 -2
c10.667 -8.66699 25.667 -16.334 45 -23.001l2 -17c-4.66699 -10 -8.33398 -20.333 -11.001 -31l-51 -24c-31.333 -14.667 -64.666 -22 -99.999 -22c-44.667 0 -126.667 19.333 -246 58c-10.667 12.667 -22.334 22.667 -35.001 30c-52 32 -87.333 59 -106 81
c-27.333 31.333 -41 73 -41 125c0 40.667 8 98.334 24 173.001c11.333 52.667 41 128.334 89 227.001l5 19c24 62.667 52.333 161.667 85 297c-36.667 76 -87.334 117.667 -152.001 125c-15.333 0 -38.333 2.33301 -69 7l-32 -4c1.33301 -15.333 8.66602 -35.333 21.999 -60
l-45 63c-14.667 8 -28.334 13.333 -41.001 16c-8 13.333 -14.667 23 -20 29v12c0 14.667 22 29.667 66 45c88 30 158.833 74.333 212.5 133s80.5 122.334 80.5 191.001c0 13.333 -1 26.666 -3 39.999l-80 478c3.33301 19.333 8.66602 60.666 15.999 123.999
c3.33301 29.333 7.66602 51 12.999 65c8.66699 22.667 22 39 40 49c4.66699 2 38.667 11.833 102 29.5s99 27.167 107 28.5c50 8 91 12 123 12c8.66699 0 30.334 -3.66699 65.001 -11c35.333 -7.33301 54 -11.666 56 -12.999
c3.33301 -5.33301 6.66602 -15.666 9.99902 -30.999z" />
    <glyph glyph-name="bar" unicode="|" horiz-adv-x="514" 
d="M189 1870l2 -2.00195c8.66699 -11.333 22 -26 40 -44c26.667 -57.333 40 -114.666 40 -171.999v-5l-19 -1821c-1.33301 -57.333 -6.33301 -102.666 -15 -135.999l-5 -1c-11.333 3.33301 -20.333 5 -27 5h-3c-10 6.66699 -24 17.334 -42 32.001h-2c-10 74 -15 114 -15 120
l8 1352c2 60 5.66699 180.333 11 361c0 30.667 1 90 3 178c0.666992 31.333 8.66699 75.666 24 132.999z" />
    <glyph glyph-name="braceright" unicode="}" horiz-adv-x="823" 
d="M-30 1776l4.00488 -4.99512l13 -10l273 9h5c46 0 80 -15.333 102 -46c6 -12 23 -48.333 51 -109l-7 -70c-11.333 10.667 -17 23.334 -17 38.001l-1 7l24 -71c-6.66699 -40.667 -19.667 -104.334 -39 -191.001c-11.333 -22 -24 -57.333 -38 -106
c-22.667 -114 -34 -189.667 -34 -227c0 -10 4.33301 -39.667 13 -89c8.66699 -48.667 14.667 -75.334 18 -80.001c10 -18 29 -38.333 57 -61c35.333 -28.667 57.666 -48.334 66.999 -59.001c-36.667 -64 -68.667 -108.333 -96 -133l-30 -23c-10.667 -12.667 -16 -30 -16 -52
c0 -88.667 11.667 -160.334 35 -215.001c6.66699 -36.667 20.667 -92 42 -166l68 -161c26 -60 39 -116.333 39 -169c0 -84.667 -28 -143 -84 -175c-12 -7.33301 -45.333 -16 -100 -26c-56 -11.333 -94.333 -17 -115 -17c-3.33301 0 -15.333 0.833008 -36 2.5
s-32.667 2.5 -36 2.5s-9.33301 -0.666992 -18 -2c-11.333 -9.33301 -26 -18 -44 -26l-2 -15c4 -9.33301 7.66699 -19.333 11 -30c11.333 -6.66699 27.666 -15 48.999 -25c36 -14 69.333 -21 100 -21c45.333 0 127.666 19 246.999 57c10 11.333 31.667 27.666 65 48.999
c37.333 25.333 63 45.666 77 60.999c26.667 32 40 74 40 126c0 42.667 -7.66699 100.334 -23 173.001c-11.333 52.667 -41 128 -89 226c-17.333 61.333 -36.333 121.333 -57 180c-15.333 42 -26.333 88 -33 138c36.667 75.333 87 116.333 151 123c4 0 27 2.66699 69 8l33 -4
l-1 -11c0 -7.33301 1.33301 -11 4 -11c4 0 8.66699 5.33301 14 16l4 4l2 4c15.333 8 29 13.333 41 16c8 13.333 14.333 23.333 19 30v12c0 14 -21.667 28.667 -65 44c-88.667 29.333 -159.334 73.666 -212.001 132.999c-54 58.667 -81 122.667 -81 192
c0 13.333 1 26.333 3 39l80 479c0 41.333 -8.33301 100 -25 176c-6 28 -21 48.333 -45 61c-4 2.66699 -37.667 13 -101 31s-99.333 27.667 -108 29c-45.333 7.33301 -86.333 11 -123 11c-8.66699 0 -30.334 -3.5 -65.001 -10.5s-53 -11.167 -55 -12.5
c-3.33301 -7.33301 -7 -18 -11 -32z" />
    <glyph glyph-name="asciitilde" unicode="~" horiz-adv-x="1821" 
d="M1785 1675c-56 -38.667 -118.335 -84.666 -187.002 -137.999c-97.333 -76.667 -161 -123.334 -191 -140.001c-72 -40.667 -146.667 -61 -224 -61c-26 0 -85 20 -177 60c-93.333 40.667 -144.666 69.334 -153.999 86.001c-57.333 94.667 -97.666 151 -120.999 169
c-39.333 30.667 -107.333 46 -204 46c-74 0 -144 -23.667 -210 -71c-38 -26.667 -84.333 -69.667 -139 -129c-44 -47.333 -75 -71 -93 -71c-39.333 0 -59 17.667 -59 53c0 67.333 62.333 149.333 187 246c119.333 92 215.666 138 288.999 138
c108.667 0 199.667 -29.333 273 -88l213 -205c18 -18 51.333 -35 100 -51c57.333 -18 100 -27 128 -27c54.667 0 151.334 44.667 290.001 134l209 135h-1c0 -0.666992 23.667 -5.33398 71 -14.001v-72z" />
    <glyph glyph-name="nonbreakingspace" unicode="&#xa0;" horiz-adv-x="870" 
 />
    <glyph glyph-name="exclamdown" unicode="&#xa1;" horiz-adv-x="553" 
d="M455 1344c0 -8 -14.667 -72.667 -44 -194c-28.667 -121.333 -87.334 -436 -176.001 -944c-11.333 -66.667 -35.333 -222 -72 -466c-10.667 -1.33301 -21 -6.66602 -31 -15.999c-36 13.333 -54 34.333 -54 63c0 4 2.33301 16.333 7 37c4 21.333 6 34 6 38l-1 8
c-20 34 -30 67 -30 99c0 116.667 70 506.667 210 1170c30.667 141.333 68.334 237.333 113.001 288c48 -22.667 72 -50.334 72 -83.001zM549 1770c0 -26.667 -18.667 -58.333 -56 -95h-39c-14.667 0 -32.5 12.833 -53.5 38.5s-31.5 47.167 -31.5 64.5
c0 18.667 7.66699 38.167 23 58.5s31 30.5 47 30.5c26.667 0 51.667 -10 75 -30s35 -42.333 35 -67z" />
    <glyph glyph-name="cent" unicode="&#xa2;" horiz-adv-x="982" 
d="M940 481c-205.333 -52.667 -308 -79.6689 -308 -81.002v0c-3.33301 0 -10.5 2.33301 -21.5 7s-18.5 7 -22.5 7c-42 0 -69 -11.667 -81 -35c-50 -100 -78.333 -231.333 -85 -394c-1.33301 -24 -14.333 -48.333 -39 -73c-39.333 18.667 -59 68 -59 148
c0 24 7.66699 72.667 23 146c17.333 84 27.333 136 30 156c-56 33.333 -132 90 -228 170c-7.33301 8 -19 43 -35 105l-20 41c-10 20.667 -15 35.334 -15 44.001c0 32 35.667 85.667 107 161c67.333 70 119 113 155 129c69.333 12.667 146.666 28.667 231.999 48
c32 11.333 77.333 99.333 136 264c54.667 156 108.334 234 161.001 234c39.333 0 59 -21.667 59 -65c0 -8.66699 -8.66699 -23.334 -26 -44.001c-20 -21.333 -31.667 -35.666 -35 -42.999c-42 -77.333 -67.667 -154.333 -77 -231c-30.667 -30 -46 -66.667 -46 -110
c0 -36 20.333 -62.333 61 -79c49.333 -21.333 77 -33.666 83 -36.999v-84c-43.333 0 -108 -2 -194 -6c-35.333 -40.667 -73 -134.667 -113 -282c45.333 -23.333 94.333 -35 147 -35c52 0 103.667 12.667 155 38l56 -55v-44zM542 859.998l-85 16.001
c-71.333 -45.333 -113.333 -73 -126 -83c-56 -42.667 -84 -79.334 -84 -110.001v1c1.33301 0 7 -20.333 17 -61c4 -2.66699 29.333 -18.667 76 -48c37.333 -22 62 -33 74 -33c9.33301 0 52 106 128 318z" />
    <glyph glyph-name="sterling" unicode="&#xa3;" horiz-adv-x="1798" 
d="M1743 136c0 -52 -62.334 -95.998 -187.001 -131.998c-98.667 -28.667 -184 -43 -256 -43c-72.667 0 -134.667 19.667 -186 59c-27.333 20.667 -72.666 69 -135.999 145c-50.667 60 -97.334 107.667 -140.001 143c-45.333 -58.667 -101.666 -125.667 -168.999 -201
c-112.667 -88.667 -206.334 -133 -281.001 -133c-89.333 0 -168.666 30.333 -237.999 91c-68.667 60.667 -103 131 -103 211c0 3.33301 -0.666992 13.666 -2 30.999c-0.666992 16.667 -1 26.667 -1 30c0 36 19.667 81.333 59 136c16 22.667 63 54.334 141 95.001l103 57
c41.333 21.333 79.333 32 114 32h35h26c10.667 0.666992 17.334 1 20.001 1h83c17.333 0 45.666 -7 84.999 -21c19.333 -6.66699 39 -14 59 -22l76 278c-10 13.333 -23.667 20 -41 20v0l-146 1l-147 1c-7.33301 33.333 -11.666 50 -12.999 50v-1
c0 24 14.167 47.167 42.5 69.5s56.833 33.5 85.5 33.5c7.33301 0 33.833 -4.33301 79.5 -13s72.5 -13 80.5 -13c42.667 0 69 19.667 79 59c6 51.333 13 102.333 21 153c6 39.333 24.667 121.333 56 246c2.66699 22 10 52.667 22 92c16 27.333 48 52 96 74
c48 20.667 93.667 31 137 31c23.333 0 84 -23 182 -69c18 -8 41 -42.333 69 -103c25.333 -56.667 38 -97.667 38 -123c0 -22 -6.33301 -42.667 -19 -62c-13.333 -18.667 -28.333 -28 -45 -28c-33.333 0 -53.333 24.667 -60 74c-8.66699 66 -15.334 102 -20.001 108
c-10.667 15.333 -41 30 -91 44c-43.333 12.667 -78.333 19 -105 19c-60.667 0 -105.334 -68.667 -134.001 -206c-18.667 -88.667 -28 -184 -28 -286c30 -10 74 -17.667 132 -23c56.667 -5.33301 100.334 -11.333 131.001 -18c63.333 -14.667 147 -48.334 251 -101.001
c-3.33301 -12.667 -7.66602 -32.334 -12.999 -59.001c-22.667 -4.66699 -47.334 -7 -74.001 -7c-18.667 0 -81 10 -187 30s-168 30 -186 30c-14.667 0 -29.334 -0.666992 -44.001 -2c-10 -16 -26.667 -78.5 -50 -187.5s-35 -177.5 -35 -205.5c0 -24.667 51 -104 153 -238
c44.667 -58 87.667 -99.667 129 -125c46 -28 103.667 -42 173 -42c128.667 0 245.334 29.333 350.001 88c4.66699 -10 9.66699 -20 15 -30c9.33301 -19.333 14 -32 14 -38zM715.999 430.002c0 23.333 -19.666 46.002 -58.999 68.002c-34.667 18.667 -64.334 28 -89.001 28
c-120 0 -224.333 -37.667 -313 -113c-61.333 -52 -92 -91 -92 -117c0 -42.667 20 -81.334 60 -116.001s84 -52 132 -52c30.667 0 50.667 1.33301 60 4c42.667 9.33301 102.667 50.333 180 123c80.667 75.333 121 133.666 121 174.999z" />
    <glyph glyph-name="currency" unicode="&#xa4;" horiz-adv-x="1514" 
d="M1644 1405c-43.333 -29.333 -81.6641 -44.002 -114.997 -44.002c-5.33301 0 -22.333 2 -51 6c-30 3.33301 -47.667 5 -53 5c-148 0 -305.5 -39.833 -472.5 -119.5s-290.833 -174.5 -371.5 -284.5c64.667 -10 135 -15 211 -15c22 0 72.333 1 151 3l152 2
c79.333 0 172.333 -1.66699 279 -5c13.333 -7.33301 31.666 -19.666 54.999 -36.999v-65c-30.667 -2.66699 -65.667 -4 -105 -4c-18 0 -56.667 1 -116 3l-115 2c-58.667 0 -189.334 -8 -392.001 -24l-152 -12h-38c-29.333 -2.66699 -55 -28.667 -77 -78
c22.667 -13.333 47.667 -20 75 -20c6.66699 0 26.334 2.33301 59.001 7c33.333 4.66699 52.666 7 57.999 7c8 0 34.333 -4.5 79 -13.5s70.667 -13.5 78 -13.5c1.33301 0 9 2 23 6c14 4.66699 21.333 7 22 7c11.333 0 25 -7.33301 41 -22c184.667 -2 378 -16.667 580 -44
l13 -60c-56 -10 -134.667 -15 -236 -15l-25 -13c-17.333 -8.66699 -30 -13 -38 -13c-5.33301 0 -16.666 4.33301 -33.999 13c-18.667 8.66699 -29.334 13 -32.001 13l-481 13v0c0 -0.666992 -70 -6.33398 -210 -17.001c-22.667 -18 -34 -46.667 -34 -86
c0 -74 17.333 -130.333 52 -169c110.667 -122 292.667 -187.333 546 -196c10 0 45.333 -3.66699 106 -11c58 -6.66699 96 -10 114 -10h98l97 -2v-86c-161.333 -27.333 -248.333 -41 -261 -41c-208.667 0 -390 27 -544 81c-218 76.667 -333.333 197.334 -346 362.001
c-0.666992 2.66699 -3.33398 53.334 -8.00098 152.001c-18 9.33301 -76.667 26 -176 50v70c19.333 30.667 45.333 46 78 46c8 0 30 -4.66699 66 -14s57 -14 63 -14c28.667 0 43 24.333 43 73v16c-58 12.667 -144 34 -258 64v97c36.667 19.333 62.667 29 78 29
c10 0 45.667 -4.33301 107 -13c62 -8.66699 99 -13 111 -13c14.667 0 28.334 0.666992 41.001 2l125 188c51.333 74.667 102.666 127 153.999 157c180 104 382.333 162 607 174c4 0 21.667 3.83301 53 11.5s50 11.5 56 11.5c108.667 0 188.334 -15.333 239.001 -46
c5.33301 -12 15.666 -29 30.999 -51z" />
    <glyph glyph-name="currency" unicode="&#x20ac;" horiz-adv-x="1514" 
d="M1644 1405c-43.333 -29.333 -81.6641 -44.002 -114.997 -44.002c-5.33301 0 -22.333 2 -51 6c-30 3.33301 -47.667 5 -53 5c-148 0 -305.5 -39.833 -472.5 -119.5s-290.833 -174.5 -371.5 -284.5c64.667 -10 135 -15 211 -15c22 0 72.333 1 151 3l152 2
c79.333 0 172.333 -1.66699 279 -5c13.333 -7.33301 31.666 -19.666 54.999 -36.999v-65c-30.667 -2.66699 -65.667 -4 -105 -4c-18 0 -56.667 1 -116 3l-115 2c-58.667 0 -189.334 -8 -392.001 -24l-152 -12h-38c-29.333 -2.66699 -55 -28.667 -77 -78
c22.667 -13.333 47.667 -20 75 -20c6.66699 0 26.334 2.33301 59.001 7c33.333 4.66699 52.666 7 57.999 7c8 0 34.333 -4.5 79 -13.5s70.667 -13.5 78 -13.5c1.33301 0 9 2 23 6c14 4.66699 21.333 7 22 7c11.333 0 25 -7.33301 41 -22c184.667 -2 378 -16.667 580 -44
l13 -60c-56 -10 -134.667 -15 -236 -15l-25 -13c-17.333 -8.66699 -30 -13 -38 -13c-5.33301 0 -16.666 4.33301 -33.999 13c-18.667 8.66699 -29.334 13 -32.001 13l-481 13v0c0 -0.666992 -70 -6.33398 -210 -17.001c-22.667 -18 -34 -46.667 -34 -86
c0 -74 17.333 -130.333 52 -169c110.667 -122 292.667 -187.333 546 -196c10 0 45.333 -3.66699 106 -11c58 -6.66699 96 -10 114 -10h98l97 -2v-86c-161.333 -27.333 -248.333 -41 -261 -41c-208.667 0 -390 27 -544 81c-218 76.667 -333.333 197.334 -346 362.001
c-0.666992 2.66699 -3.33398 53.334 -8.00098 152.001c-18 9.33301 -76.667 26 -176 50v70c19.333 30.667 45.333 46 78 46c8 0 30 -4.66699 66 -14s57 -14 63 -14c28.667 0 43 24.333 43 73v16c-58 12.667 -144 34 -258 64v97c36.667 19.333 62.667 29 78 29
c10 0 45.667 -4.33301 107 -13c62 -8.66699 99 -13 111 -13c14.667 0 28.334 0.666992 41.001 2l125 188c51.333 74.667 102.666 127 153.999 157c180 104 382.333 162 607 174c4 0 21.667 3.83301 53 11.5s50 11.5 56 11.5c108.667 0 188.334 -15.333 239.001 -46
c5.33301 -12 15.666 -29 30.999 -51z" />
    <glyph glyph-name="yen" unicode="&#xa5;" horiz-adv-x="1385" 
d="M1427 1488l-387.001 -442.997c-204 -232.667 -306 -376.667 -306 -432c0 -30.667 3.5 -50.167 10.5 -58.5s24.5 -12.5 52.5 -12.5c19.333 0 63 0.666992 131 2l130 2c90.667 0 162.334 -2 215.001 -6l-5 -34c-38.667 -36 -81.667 -54 -129 -54
c-4.66699 0 -12.334 2.16699 -23.001 6.5s-18.334 6.5 -23.001 6.5c-8.66699 0 -49 -6 -121 -18h1c0 1.33301 -44.667 3 -134 5h-6c-81.333 0 -127 -44 -137 -132c10 -14 24.667 -21 44 -21c4.66699 0 16.167 3.33301 34.5 10s28.5 10 30.5 10c68 8.66699 166 13 294 13h88
l84 -1v-83c-18 4 -36.333 7.66699 -55 11c-8 0 -24.667 -5.66699 -50 -17l-39 -18c-60 0 -137 -6.66699 -231 -20c-61.333 -9.33301 -103.333 -18 -126 -26c-44 -14 -72.333 -37 -85 -69c-13.333 -66.667 -20.666 -101.334 -21.999 -104.001
c-13.333 -36.667 -39 -63.334 -77 -80.001c-29.333 23.333 -44 52.666 -44 87.999c0 4 1 16 3 36c2.66699 19.333 4 30.666 4 33.999c0 31.333 -28 47 -84 47c-12 0 -52 -6.33301 -120 -19c-68.667 -12 -109 -18 -121 -18h-131c-8 36 -12.667 54 -14 54
c-0.666992 0 -1 -1.33301 -1 -4c0 50.667 69 83.334 207 98.001c127.333 12.667 195.333 20 204 22c32 4.66699 51.333 14 58 28l20 76c-10.667 14 -27.667 21 -51 21c-74 0 -140 -5.66699 -198 -17c-8 -1.33301 -40 -11 -96 -29c-40 -12.667 -71 -19 -93 -19
c-22.667 0 -48 13.667 -76 41v62c32 18.667 87.333 38.667 166 60c78 20 136 30 174 30c4 0 12.667 -1.66699 26 -5c12 -4.66699 20.667 -7 26 -7c15.333 0 41.333 7.16699 78 21.5s60 26.5 70 36.5l-451 783c10.667 47.333 34.334 71 71.001 71
c32 0 104.333 -90.667 217 -272c120.667 -196 202.334 -306.667 245.001 -332c55.333 55.333 146.666 157.333 273.999 306l199 242c104 123.333 174 185 210 185c10 0 33 -19 69 -57z" />
    <glyph glyph-name="section" unicode="&#xa7;" horiz-adv-x="1185" 
d="M1068 321c0 -51.333 -13.3291 -97.6631 -39.9961 -138.996c-8 -12.667 -19.667 -24.334 -35 -35.001c-30 -14.667 -90.333 -46 -181 -94c-79.333 -42.667 -122.333 -64 -129 -64h-236c-37.333 0 -98 23 -182 69l-147 80v86l10 5c6.66699 4 13 6 19 6
c8 0 33 -15.333 75 -46c49.333 -34 82.666 -54.667 99.999 -62c62 -24.667 120.667 -37 176 -37c13.333 0 69 6.66699 167 20c30.667 4.66699 78 26.667 142 66l106 53c30.667 19.333 46 51.333 46 96c0 37.333 -12.333 78.333 -37 123
c-29.333 55.333 -67.333 91.666 -114 108.999c-14.667 2 -36 4 -64 6l-35 23h-6c-98.667 0 -251 41 -457 123c-28 10.667 -67.333 44.334 -118 101.001c-44.667 50.667 -67 100.667 -67 150c0 28.667 16.667 76.667 50 144l51 101c0 -1.33301 -0.333008 -2 -1 -2
c-2 0 -12.667 24.333 -32 73c-21.333 56.667 -32 100.667 -32 132c0 156.667 43.333 266 130 328c26.667 19.333 73.5 45.833 140.5 79.5s105.5 50.5 115.5 50.5c36 0 82 -7.33301 138 -22c32.667 -8 78 -29.333 136 -64c26 -14.667 39 -38.667 39 -72
c0 -12 -5.66699 -24.833 -17 -38.5s-22 -20.5 -32 -20.5c2 0 3 0.333008 3 1c0 6 -22.667 23.667 -68 53c-55.333 36.667 -103.333 55 -144 55c-32.667 0 -55.334 -3.66699 -68.001 -11l-93 -51c-18.667 -5.33301 -45.667 -19 -81 -41c-65.333 -54 -98 -134.333 -98 -241
c0 -21.333 10.667 -53 32 -95c32 -62 88.333 -100 169 -114c36 -4.66699 100.667 -15 194 -31c59.333 -11.333 123.666 -39 192.999 -83c29.333 -18.667 66 -64 110 -136c42 -66.667 63 -110.334 63 -131.001c0 -3.33301 -6.16699 -33.5 -18.5 -90.5
s-18.5 -87.167 -18.5 -90.5c0 -4.66699 18 -29.334 54 -74.001c37.333 -46.667 60.666 -80.334 69.999 -101.001c14.667 -35.333 22 -84.333 22 -147zM841.004 796.003c0 34.667 -17.001 77.001 -51.001 127.001s-68.667 82 -104 96c-36 14.667 -79.333 30 -130 46l-244 43
c-14 9.33301 -28 14 -42 14c-23.333 0 -48 -25 -74 -75c-22.667 -43.333 -34 -76.666 -34 -99.999c0 -20.667 25.667 -52.334 77 -95.001c42.667 -36 72 -56.667 88 -62c28.667 -10.667 83.334 -28.667 164.001 -54c112.667 -32 200.667 -48 264 -48
c17.333 0 36 12.667 56 38s30 48.666 30 69.999z" />
    <glyph glyph-name="dieresis" unicode="&#xa8;" horiz-adv-x="1012" 
d="M867 1580c-11.333 -32.667 -31.665 -61 -60.998 -85c-35.333 -29.333 -69.333 -44 -102 -44h-6c-35.333 2 -65 15.667 -89 41l-27 32c-9.33301 12 -14 25.667 -14 41v9c1.33301 16 10.666 29.333 27.999 40l49 28c21.333 16 51.666 35.667 90.999 59l106 -44
c2 -12 6.66699 -29 14 -51c1.33301 -5.33301 4.33301 -14 9 -26h2zM337.001 1482c-11.333 -11.333 -31.667 -24.6641 -61 -39.9971h-8c-7.33301 0 -15 1.33301 -23 4c-14.667 4 -25.334 6.33301 -32.001 7h-10c-10 0 -19.667 -0.333008 -29 -1
c-13.333 0 -24.666 6.66699 -33.999 20c-5.33301 7.33301 -8 15.666 -8 24.999c0 2.66699 0.333008 5.66699 1 9l-1 59l36 64l74 48l107 5c28.667 -26.667 43 -57.334 43 -92.001c0 -16.667 -3.5 -33.334 -10.5 -50.001s-21.833 -36 -44.5 -58z" />
    <glyph glyph-name="copyright" unicode="&#xa9;" horiz-adv-x="1466" 
d="M1408 770c0 -177.333 -77.333 -322.668 -232 -436.001c-141.333 -104 -304 -156 -488 -156c-91.333 0 -191.333 21.667 -300 65c-118.667 48 -201.334 106 -248.001 174c-14 20 -35 62.667 -63 128c-29.333 68.667 -44 111.334 -44 128.001c0 6.66699 3 17.667 9 33
c6.66699 16 11 26.667 13 32c0 14.667 1.33301 42.334 4 83.001c7.33301 98 34.333 187.333 81 268c100.667 176.667 242.334 282.667 425.001 318c62 12 145.667 18 251 18v0c0 -0.666992 123.667 -32.334 371 -95.001c147.333 -118 221 -304.667 221 -560zM1280 750.998
c0 115.333 -10.002 201.667 -30.002 259c-12 33.333 -41 73.666 -87 120.999c-49.333 50.667 -89.666 76 -120.999 76c-3.33301 0 -15 -2 -35 -6c-19.333 -4.66699 -31 -7 -35 -7c-12 0 -60.833 10.667 -146.5 32s-133.167 32 -142.5 32c-8 0 -23 -3.66699 -45 -11
s-33.333 -11 -34 -11c-66 -11.333 -113.667 -24.666 -143 -39.999c-76 -38.667 -138.667 -101.667 -188 -189c-48.667 -88 -73 -179.667 -73 -275c0 -53.333 13 -111.333 39 -174c29.333 -71.333 64.666 -115 105.999 -131c160.667 -62 273.334 -93 338.001 -93
c37.333 0 107.333 11.333 210 34c102.667 23.333 170.334 43 203.001 59c37.333 18.667 77.333 66 120 142s64 136.667 64 182zM1049 667.999c0 -51.333 -39 -102 -117 -152c-70.667 -44 -132.334 -66 -185.001 -66c-36 0 -109.333 13.667 -220 41l-76 100
c-39.333 51.333 -59 83.333 -59 96c0 114.667 19.333 193 58 235c93.333 104 192.333 156 297 156c52.667 0 96.834 -12 132.501 -36s53.5 -54.667 53.5 -92c0 -17.333 -10.333 -34.666 -31 -51.999c-7.33301 3.33301 -29 11 -65 23c-30.667 10.667 -52 16 -64 16
c-36 0 -84.667 -21.833 -146 -65.5s-92 -79.834 -92 -108.501c0 -106 74.667 -159 224 -159c36 0 78.333 17.667 127 53c58 42 97 67 117 75c30.667 -10 46 -31.333 46 -64z" />
    <glyph glyph-name="ordfeminine" unicode="&#xaa;" horiz-adv-x="895" 
d="M874 1235c-31.333 -7.33301 -47.6689 -12 -49.002 -14c0 -0.666992 1.33301 -1 4 -1c-18.667 13.333 -78.334 61 -179.001 143c-17.333 68 -47.333 102 -90 102c-10.667 0 -75 -17.333 -193 -52s-182.333 -52 -193 -52c-18 0 -42.833 14.333 -74.5 43
s-47.5 50.667 -47.5 66c0 82.667 116.667 210 350 382c52.667 15.333 94.334 23 125.001 23c38 0 83.333 -17 136 -51c56 -38 84 -74.333 84 -109c0 -23.333 -15 -47 -45 -71l-72 59c-26 20.667 -53.667 31 -83 31c-105.333 0 -197.666 -58.333 -276.999 -175
c0 -1.33301 -0.333008 -4.5 -1 -9.5s-1 -7.83301 -1 -8.5c0 -8.66699 7.33301 -13 22 -13c6.66699 0 58.334 19.333 155.001 58c95.333 38.667 146.333 58 153 58c39.333 0 92.333 -50.667 159 -152c50.667 -78.667 89.667 -150 117 -214v-43z" />
    <glyph glyph-name="guillemotleft" unicode="&#xab;" horiz-adv-x="1203" 
d="M1121 60l-121.999 -41.002l-47.5 58.5c-21.667 27 -41.167 40.5 -58.5 40.5c-8.66699 0 -17.334 -2.66699 -26.001 -8l1 8c0 12.667 -15.333 35.334 -46 68.001l-64 68c-14 14.667 -70.667 65.334 -170 152.001c-90 77.333 -135 128.666 -135 153.999
c0 32.667 22 67.667 66 105l104 85c68 72.667 176.667 176 326 310c46.667 -35.333 70 -63 70 -83c0 -10.667 -62 -77 -186 -199c-124 -123.333 -186 -191.666 -186 -204.999c0 -22.667 49.667 -76 149 -160l185 -154c26 -21.333 72.667 -68 140 -140v-59zM660.001 976.998
c0 -26.667 -68.502 -107.499 -205.502 -242.499s-205.5 -206.167 -205.5 -213.5c0 -18 62 -97.333 186 -238c124 -140 186 -216.667 186 -230v-55c-16 -20 -35.333 -30 -58 -30c-20.667 0 -62.667 31.333 -126 94c-49.333 48.667 -87.666 91 -114.999 127
c-64 84.667 -147 171 -249 259c-12 23.333 -18 45.333 -18 66c0 45.333 38.333 98 115 158l170 133c52.667 60 135.334 145 248.001 255c48 -24.667 72 -52.334 72 -83.001z" />
    <glyph glyph-name="logicalnot" unicode="&#xac;" horiz-adv-x="2147" 
d="M2136 535c0 -10.667 -12.999 -46.6699 -38.999 -108.003l-49 -120l-55 -193c-30.667 -76 -77 -115 -139 -117c0 0.666992 -2.5 8.83398 -7.5 24.501s-7.5 26.167 -7.5 31.5c0 38.667 22.667 129.334 68 272.001l22 75v74c-11.333 14.667 -21.666 22 -30.999 22
c-5.33301 0 -19.833 -1.83301 -43.5 -5.5s-37.5 -5.5 -41.5 -5.5c-4.66699 0 -21.334 4 -50.001 12s-46 12 -52 12c-15.333 0 -70 -5.33301 -164 -16c-66 -7.33301 -193.333 -19.333 -382 -36l-1060 -77h-6c-18 0 -36 6.33301 -54 19c-20 13.333 -30 28.333 -30 45
c0 20 10.667 40 32 60s42.666 30.333 63.999 31l1908 90h5c26.667 0 51.667 -8.66699 75 -26c24.667 -19.333 37 -40.666 37 -63.999z" />
    <glyph glyph-name="registered" unicode="&#xae;" horiz-adv-x="1567" 
d="M1504 783c0 -97.333 -14.667 -194.666 -44 -291.999c-33.333 -112.667 -76.333 -199 -129 -259c-34.667 -39.333 -93.834 -75.333 -177.501 -108s-157.5 -49 -221.5 -49c-17.333 0 -77 -4.16699 -179 -12.5s-162 -12.5 -180 -12.5c-10.667 0 -26 4.66699 -46 14
c-23.333 11.333 -38.666 17.666 -45.999 18.999c-30 8 -77 24.333 -141 49c-82.667 45.333 -151.167 113 -205.5 203s-81.5 181.333 -81.5 274c0 5.33301 2.66699 24.333 8 57s8 52 8 58c0 5.33301 -1 22.5 -3 51.5s-3 46.167 -3 51.5c0 43.333 20 108 60 194
c35.333 76.667 69 136 101 178c70 94 155.667 163 257 207c22 10 90.667 21.333 206 34c18.667 2 52.334 8.66699 101.001 20c44.667 11.333 77.667 17 99 17c120 0 230.167 -40 330.5 -120s178.166 -189.333 233.499 -328c35.333 -88.667 53 -170.667 53 -246zM1363 744
c0 70.667 -17.668 154.335 -53.001 251.002c-38.667 104.667 -81.667 177 -129 217c-95.333 81.333 -182.666 122 -261.999 122c-14 0 -32 -8.66699 -54 -26c-26.667 -21.333 -43.667 -33 -51 -35c-81.333 -26.667 -153.333 -40 -216 -40
c-3.33301 0 -11.666 6.33301 -24.999 19s-22 19 -26 19c-24.667 0 -66.334 -27 -125.001 -81c-48 -44 -84 -82.333 -108 -115c-37.333 -48.667 -67.333 -125.334 -90 -230.001c-20 -89.333 -30 -172.333 -30 -249c0 -26.667 17.333 -73.667 52 -141
c30.667 -62 56.334 -105.333 77.001 -130c25.333 -29.333 78 -54.333 158 -75c5.33301 -1.33301 31 -10 77 -26c40 -13.333 64 -20 72 -20c13.333 0 54 5.33301 122 16c100.667 16.667 197 34.667 289 54c-22.667 11.333 -100.334 46.333 -233.001 105
c-96 42 -171 84.333 -225 127v-85c0 -59.333 -23 -89 -69 -89c-19.333 0 -40 7.66699 -62 23c-2.66699 29.333 -4 157.333 -4 384c0 63.333 -1 101.333 -3 114s-10 29.667 -24 51c-14.667 20 -22 35 -22 45c0 46.667 60.667 94 182 142c106 42.667 188.667 64 248 64
c63.333 0 121 -26 173 -78s78 -109.667 78 -173c0 -58.667 -46.667 -137.334 -140 -236.001c-37.333 -30.667 -80.333 -72.667 -129 -126c128 -51.333 258.667 -117 392 -197c106.667 81.333 160 214.333 160 399zM950.999 930.001c0 20 -15.6689 40.999 -47.002 62.999
s-60.666 33 -87.999 33c-26.667 0 -72.667 -13 -138 -39s-106.666 -48 -123.999 -66c0 -75.333 9.66699 -203 29 -383c63.333 82 116.333 132 159 150c4.66699 0.666992 17.667 3.33398 39 8.00098c113.333 114 170 192 170 234z" />
    <glyph glyph-name="macron" unicode="&#xaf;" horiz-adv-x="1068" 
d="M1030 1668l-56.999 -26.001c-26 -11.333 -45 -17 -57 -17c-12.667 0 -41.667 3.66699 -87 11l-243 39c-58 8.66699 -93.667 13 -107 13c-14 0 -67.333 -8.33301 -160 -25c-94 -17.333 -147.667 -26 -161 -26c-27.333 0 -51.5 9.83301 -72.5 29.5s-31.5 42.167 -31.5 67.5
c0 12 9.66699 26.667 29 44c20.667 16.667 39 26.667 55 30c42 3.33301 103.667 9.33301 185 18l188 18c19.333 0 85.666 -3.83301 198.999 -11.5s179.666 -11.5 198.999 -11.5c32.667 0 58.334 -19.667 77.001 -59c26 -57.333 40.667 -88.666 44 -93.999z" />
    <glyph glyph-name="degree" unicode="&#xb0;" horiz-adv-x="807" 
d="M769 1480c-110 -107.333 -219.001 -161.001 -327.001 -161.001c-72 0 -150 24.667 -234 74c-4 2 -8.66699 3 -14 3h-16c-23.333 0 -38.666 -4.33301 -45.999 -13c-46.667 57.333 -70 96.333 -70 117c0 46.667 26.667 110.667 80 192s101.333 131.333 144 150
c48.667 20 113.667 30 195 30c60 0 120.667 -14.667 182 -44c20 -10 41.667 -37 65 -81c22.667 -43.333 34 -78.333 34 -105c0 -6 -2.5 -24.167 -7.5 -54.5s-7.5 -48.166 -7.5 -53.499c0 -20.667 7.33301 -38.667 22 -54zM627.999 1596c0 33.333 -15.5 62.168 -46.5 86.501
s-66.833 36.5 -107.5 36.5c-23.333 0 -61.333 -21 -114 -63s-79 -73 -79 -93c0 -31.333 24.333 -57.333 73 -78c37.333 -15.333 75.333 -23 114 -23c30.667 0 65 15.333 103 46c38 31.333 57 60.666 57 87.999z" />
    <glyph glyph-name="plusminus" unicode="&#xb1;" 
d="M955 670c-20.667 -38.667 -44.3301 -58.002 -70.9971 -58.002c-6 0 -27.333 2.16699 -64 6.5s-58.334 6.5 -65.001 6.5c-68.667 0 -109.667 -23.333 -123 -70c-3.33301 -38.667 -8.33301 -85.667 -15 -141c-6.66699 -56.667 -38.334 -93.334 -95.001 -110.001
c-13.333 20.667 -20 51.334 -20 92.001c0 6 1 26 3 60c1.33301 33.333 2 53.333 2 60c0 37.333 -6 61.333 -18 72c-20.667 17.333 -75.334 26 -164.001 26c-64 0 -111 13.667 -141 41c10 26 28.667 57 56 93c62.667 1.33301 156.334 8 281.001 20
c29.333 70.667 47.333 112.334 54 125.001c30 57.333 57.333 87.333 82 90c10 -42.667 15 -96 15 -160c0 -15.333 -0.333008 -31.333 -1 -48c14.667 -7.33301 66 -20.666 154 -39.999c69.333 -16 112.666 -37.667 129.999 -65zM993.004 194.998
c0 -32 -14.334 -59 -43.001 -81l-154 -20c-75.333 -9.33301 -208.333 -27.333 -399 -54c-42 -5.33301 -96 -8 -162 -8c-63.333 0 -105.333 2.33301 -126 7c-52.667 10.667 -79 37 -79 79c0 2.66699 18.333 25.667 55 69h347c6.66699 0 30.334 4.66699 71.001 14
c96 22.667 163 34 201 34c7.33301 0 33 -0.666992 77 -2s70 -2 78 -2c47.333 0 86.333 2.66699 117 8c11.333 -11.333 17 -26 17 -44z" />
    <glyph glyph-name="acute" unicode="&#xb4;" horiz-adv-x="870" 
d="M847 1801c0 -3.33301 -38.334 -26.999 -115.001 -70.999c-26.667 -15.333 -86 -47.333 -178 -96l-190 -102l-48 -37c-110.667 -83.333 -186.667 -125 -228 -125c-38.667 0 -58 13.333 -58 40c0 30.667 18.667 55.5 56 74.5l169 82.5c38 29.333 97.667 69.666 179 120.999
l126 60l74 50l77 42c10.667 1.33301 36.334 10 77.001 26c39.333 -24 59 -45.667 59 -65z" />
    <glyph glyph-name="mu" unicode="&#xb5;" horiz-adv-x="2147" 
d="M2249 1352c0 -77.333 -17.9971 -149.004 -53.9971 -215.004c-20.667 -38 -65 -98 -133 -180l-102 -114c-10.667 -10.667 -55.334 -37.667 -134.001 -81c-69.333 -37.333 -117.666 -62 -144.999 -74c-87.333 -37.333 -163.333 -56 -228 -56
c-17.333 0 -28.333 4.33301 -33 13c-21.333 -19.333 -32 -44.666 -32 -75.999c0 -6 2 -13.333 6 -22c4 -10 6 -16 6 -18h185c5.33301 0 20.666 4.33301 45.999 13c26 8.66699 41.333 13 46 13s134 5.33301 388 16l30 -17v-33l-33 -38h2c0 -2.66699 -72.667 -15.667 -218 -39
c-26 -2.66699 -103.333 -11.667 -232 -27c-91.333 -10.667 -166 -32 -224 -64v-10c0 -11.333 4 -48.666 12 -111.999s12 -100 12 -110c0 -88 -32.667 -135.667 -98 -143c-8 7.33301 -17.667 12.333 -29 15c0.666992 6 1 13.333 1 22c0 28 -15.333 141 -46 339
c-2 6 -8 9 -18 9c-12 0 -45.667 -6.5 -101 -19.5s-87 -19.5 -95 -19.5c-32 0 -62 14.333 -90 43c17.333 53.333 64.666 86 141.999 98c90.667 12.667 146.334 32.334 167.001 59.001v64c-13.333 22 -32.666 33 -57.999 33c-8.66699 0 -59.334 -6.66699 -152.001 -20
l-271 -37c-58.667 -8 -103.334 -22.667 -134.001 -44v-18c0 -14 2 -56.167 6 -126.5s6 -110.5 6 -120.5c0 -56.667 -10.667 -130 -32 -220c-8.66699 -36 -35 -63.667 -79 -83c-18 21.333 -27 43.333 -27 66c0 14.667 2.66699 63.667 8 147s8 132 8 146
c0 146.667 -22 220 -66 220h2c0 -3.33301 -138.667 -29.666 -416 -78.999c-18.667 16.667 -28 32.334 -28 47.001c0 50 71.667 86.667 215 110c153.333 24.667 233.666 44 240.999 58c16.667 274 34.667 456.333 54 547c44.667 204.667 132 360.334 262 467.001
c25.333 20.667 83 31 173 31c221.333 0 367 -107 437 -321c82 129.333 155.667 219.666 221 270.999c87.333 67.333 195.333 101 324 101c96 0 171.333 -36.833 226 -110.5s82 -173.834 82 -300.501zM2210 1333c0 88.667 -26.332 165.499 -78.999 230.499
s-116 97.5 -190 97.5c-83.333 0 -170.666 -35 -261.999 -105c-92.667 -71.333 -143.667 -145 -153 -221l-31 -38c-8.66699 -44.667 -29.334 -137 -62.001 -277c-20.667 -89.333 -31 -139.666 -31 -150.999v-118c44 -8.66699 66 -13.667 66 -15h-2c22.667 0 85 13.667 187 41
c173.333 46 285.666 90 336.999 132c146.667 118.667 220 260 220 424zM1337 1179c0 39.333 -10.332 95.666 -30.999 168.999c-17.333 64 -60.5 119.167 -129.5 165.5s-142.167 69.5 -219.5 69.5c-73.333 0 -151 -60.333 -233 -181
c-14.667 -22.667 -34.334 -96.667 -59.001 -222l-38 -171c-15.333 -70 -23 -126.667 -23 -170c0 -6.66699 1.66699 -27 5 -61c2 -34 3 -54 3 -60c0 -18.667 -1.33301 -33.667 -4 -45l649 51l56 303c16 86.667 24 137.334 24 152.001z" />
    <glyph glyph-name="paragraph" unicode="&#xb6;" horiz-adv-x="1330" 
d="M1312 1671c0 -48.667 -23.3301 -167.001 -69.9971 -355.001l-159 -668c-8.66699 -37.333 -29.667 -161.666 -63 -372.999c-8.66699 -52 -18.667 -118.333 -30 -199c-23.333 -84.667 -65.666 -127 -126.999 -127c-14.667 0 -29.334 7.33301 -44.001 22s-22 29 -22 43
c0 2.66699 11.333 28.334 34 77.001c23.333 51.333 36.333 83.333 39 96l51 245l111 605c6 34 38.333 158 97 372c27.333 102 41 158 41 168v46c-40.667 16 -94 24 -160 24c-45.333 0 -77.666 -5.33301 -96.999 -16l-83 -431c-7.33301 -38.667 -28.333 -183.667 -63 -435
l-78 -502c-22.667 -158.667 -34 -278 -34 -358v-4c-10.667 -4.66699 -25.334 -7 -44.001 -7c-8 0 -25.667 1 -53 3c-26.667 1.33301 -40.667 2 -42 2c-8.66699 39.333 -13.667 59 -15 59c0.666992 0 1 -0.666992 1 -2c0 10 10 59.333 30 148
c15.333 67.333 37.666 172.333 66.999 315c2.66699 60 12.667 149.333 30 268c-16.667 16.667 -48.334 28.334 -95.001 35.001c-61.333 7.33301 -96.666 12.333 -105.999 15c-90 30.667 -169.333 76 -238 136c-83.333 73.333 -125 151 -125 233c0 86 28.333 177.667 85 275
s126 174.666 208 231.999c29.333 20.667 78.666 45.667 147.999 75c19.333 13.333 49.333 31.666 90 54.999c95.333 38 307.666 57 636.999 57c52.667 0 79 -43 79 -129zM784.003 1605h-46l-109 -44c-48 -19.333 -77.333 -41.333 -88 -66c42.667 -10 64 -34.333 64 -73v-39
c0 -8 -5 -45.667 -15 -113l-38 -260c-8 -52.667 -12 -83 -12 -91c0 -12.667 13.667 -25.667 41 -39c22.667 -10 42.667 -15.667 60 -17c34.667 128 70 283 106 465c24.667 126.667 37 199.667 37 219v58z" />
    <glyph glyph-name="cedilla" unicode="&#xb8;" horiz-adv-x="950" 
d="M914 -155c0 -150 -121.334 -233.67 -364.001 -251.003c-27.333 -0.666992 -79.666 -4.33398 -156.999 -11.001c-26.667 -2 -59 -6.66699 -97 -14c-12 -2 -18 -3.66699 -18 -5c0 -0.666992 1.66699 -1 5 -1c-25.333 0 -63 -2.33301 -113 -7
c-53.333 -5.33301 -91 -8.66602 -113 -9.99902l-29 20v92c0 4.66699 4.5 18.834 13.5 42.501s13.5 37.834 13.5 42.501l31 -24c8 0 44.667 -5 110 -15c56 -8 96 -12 120 -12c55.333 0 138 13.333 248 40c130 32.667 195 66.334 195 101.001
c0 52.667 -24.667 94.334 -74 125.001c-26 15.333 -76.333 34 -151 56c-64.667 18.667 -105.334 36.667 -122.001 54c0 17.333 1 44.333 3 81c4.66699 27.333 32.334 85.666 83.001 174.999c51.333 92.667 87.333 139 108 139c34 0 51 -18.333 51 -55
c0 -19.333 -11.333 -55.666 -34 -108.999c-26.667 -62 -41.334 -103.667 -44.001 -125c22.667 -15.333 68.334 -32 137.001 -50c21.333 -5.33301 46 -21 74 -47c36.667 -34 58.667 -53.667 66 -59c38.667 -92.667 58 -150.334 58 -173.001z" />
    <glyph glyph-name="ordmasculine" unicode="&#xba;" horiz-adv-x="870" 
d="M803 1695c0 -70 -54.668 -125.333 -164.001 -166c-83.333 -30.667 -168.333 -46 -255 -46c-67.333 0 -131.666 11 -192.999 33c-80.667 29.333 -121 72 -121 128c0 38 26.667 89.333 80 154c2 0 23.667 3.66699 65 11c23.333 4.66699 45.333 7 66 7
c4.66699 0 14.667 -2 30 -6c16 -4 25.667 -6 29 -6c8.66699 0 44.5 10.5 107.5 31.5s99.5 31.5 109.5 31.5c164 0 246 -57.333 246 -172zM672.999 1708c-40.667 20.667 -68.334 31 -83.001 31c-19.333 0 -56.666 -8.33301 -111.999 -25c-54.667 -17.333 -87 -30.5 -97 -39.5
s-15 -25.5 -15 -49.5h22c133.333 0 228.333 27.667 285 83z" />
    <glyph glyph-name="guillemotright" unicode="&#xbb;" horiz-adv-x="1172" 
d="M1109 763c0 -84 -143.668 -274.67 -431.001 -572.003l-101 -98c-44 -43.333 -66 -82.333 -66 -117c0 -11.333 1.66699 -21.666 5 -30.999c-39.333 -20.667 -64.666 -31 -75.999 -31c-22.667 0 -43.334 9.33301 -62.001 28s-28 39.334 -28 62.001
c0 15.333 10.333 46.333 31 93c20 47.333 37 80 51 98c11.333 14.667 36.333 33.667 75 57c34.667 20 111.5 102.333 230.5 247s178.5 228.334 178.5 251.001c0 27.333 -66.667 97.666 -200 210.999c-113.333 94.667 -181.666 152.667 -204.999 174
c-34 31.333 -53 54 -57 68c-1.33301 5.33301 -2 21.666 -2 48.999c0 30.667 15.667 56.334 47 77.001c59.333 -36 144.666 -94 255.999 -174c30.667 -39.333 79.334 -96.666 146.001 -171.999c76.667 -57.333 118.667 -89 126 -95c54.667 -48 82 -89.667 82 -125z
M723.999 730.997c0 -24.667 -18.665 -57 -55.998 -97c-18.667 -20.667 -46.667 -49.667 -84 -87c-120 -149.333 -229 -254.333 -327 -315c-12 -17.333 -33.333 -40.333 -64 -69l-107 -31c-20.667 14.667 -31 30 -31 46c0 23.333 79.333 120.5 238 291.5
s238 258.167 238 261.5c0 12 -70.833 76.333 -212.5 193s-212.5 180.667 -212.5 192c0 15.333 7.33301 31 22 47s28.667 24 42 24c39.333 0 181.666 -97.333 426.999 -292c21.333 -17.333 45.666 -38.333 72.999 -63c36 -46 54 -79.667 54 -101z" />
    <glyph glyph-name="questiondown" unicode="&#xbf;" horiz-adv-x="1528" 
d="M1565 1708c0 -26 -18.333 -57.334 -55 -94.001h-40c-14.667 0 -32.667 12.667 -54 38c-20.667 25.333 -31 46.333 -31 63c0 20 7.5 40 22.5 60s30.833 30 47.5 30c27.333 0 52.333 -10 75 -30c23.333 -19.333 35 -41.666 35 -66.999zM1475 1341
c0 -6.66699 -6.00293 -24 -18.0029 -52s-18 -43.333 -18 -46c-3.33301 -42 -11.666 -123.333 -24.999 -244c-19.333 -140.667 -30.666 -274.334 -33.999 -401.001c-27.333 -14.667 -75 -25 -143 -31c-28 -1.33301 -79.333 -6.33301 -154 -15l-295 -51
c-15.333 -2.66699 -54 -16.667 -116 -42c-288 -117.333 -432 -213.666 -432 -288.999c0 -84.667 107.333 -127 322 -127c90.667 0 244.667 21.667 462 65c124.667 24.667 191 37 199 37c22.667 0 58.667 -9 108 -27c-2 -23.333 -11 -43 -27 -59
c-145.333 -32.667 -328.333 -71.334 -549 -116.001c-140.667 -28 -216 -42 -226 -42c-90.667 0 -180.667 21.333 -270 64c-106.667 52 -160 118.667 -160 200c0 114 75 208.333 225 283l370 142c94.667 36.667 219 62.667 373 78c104.667 10 160.667 16.667 168 20
c18 8 28.333 36.333 31 85l7 100c6.66699 32 18.334 95 35.001 189c4 33.333 12.333 94 25 182c11.333 68.667 39 122.334 83 161.001c39.333 -16 59 -37.333 59 -64z" />
    <glyph glyph-name="Agrave" unicode="&#xc0;" horiz-adv-x="1256" 
d="M1183 -18c0 -38.667 -24.334 -58.0029 -73.001 -58.0029c-18.667 0 -31.667 1.33301 -39 4c-180.667 185.333 -357 278 -529 278c-37.333 0 -116.666 -15.333 -237.999 -46c-38 -9.33301 -71.333 -41.666 -100 -96.999c-6.66699 -13.333 -25.667 -58.666 -57 -135.999
c-7.33301 -6.66699 -24.333 -16.334 -51 -29.001c-17.333 16 -26 38.667 -26 68c0 104 25 212.333 75 325c13.333 20 32 51.333 56 94l149 321c118.667 258 231.334 478 338.001 660l1 -26c26 12 45.333 44.333 58 97c11.333 46.667 29.333 70 54 70c2 2 4.66699 3 8 3
c16 0 28.333 -12.667 37 -38c2 -6.66699 9.66699 -38.667 23 -96c49.333 -208 100.666 -449.333 153.999 -724l48 -253c11.333 -22.667 26.666 -57 45.999 -103c8.66699 -29.333 21.334 -81.666 38.001 -156.999c18.667 -83.333 28 -135.666 28 -156.999zM1025 122.997
l-0.000976562 46.9971c0 22.667 -15.333 115.334 -46 278.001l-78 420c-25.333 131.333 -64.666 268 -117.999 410c-68 -73.333 -161 -247.666 -279 -522.999l-54 -126c-13.333 -18.667 -24.833 -35.667 -34.5 -51s-29.834 -59.666 -60.501 -132.999
c-31.333 -76 -47 -119 -47 -129c0 -18 4.66699 -27 14 -27l227 11c9.33301 0.666992 19 1 29 1c78.667 0 153 -14.333 223 -43c52.667 -22 127.334 -67 224.001 -135zM1100 1536.99c0 -7.33301 -6.66699 -17.332 -20 -29.999c-21.333 -19.333 -42.666 -29 -63.999 -29
c-12 0 -36.667 9.33301 -74 28l-78 38c-50 25.333 -106.333 62 -169 110c-66.667 51.333 -125.334 84 -176.001 98c-26.667 33.333 -40 59.333 -40 78c0 18 2.16699 29 6.5 33s16.5 6 36.5 6c32 0 80.333 -19.333 145 -58c154 -90.667 295 -178.334 423 -263.001z" />
    <glyph glyph-name="Aacute" unicode="&#xc1;" horiz-adv-x="1256" 
d="M1183 -18c0 -38.667 -24.334 -58.0029 -73.001 -58.0029c-18.667 0 -31.667 1.33301 -39 4c-180.667 185.333 -357 278 -529 278c-37.333 0 -116.666 -15.333 -237.999 -46c-38 -9.33301 -71.333 -41.666 -100 -96.999c-6.66699 -13.333 -25.667 -58.666 -57 -135.999
c-7.33301 -6.66699 -24.333 -16.334 -51 -29.001c-17.333 16 -26 38.667 -26 68c0 104 25 212.333 75 325c13.333 20 32 51.333 56 94l149 321c118.667 258 231.334 478 338.001 660l1 -26c26 12 45.333 44.333 58 97c11.333 46.667 29.333 70 54 70c2 2 4.66699 3 8 3
c16 0 28.333 -12.667 37 -38c2 -6.66699 9.66699 -38.667 23 -96c49.333 -208 100.666 -449.333 153.999 -724l48 -253c11.333 -22.667 26.666 -57 45.999 -103c8.66699 -29.333 21.334 -81.666 38.001 -156.999c18.667 -83.333 28 -135.666 28 -156.999zM1025 122.997
l-0.000976562 46.9971c0 22.667 -15.333 115.334 -46 278.001l-78 420c-25.333 131.333 -64.666 268 -117.999 410c-68 -73.333 -161 -247.666 -279 -522.999l-54 -126c-13.333 -18.667 -24.833 -35.667 -34.5 -51s-29.834 -59.666 -60.501 -132.999
c-31.333 -76 -47 -119 -47 -129c0 -18 4.66699 -27 14 -27l227 11c9.33301 0.666992 19 1 29 1c78.667 0 153 -14.333 223 -43c52.667 -22 127.334 -67 224.001 -135zM1134 1800.99c0 -3.33301 -38.332 -26.999 -114.999 -70.999c-26.667 -15.333 -85.667 -47.333 -177 -96
l-191 -102l-48 -37c-110.667 -83.333 -186.334 -125 -227.001 -125c-39.333 0 -59 13.333 -59 40c0 30.667 18.667 55.5 56 74.5l169 82.5c38 29.333 98 69.666 180 120.999l125 60l75 50l76 42c11.333 1.33301 37.333 10 78 26c38.667 -24 58 -45.667 58 -65z" />
    <glyph glyph-name="Acircumflex" unicode="&#xc2;" horiz-adv-x="1256" 
d="M1183 -18c0 -38.667 -24.334 -58.0029 -73.001 -58.0029c-18.667 0 -31.667 1.33301 -39 4c-180.667 185.333 -357 278 -529 278c-37.333 0 -116.666 -15.333 -237.999 -46c-38 -9.33301 -71.333 -41.666 -100 -96.999c-6.66699 -13.333 -25.667 -58.666 -57 -135.999
c-7.33301 -6.66699 -24.333 -16.334 -51 -29.001c-17.333 16 -26 38.667 -26 68c0 104 25 212.333 75 325c13.333 20 32 51.333 56 94l149 321c118.667 258 231.334 478 338.001 660l1 -26c26 12 45.333 44.333 58 97c11.333 46.667 29.333 70 54 70c2 2 4.66699 3 8 3
c16 0 28.333 -12.667 37 -38c2 -6.66699 9.66699 -38.667 23 -96c49.333 -208 100.666 -449.333 153.999 -724l48 -253c11.333 -22.667 26.666 -57 45.999 -103c8.66699 -29.333 21.334 -81.666 38.001 -156.999c18.667 -83.333 28 -135.666 28 -156.999zM1025 122.997
l-0.000976562 46.9971c0 22.667 -15.333 115.334 -46 278.001l-78 420c-25.333 131.333 -64.666 268 -117.999 410c-68 -73.333 -161 -247.666 -279 -522.999l-54 -126c-13.333 -18.667 -24.833 -35.667 -34.5 -51s-29.834 -59.666 -60.501 -132.999
c-31.333 -76 -47 -119 -47 -129c0 -18 4.66699 -27 14 -27l227 11c9.33301 0.666992 19 1 29 1c78.667 0 153 -14.333 223 -43c52.667 -22 127.334 -67 224.001 -135zM1157 1533.99c0 -32 -18.668 -48 -56.001 -48c-10 0 -21 3.33301 -33 10
c-10.667 19.333 -32.667 39.666 -66 60.999c-6 8 -25 37 -57 87c-33.333 52.667 -59.333 79 -78 79c-4 0 -57 -40.667 -159 -122c-102.667 -80.667 -157.667 -121 -165 -121c-10.667 0 -22 4.83301 -34 14.5s-18 18.834 -18 27.501c0 10.667 12.333 23.334 37 38.001
c32 18.667 50 29.667 54 33c4 4 28 31.667 72 83c9.33301 10 26 22.333 50 37c33.333 19.333 52.333 30.666 57 33.999c9.33301 7.33301 20.833 22 34.5 44s22.834 35 27.501 39c16.667 13.333 36 20 58 20c29.333 0 51.333 -11.333 66 -34l92 -136
c36 -52 74.333 -93.667 115 -125c2 -4 3 -11 3 -21z" />
    <glyph glyph-name="Atilde" unicode="&#xc3;" horiz-adv-x="1256" 
d="M1184 -18c0 -38.667 -24.6689 -58.0029 -74.002 -58.0029c-18.667 0 -31.667 1.33301 -39 4c-180.667 185.333 -357 278 -529 278c-37.333 0 -116.666 -15.333 -237.999 -46c-38 -9.33301 -71.333 -41.666 -100 -96.999c-6.66699 -13.333 -25.667 -58.666 -57 -135.999
c-7.33301 -6.66699 -24.333 -16.334 -51 -29.001c-16.667 16 -25 38.667 -25 68c0 104 25 212.333 75 325c13.333 20 32.333 51.333 57 94l147 321c118.667 258 231.334 478 338.001 660l1 -26c26 12 45.333 44.333 58 97c11.333 46.667 29.333 70 54 70c2 2 4.66699 3 8 3
c16 0 28.333 -12.667 37 -38c2 -6.66699 9.66699 -38.667 23 -96c49.333 -208 101 -449.333 155 -724l48 -253c11.333 -22.667 26.666 -57 45.999 -103c8.66699 -29.333 21.334 -81.666 38.001 -156.999c18.667 -83.333 28 -135.666 28 -156.999zM1026 122.997
l-0.000976562 46.9971c0 22.667 -15.333 115.334 -46 278.001l-79 420c-25.333 131.333 -64.666 268 -117.999 410c-68 -73.333 -160.667 -247.666 -278 -522.999l-54 -126l-34 -51c-9.33301 -15.333 -29.333 -59.666 -60 -132.999c-32 -76 -48 -119 -48 -129
c0 -18 4.33301 -27 13 -27l227 11c9.33301 0.666992 19 1 29 1c78.667 0 153 -14.333 223 -43c52.667 -22 127.667 -67 225 -135zM1342 1772.99c0 -31.333 -34.998 -73.332 -104.998 -125.999c-58 -42 -109.667 -72.333 -155 -91c-55.333 -23.333 -121 -35 -197 -35v0
c0 2 -44.333 34.667 -133 98c-90.667 65.333 -152.334 98 -185.001 98c-28.667 0 -78.5 -30.667 -149.5 -92l-106.5 -92c-12.667 0 -25.334 6.33301 -38.001 19c-12 12 -18 24.333 -18 37c0 36.667 42.667 91 128 163c86 72 149 108 189 108c4 0 68.333 -34.333 193 -103
c124 -68 188 -102 192 -102c27.333 0 42.333 0.666992 45 2c7.33301 3.33301 22.333 8.33301 45 15h2c5.33301 0 12 2.66699 20 8c11.333 7.33301 24.666 13.333 39.999 18c2 1.33301 32.667 25.666 92 72.999c48.667 38.667 78.334 58 89.001 58
c34.667 0 52 -18.667 52 -56z" />
    <glyph glyph-name="Adieresis" unicode="&#xc4;" horiz-adv-x="1256" 
d="M1183 -18c0 -38.667 -24.334 -58.0029 -73.001 -58.0029c-18.667 0 -31.667 1.33301 -39 4c-180.667 185.333 -357 278 -529 278c-37.333 0 -116.666 -15.333 -237.999 -46c-38 -9.33301 -71.333 -41.666 -100 -96.999c-6.66699 -13.333 -25.667 -58.666 -57 -135.999
c-7.33301 -6.66699 -24.333 -16.334 -51 -29.001c-17.333 16 -26 38.667 -26 68c0 104 25 212.333 75 325c13.333 20 32 51.333 56 94l149 321c118.667 258 231.334 478 338.001 660l1 -26c26 12 45.333 44.333 58 97c11.333 46.667 29.333 70 54 70c2 2 4.66699 3 8 3
c16 0 28.333 -12.667 37 -38c2 -6.66699 9.66699 -38.667 23 -96c49.333 -208 100.666 -449.333 153.999 -724l48 -253c11.333 -22.667 26.666 -57 45.999 -103c8.66699 -29.333 21.334 -81.666 38.001 -156.999c18.667 -83.333 28 -135.666 28 -156.999zM1025 122.997
l-0.000976562 46.9971c0 22.667 -15.333 115.334 -46 278.001l-78 420c-25.333 131.333 -64.666 268 -117.999 410c-68 -73.333 -161 -247.666 -279 -522.999l-54 -126c-13.333 -18.667 -24.833 -35.667 -34.5 -51s-29.834 -59.666 -60.501 -132.999
c-31.333 -76 -47 -119 -47 -129c0 -18 4.66699 -27 14 -27l227 11c9.33301 0.666992 19 1 29 1c78.667 0 153 -14.333 223 -43c52.667 -22 127.334 -67 224.001 -135zM1175 1651.99c-10 -32.667 -30 -60.999 -60 -84.999c-36 -29.333 -70.667 -44 -104 -44h-5
c-34.667 1.33301 -64 14.666 -88 39.999l-27 33c-10 12 -15 25.667 -15 41c0 3.33301 0.333008 6.33301 1 9c2 16 11.167 29 27.5 39l49.5 29c21.333 16 51.666 35.667 90.999 59l106 -45c2.66699 -11.333 7.33398 -28 14.001 -50c1.33301 -5.33301 4 -14 8 -26h2z
M645.998 1554c-11.333 -12 -31.999 -25.3301 -61.999 -39.9971h-7c-7.33301 0 -15.333 1.33301 -24 4c-14 4 -24.333 6.33301 -31 7h-10c-10.667 0 -20.334 -0.333008 -29.001 -1c-14 0 -25.333 6.66699 -34 20c-5.33301 7.33301 -8 15.333 -8 24
c0 3.33301 0.333008 6.66602 1 9.99902l-2 59l36 64l75 48l107 5c28.667 -26.667 43 -57.334 43 -92.001c0 -16.667 -3.33301 -33.334 -10 -50.001s-21.667 -36 -45 -58z" />
    <glyph glyph-name="Aring" unicode="&#xc5;" horiz-adv-x="1256" 
d="M1183 -18c0 -38.667 -24.334 -58.0029 -73.001 -58.0029c-18.667 0 -31.667 1.33301 -39 4c-180.667 185.333 -357 278 -529 278c-37.333 0 -116.666 -15.333 -237.999 -46c-38 -9.33301 -71.333 -41.666 -100 -96.999c-6.66699 -13.333 -25.667 -58.666 -57 -135.999
c-7.33301 -6.66699 -24.333 -16.334 -51 -29.001c-17.333 16 -26 38.667 -26 68c0 104 25 212.333 75 325c13.333 20 32 51.333 56 94l149 321c118.667 258 231.334 478 338.001 660l1 -26c26 12 45.333 44.333 58 97c11.333 46.667 29.333 70 54 70c2 2 4.66699 3 8 3
c16 0 28.333 -12.667 37 -38c2 -6.66699 9.66699 -38.667 23 -96c49.333 -208 100.666 -449.333 153.999 -724l48 -253c11.333 -22.667 26.666 -57 45.999 -103c8.66699 -29.333 21.334 -81.666 38.001 -156.999c18.667 -83.333 28 -135.666 28 -156.999zM1025 122.997
l-0.000976562 46.9971c0 22.667 -15.333 115.334 -46 278.001l-78 420c-25.333 131.333 -64.666 268 -117.999 410c-68 -73.333 -161 -247.666 -279 -522.999l-54 -126c-13.333 -18.667 -24.833 -35.667 -34.5 -51s-29.834 -59.666 -60.501 -132.999
c-31.333 -76 -47 -119 -47 -129c0 -18 4.66699 -27 14 -27l227 11c9.33301 0.666992 19 1 29 1c78.667 0 153 -14.333 223 -43c52.667 -22 127.334 -67 224.001 -135zM1030 1630.99c0 -5.33301 -6.66699 -16.668 -20 -34.001c-8 -9.33301 -15.667 -19.333 -23 -30
c-4 -10 -10.667 -25 -20 -45c-19.333 -27.333 -46 -51 -80 -71s-65.333 -30 -94 -30c-45.333 0 -82 7 -110 21c-22 10.667 -46 35.334 -72 74.001c-25.333 38 -38 68.667 -38 92c0 50 27 105.667 81 167c53.333 62 102.333 93 147 93c52 0 100.667 -10.333 146 -31l70 -55z
M912.998 1661.99c0 36.667 -10.333 58.999 -31 66.999c-9.33301 3.33301 -36.666 5 -81.999 5c-24 0 -49.833 -13.5 -77.5 -40.5s-41.5 -52.167 -41.5 -75.5c0 -13.333 12.167 -28.666 36.5 -45.999s45.166 -26 62.499 -26c33.333 0 63.833 11.667 91.5 35
s41.5 50.333 41.5 81z" />
    <glyph glyph-name="AE" unicode="&#xc6;" horiz-adv-x="2527" 
d="M2726 111c-51.333 -16.667 -95.001 -25.001 -131.001 -25.001c-11.333 0 -21 0.666992 -29 2c-125.333 10.667 -253 16 -383 16c-258.667 0 -454.334 -8.66699 -587.001 -26c-22.667 -3.33301 -71.667 -14.666 -147 -33.999c-66.667 -18 -111.334 -27 -134.001 -27
c-42 0 -72.667 17.667 -92 53c-2 4 -13.333 64.667 -34 182c-3.33301 17.333 -27.666 120 -72.999 308l-28 121c-4 8.66699 -14 22.334 -30 41.001c-36.667 -6.66699 -122.334 -14.667 -257.001 -24c-109.333 -8 -192.666 -22.333 -249.999 -43
c-15.333 -5.33301 -36 -26.333 -62 -63c-10 -14.667 -28.667 -40.667 -56 -78c-63.333 -84.667 -168 -260.334 -314 -527.001h-84c-10 12 -15 34.667 -15 68c0 37.333 23 88.333 69 153l107 144c36.667 65.333 96 162.333 178 291c17.333 38 45.333 94 84 168l451 735
c30.667 104.667 72.334 157 125.001 157c15.333 0 70.5 -7.66699 165.5 -23s150.5 -23 166.5 -23c31.333 0 137 -3.33301 317 -10c179.333 -6.66699 284.666 -10 315.999 -10c50.667 0 90.334 3 119.001 9c17.333 2.66699 62 16 134 40c64 22 102.667 33 116 33
c14 0 39.333 -11.667 76 -35v-13c0 -35.333 4.33301 -69.333 13 -102c-166 -74.667 -267.667 -112 -305 -112c-32 2.66699 -93.667 6.33398 -185 11.001l-685 36c-13.333 1.33301 -26 2 -38 2c-126 0 -189 -31.333 -189 -94c0 -12.667 7.66699 -60.667 23 -144
c18 -96 36.333 -188 55 -276c16.667 -78 39.334 -117 68.001 -117c9.33301 0 43.166 2.66699 101.499 8s92.833 8 103.5 8h651l161 -36c66 -14.667 99 -51.334 99 -110.001c0 -26 -5.33301 -53.333 -16 -82c-12 0 -36.333 6 -73 18l-58 20l-485 51
c-5.33301 0 -24.5 -2.5 -57.5 -7.5s-52.167 -7.5 -57.5 -7.5c-4.66699 0 -17.5 5.16699 -38.5 15.5s-33.833 15.5 -38.5 15.5c-40.667 0 -132 -24.667 -274 -74v-58c0 -14.667 15.667 -76.667 47 -186c28 -98 47.333 -162 58 -192c10 -27.333 28.333 -41 55 -41
c12.667 0 24.334 7.66699 35.001 23c20 5.33301 54 8 102 8h908c10 0 52.167 -8.16699 126.5 -24.5s116.166 -24.5 125.5 -24.5c8 0 14.333 0.666992 19 2l31 -36v-54zM1014 862.999l0.00195312 83.998c0 18.667 -13.667 49 -41 91c4 10.667 6 23.334 6 38.001
c0 30 -8 68.333 -24 115c-20.667 64 -32.334 101.667 -35.001 113c-12.667 -21.333 -61 -94.666 -145 -219.999c-66.667 -100 -105 -173.667 -115 -221c67.333 7.33301 130.666 11 189.999 11c56 0 110.667 -3.66699 164 -11z" />
    <glyph glyph-name="Ccedilla" unicode="&#xc7;" horiz-adv-x="1844" 
d="M1601 97c86.667 21.333 148.669 40.001 186.002 56.001l-15 76l-507 -53c-158.667 -17.333 -248.334 -26 -269.001 -26c-155.333 0 -272.333 12 -351 36c-115.333 35.333 -218.333 99 -309 191c-105.333 106.667 -158 221.667 -158 345c0 8 7.66699 38.667 23 92
c14 54 24.667 89.667 32 107c66 165.333 225.333 312.333 478 441l196 101c24 23.333 41 41.333 51 54l157 53c6 2.66699 107 43 303 121c17.333 18 26.666 37.333 27.999 58c-18.667 3.33301 -37 5 -55 5c-85.333 0 -174.333 -21 -267 -63l-248 -115
c-240.667 -112 -418.667 -214.333 -534 -307c-188 -152.667 -282 -324 -282 -514c0 -125.333 14.667 -222.333 44 -291c68.667 -156 225.667 -302.667 471 -440c44.667 -25.333 121 -38 229 -38c56 0 149.333 4 280 12c148.667 9.33301 233 17.666 253 24.999l198 55z
M1115 -350.999c0 -99.333 -80.668 -154.332 -242.001 -164.999l-103 -8c-25.333 -2.66699 -45.666 -5.33398 -60.999 -8.00098c-10.667 -2.66699 -16 -4.33398 -16 -5.00098h4c-16.667 0 -41.667 -1.66699 -75 -5l-75 -7l-20 13v61c0 3.33301 3.33301 12.666 10 27.999
c6.66699 16 10 25.667 10 29l20 -16c5.33301 0 29.666 -3.33301 72.999 -10c36.667 -5.33301 63 -8 79 -8c36.667 0 91.334 9 164.001 27c86 21.333 129 43.333 129 66c0 35.333 -16.667 63 -50 83c-16.667 10.667 -49.667 23 -99 37
c-43.333 12.667 -70.333 24.334 -81 35.001c0 12 0.666992 30 2 54c2.66699 18.667 21 57.667 55 117c34.667 61.333 58.667 92 72 92c22.667 0 34 -12.333 34 -37c0 -12.667 -7.66699 -36.667 -23 -72c-17.333 -40.667 -27 -68 -29 -82
c14.667 -10.667 44.667 -21.667 90 -33c14.667 -4 31 -14.667 49 -32c24 -22.667 38.667 -35.667 44 -39c26 -61.333 39 -99.666 39 -114.999z" />
    <glyph glyph-name="Egrave" unicode="&#xc8;" horiz-adv-x="1135" 
d="M1405 1425c-20 -7.33301 -48.6641 -23.9941 -85.9971 -49.9941c-16 1.33301 -34 2 -54 2c-96 0 -247.333 -16.667 -454 -50l-187 -31c-6 0 -26 2.16699 -60 6.5s-54 6.5 -60 6.5c-28.667 0 -63.667 -8 -105 -24c-46 -18.667 -74.333 -39 -85 -61
c-15.333 -33.333 -28.333 -89 -39 -167c-10 -70.667 -15 -130.334 -15 -179.001c0 -4.66699 6 -23.667 18 -57c108 16 175 24 201 24h467v-72c-30.667 -3.33301 -71.334 -5 -122.001 -5c-18.667 0 -58 0.666992 -118 2l-118 1c-48.667 0 -110.667 -15.333 -186 -46
c-14.667 -3.33301 -48.667 -10.333 -102 -21c-42.667 -8.66699 -71.334 -26.334 -86.001 -53.001c-25.333 -222.667 -38 -380.334 -38 -473.001c18.667 -23.333 38 -37 58 -41l130 -26c42 0 88.667 2.33301 140 7c118 10 254.333 15 409 15c34 0 64.333 -1 91 -3l41 -3
c18 -3.33301 27 -11.333 27 -24v-41c-32.667 -15.333 -95.334 -23 -188.001 -23c-14 0 -35.667 -5 -65 -15l-44 -15v0c-7.33301 0 -30.333 2.66699 -69 8c-32.667 4.66699 -55.334 7 -68.001 7h-4l-13 -2c-32 -2 -103.667 -10.333 -215 -25
c-66 -8.66699 -102.667 -13 -110 -13c-30.667 0 -76 19.333 -136 58c-65.333 40.667 -98 75.667 -98 105c0 13.333 6.66699 71 20 173c18 133.333 34.667 243.666 50 330.999c-18.667 14 -28 35 -28 63c0 3.33301 0.666992 12.666 2 27.999v28
c61.333 18.667 95.333 145.667 102 381c-33.333 16.667 -81.666 45 -144.999 85v70c13.333 21.333 36.333 33.333 69 36c48 3.33301 74.667 6 80 8c6 2 18.667 13 38 33c17.333 17.333 31 26 41 26c4 0 17.667 -4.33301 41 -13c24 -8.66699 38 -13 42 -13
c36.667 4 112 11.667 226 23c54 5.33301 181.667 15.666 383 30.999c6.66699 0.666992 27.334 6.5 62.001 17.5s54 16.5 58 16.5c8.66699 0 26 -1.33301 52 -4l47 -6c45.333 -2.66699 108.666 -4 189.999 -4zM1045 1557.01c0 -6.66699 -6.99902 -15 -20.999 -25
c-23.333 -17.333 -46.333 -26 -69 -26c-14 0 -40.667 8 -80 24l-84 34c-54 22 -114.333 54 -181 96c-72 45.333 -135 74 -189 86c-28.667 29.333 -43 52 -43 68s2.16699 25.667 6.5 29s17.166 5 38.499 5c34.667 0 86.667 -16.667 156 -50
c165.333 -79.333 317 -156.333 455 -231z" />
    <glyph glyph-name="Eacute" unicode="&#xc9;" horiz-adv-x="1135" 
d="M1405 1425c-20 -7.33301 -48.6641 -23.9941 -85.9971 -49.9941c-16 1.33301 -34 2 -54 2c-96 0 -247.333 -16.667 -454 -50l-187 -31c-6 0 -26 2.16699 -60 6.5s-54 6.5 -60 6.5c-28.667 0 -63.667 -8 -105 -24c-46 -18.667 -74.333 -39 -85 -61
c-15.333 -33.333 -28.333 -89 -39 -167c-10 -70.667 -15 -130.334 -15 -179.001c0 -4.66699 6 -23.667 18 -57c108 16 175 24 201 24h467v-72c-30.667 -3.33301 -71.334 -5 -122.001 -5c-18.667 0 -58 0.666992 -118 2l-118 1c-48.667 0 -110.667 -15.333 -186 -46
c-14.667 -3.33301 -48.667 -10.333 -102 -21c-42.667 -8.66699 -71.334 -26.334 -86.001 -53.001c-25.333 -222.667 -38 -380.334 -38 -473.001c18.667 -23.333 38 -37 58 -41l130 -26c42 0 88.667 2.33301 140 7c118 10 254.333 15 409 15c34 0 64.333 -1 91 -3l41 -3
c18 -3.33301 27 -11.333 27 -24v-41c-32.667 -15.333 -95.334 -23 -188.001 -23c-14 0 -35.667 -5 -65 -15l-44 -15v0c-7.33301 0 -30.333 2.66699 -69 8c-32.667 4.66699 -55.334 7 -68.001 7h-4l-13 -2c-32 -2 -103.667 -10.333 -215 -25
c-66 -8.66699 -102.667 -13 -110 -13c-30.667 0 -76 19.333 -136 58c-65.333 40.667 -98 75.667 -98 105c0 13.333 6.66699 71 20 173c18 133.333 34.667 243.666 50 330.999c-18.667 14 -28 35 -28 63c0 3.33301 0.666992 12.666 2 27.999v28
c61.333 18.667 95.333 145.667 102 381c-33.333 16.667 -81.666 45 -144.999 85v70c13.333 21.333 36.333 33.333 69 36c48 3.33301 74.667 6 80 8c6 2 18.667 13 38 33c17.333 17.333 31 26 41 26c4 0 17.667 -4.33301 41 -13c24 -8.66699 38 -13 42 -13
c36.667 4 112 11.667 226 23c54 5.33301 181.667 15.666 383 30.999c6.66699 0.666992 27.334 6.5 62.001 17.5s54 16.5 58 16.5c8.66699 0 26 -1.33301 52 -4l47 -6c45.333 -2.66699 108.666 -4 189.999 -4zM1114 1808.01c0 -2 -34.334 -21.333 -103.001 -58
c-23.333 -12.667 -75.666 -39.334 -156.999 -80.001l-170 -83c-10 -8 -24.333 -18.333 -43 -31c-98 -69.333 -165 -104 -201 -104c-34.667 0 -52 11 -52 33c0 26 16.333 46.667 49 62l150 69c34 23.333 87.333 56.333 160 99l111 50l66 42l68 35
c10 0.666992 33.333 7.33398 70 20.001c34.667 -19.333 52 -37.333 52 -54z" />
    <glyph glyph-name="Ecircumflex" unicode="&#xca;" horiz-adv-x="1135" 
d="M1405 1425c-20 -7.33301 -48.6641 -23.9941 -85.9971 -49.9941c-16 1.33301 -34 2 -54 2c-96 0 -247.333 -16.667 -454 -50l-187 -31c-6 0 -26 2.16699 -60 6.5s-54 6.5 -60 6.5c-28.667 0 -63.667 -8 -105 -24c-46 -18.667 -74.333 -39 -85 -61
c-15.333 -33.333 -28.333 -89 -39 -167c-10 -70.667 -15 -130.334 -15 -179.001c0 -4.66699 6 -23.667 18 -57c108 16 175 24 201 24h467v-72c-30.667 -3.33301 -71.334 -5 -122.001 -5c-18.667 0 -58 0.666992 -118 2l-118 1c-48.667 0 -110.667 -15.333 -186 -46
c-14.667 -3.33301 -48.667 -10.333 -102 -21c-42.667 -8.66699 -71.334 -26.334 -86.001 -53.001c-25.333 -222.667 -38 -380.334 -38 -473.001c18.667 -23.333 38 -37 58 -41l130 -26c42 0 88.667 2.33301 140 7c118 10 254.333 15 409 15c34 0 64.333 -1 91 -3l41 -3
c18 -3.33301 27 -11.333 27 -24v-41c-32.667 -15.333 -95.334 -23 -188.001 -23c-14 0 -35.667 -5 -65 -15l-44 -15v0c-7.33301 0 -30.333 2.66699 -69 8c-32.667 4.66699 -55.334 7 -68.001 7h-4l-13 -2c-32 -2 -103.667 -10.333 -215 -25
c-66 -8.66699 -102.667 -13 -110 -13c-30.667 0 -76 19.333 -136 58c-65.333 40.667 -98 75.667 -98 105c0 13.333 6.66699 71 20 173c18 133.333 34.667 243.666 50 330.999c-18.667 14 -28 35 -28 63c0 3.33301 0.666992 12.666 2 27.999v28
c61.333 18.667 95.333 145.667 102 381c-33.333 16.667 -81.666 45 -144.999 85v70c13.333 21.333 36.333 33.333 69 36c48 3.33301 74.667 6 80 8c6 2 18.667 13 38 33c17.333 17.333 31 26 41 26c4 0 17.667 -4.33301 41 -13c24 -8.66699 38 -13 42 -13
c36.667 4 112 11.667 226 23c54 5.33301 181.667 15.666 383 30.999c6.66699 0.666992 27.334 6.5 62.001 17.5s54 16.5 58 16.5c8.66699 0 26 -1.33301 52 -4l47 -6c45.333 -2.66699 108.666 -4 189.999 -4zM1093 1579.01c0 -27.333 -22.667 -40.999 -68 -40.999
c-12 0 -25 2.66699 -39 8c-12 17.333 -38 35 -78 53c-6.66699 6.66699 -29.334 31.667 -68.001 75c-40 44.667 -71 67 -93 67c-4.66699 0 -67.667 -34.667 -189 -104s-186.333 -104 -195 -104c-12.667 0 -26.167 4.16699 -40.5 12.5s-21.5 16.166 -21.5 23.499
c0 9.33301 15 20 45 32c38.667 16 60 25.667 64 29c4.66699 3.33301 33.334 27 86.001 71c10 8.66699 29.667 19 59 31c39.333 16.667 61.666 26.667 66.999 30c10.667 6 24.334 18.333 41.001 37c15.333 18.667 26.333 30 33 34c19.333 11.333 42 17 68 17
c34.667 0 61 -9.66699 79 -29l109 -116c42.667 -45.333 88 -81.333 136 -108c3.33301 -3.33301 5 -9.33301 5 -18z" />
    <glyph glyph-name="Edieresis" unicode="&#xcb;" horiz-adv-x="1135" 
d="M1405 1425c-20 -7.33301 -48.6641 -23.9941 -85.9971 -49.9941c-16 1.33301 -34 2 -54 2c-96 0 -247.333 -16.667 -454 -50l-187 -31c-6 0 -26 2.16699 -60 6.5s-54 6.5 -60 6.5c-28.667 0 -63.667 -8 -105 -24c-46 -18.667 -74.333 -39 -85 -61
c-15.333 -33.333 -28.333 -89 -39 -167c-10 -70.667 -15 -130.334 -15 -179.001c0 -4.66699 6 -23.667 18 -57c108 16 175 24 201 24h467v-72c-30.667 -3.33301 -71.334 -5 -122.001 -5c-18.667 0 -58 0.666992 -118 2l-118 1c-48.667 0 -110.667 -15.333 -186 -46
c-14.667 -3.33301 -48.667 -10.333 -102 -21c-42.667 -8.66699 -71.334 -26.334 -86.001 -53.001c-25.333 -222.667 -38 -380.334 -38 -473.001c18.667 -23.333 38 -37 58 -41l130 -26c42 0 88.667 2.33301 140 7c118 10 254.333 15 409 15c34 0 64.333 -1 91 -3l41 -3
c18 -3.33301 27 -11.333 27 -24v-41c-32.667 -15.333 -95.334 -23 -188.001 -23c-14 0 -35.667 -5 -65 -15l-44 -15v0c-7.33301 0 -30.333 2.66699 -69 8c-32.667 4.66699 -55.334 7 -68.001 7h-4l-13 -2c-32 -2 -103.667 -10.333 -215 -25
c-66 -8.66699 -102.667 -13 -110 -13c-30.667 0 -76 19.333 -136 58c-65.333 40.667 -98 75.667 -98 105c0 13.333 6.66699 71 20 173c18 133.333 34.667 243.666 50 330.999c-18.667 14 -28 35 -28 63c0 3.33301 0.666992 12.666 2 27.999v28
c61.333 18.667 95.333 145.667 102 381c-33.333 16.667 -81.666 45 -144.999 85v70c13.333 21.333 36.333 33.333 69 36c48 3.33301 74.667 6 80 8c6 2 18.667 13 38 33c17.333 17.333 31 26 41 26c4 0 17.667 -4.33301 41 -13c24 -8.66699 38 -13 42 -13
c36.667 4 112 11.667 226 23c54 5.33301 181.667 15.666 383 30.999c6.66699 0.666992 27.334 6.5 62.001 17.5s54 16.5 58 16.5c8.66699 0 26 -1.33301 52 -4l47 -6c45.333 -2.66699 108.666 -4 189.999 -4zM1088 1649.01c-11.333 -32.667 -31.666 -60.998 -60.999 -84.998
c-36 -29.333 -70.333 -44 -103 -44h-6c-35.333 1.33301 -65 14.666 -89 39.999l-26 33c-10 10.667 -15 24 -15 40c0 3.33301 0.333008 6.66602 1 9.99902c1.33301 16 10.333 29 27 39l49 29c21.333 15.333 51.666 35 90.999 59l106 -45c2.66699 -11.333 7.66699 -28 15 -50
c0.666992 -5.33301 3.66699 -14 9 -26h2zM601.003 1607.01c-6.66699 -15.333 -21.334 -33.999 -44.001 -55.999c-11.333 -12 -32 -25.333 -62 -40c-2.66699 -0.666992 -5 -1 -7 -1c-7.33301 0 -15.333 1.33301 -24 4c-14 4.66699 -24.333 7 -31 7
c-5.33301 0.666992 -10.666 1 -15.999 1c-7.33301 0 -15 -0.333008 -23 -1c-14 0 -25.333 6.66699 -34 20c-5.33301 7.33301 -8 15.333 -8 24c0 3.33301 0.333008 6.66602 1 9.99902l-1 59l35 64l76 47l106 6c28 -26.667 42 -57.667 42 -93
c0 -16.667 -3.33301 -33.667 -10 -51z" />
    <glyph glyph-name="Igrave" unicode="&#xcc;" horiz-adv-x="555" 
d="M327 1195l-57 -248c-75.333 -334 -113 -627 -113 -879v-40c-8.66699 -1.33301 -17 -6 -25 -14c-38.667 46 -58 123.667 -58 233c0 20.667 7.33301 94.667 22 222c21.333 190.667 43 340 65 448c26.667 130.667 61.667 241 105 331h36c16.667 -13.333 25 -31 25 -53z
M534 1355c0 -5.33301 -5.33301 -12.334 -16 -21.001c-18 -14 -35.667 -21 -53 -21c-10 0 -30.667 6.33301 -62 19l-64 28c-42 18 -88.667 43.667 -140 77c-54.667 36.667 -103.334 59.667 -146.001 69c-21.333 24 -32 42.667 -32 56c0 12.667 1.66699 20.334 5 23.001
s13 4 29 4c26.667 0 67 -13.333 121 -40c126.667 -64 243.334 -126.333 350.001 -187z" />
    <glyph glyph-name="Iacute" unicode="&#xcd;" horiz-adv-x="841" 
d="M523 1181l-56 -248.001c-76 -336 -114 -630.333 -114 -883v-36c-8.66699 -1.33301 -17 -5.66602 -25 -12.999c-38 46 -57 123.333 -57 232c0 20.667 7.33301 94.667 22 222c21.333 191.333 43 341 65 449c26 130 61 240 105 330h36c16 -13.333 24 -31 24 -53zM812 1637
c0 -3.33301 -37.999 -26.6689 -113.999 -70.002l-178 -97l-191 -101c-10.667 -9.33301 -26.667 -21.666 -48 -36.999c-110 -84 -185.333 -126 -226 -126c-39.333 0 -59 13.667 -59 41c0 30.667 18.667 55.334 56 74.001l169 83c38 28.667 98 68.667 180 120l125 61l75 50
l75 42c11.333 1.33301 37.666 10 78.999 26c38 -24.667 57 -46.667 57 -66z" />
    <glyph glyph-name="Icircumflex" unicode="&#xce;" horiz-adv-x="707" 
d="M412 1195l-55.999 -248c-75.333 -334 -113 -627 -113 -879v-40c-8.66699 -1.33301 -17.334 -6 -26.001 -14c-38 46 -57 123.667 -57 233c0 20.667 7 94.667 21 222c22 190.667 44 340 66 448c26 130.667 60.667 241 104 331h37c16 -13.333 24 -31 24 -53zM687.001 1296
c0 -32.667 -18.6689 -49 -56.002 -49c-10.667 0 -22 3.33301 -34 10c-10 20 -31.667 40.667 -65 62c-6 7.33301 -25 36.333 -57 87c-34 52 -60.333 78 -79 78c-3.33301 0 -56.333 -40.333 -159 -121s-157.334 -121 -164.001 -121c-11.333 0 -22.833 4.66699 -34.5 14
s-17.5 18.333 -17.5 27c0 10.667 12.333 23.334 37 38.001c32 19.333 50 30.666 54 33.999c4 4 28 31.333 72 82c8.66699 10.667 25.334 23 50.001 37l57 34c8.66699 7.33301 19.834 22 33.501 44s22.834 35 27.501 39c17.333 14 37 21 59 21
c29.333 0 51.333 -11.333 66 -34l91 -136c36.667 -52.667 75 -94.667 115 -126c2.66699 -3.33301 4 -10 4 -20z" />
    <glyph glyph-name="Idieresis" unicode="&#xcf;" horiz-adv-x="779" 
d="M428 1180l-57 -248c-75.333 -333.333 -113 -626.333 -113 -879v-40c-8.66699 -0.666992 -17 -5 -25 -13c-38.667 45.333 -58 122.666 -58 231.999c0 20.667 7 95 21 223c22 190.667 44.333 339.667 67 447c25.333 130.667 60 241.334 104 332.001h37
c16 -13.333 24 -31.333 24 -54zM751 1471c-11.333 -32.667 -31.332 -61.3311 -59.999 -85.998c-36 -28.667 -71 -43 -105 -43h-4c-35.333 1.33301 -65 15 -89 41l-27 32c-9.33301 11.333 -14 24.666 -14 39.999v10c2 16 11.667 29.333 29 40l48 28
c20.667 15.333 51 35 91 59l107 -45c1.33301 -10.667 5.66602 -27.334 12.999 -50.001c1.33301 -5.33301 4.33301 -14 9 -26h2zM221.001 1373c-11.333 -12 -31.665 -25.333 -60.998 -40c-2.66699 -0.666992 -5.33398 -1 -8.00098 -1c-7.33301 0 -15 1.66699 -23 5
c-14.667 4.66699 -25.334 7 -32.001 7h-14c-8.66699 0 -17 -0.666992 -25 -2c-14 1.33301 -25.333 8.33301 -34 21c-4.66699 8 -7 16.333 -7 25v9l-1 59l35 64l76 47l106 6c28.667 -26.667 43 -57.334 43 -92.001c0 -17.333 -3.33301 -34.166 -10 -50.499
s-21.667 -35.5 -45 -57.5z" />
    <glyph glyph-name="Ntilde" unicode="&#xd1;" horiz-adv-x="1480" 
d="M1814 1419c0 -39.333 -60.667 -168.669 -182 -388.002c-88.667 -160 -166.667 -295 -234 -405c-58.667 -95.333 -141 -215 -247 -359c-88.667 -120.667 -175.334 -205.667 -260.001 -255c-13.333 6.66699 -24.333 14.334 -33 23.001
c-1.33301 4.66699 -35.666 151.334 -102.999 440.001c-41.333 177.333 -91 318.333 -149 423l-505 -865c-8.66699 8 -23.334 12 -44.001 12h-3v66c0 6.66699 86.667 158 260 454l300 510h39c56 -100 113.333 -287 172 -561c32.667 -154 66.667 -266 102 -336h2
c4 0.666992 9.33301 -2 16 -8c178 177.333 385 489 621 935l119 231c8.66699 16 24.334 47 47.001 93c6.66699 11.333 22 24 46 38c24 -16.667 36 -32.667 36 -48zM1751 1694c0 -31.333 -35.332 -73.333 -105.999 -126c-56.667 -42 -108 -72.333 -154 -91
c-54.667 -23.333 -120.334 -35 -197.001 -35v0c0 2 -44 34.667 -132 98c-91.333 65.333 -153 98 -185 98c-29.333 0 -79.333 -30.667 -150 -92c-70 -61.333 -105.333 -92 -106 -92c-13.333 0 -26 6.33301 -38 19c-13.333 12 -20 24.333 -20 37
c0 36.667 43.333 91.334 130 164.001c85.333 71.333 148.333 107 189 107c4 0 68 -34.333 192 -103s188 -103 192 -103c28 0 43.333 1 46 3c6.66699 3.33301 21.667 8.33301 45 15h2c4.66699 0 11 2.66699 19 8c12 7.33301 25.333 13.333 40 18
c2 1.33301 33 25.666 93 72.999c48.667 38.667 78 58 88 58c34.667 0 52 -18.667 52 -56z" />
    <glyph glyph-name="Ograve" unicode="&#xd2;" horiz-adv-x="1731" 
d="M1809 796c0 -18.667 -10.668 -59.667 -32.001 -123c-20 -55.333 -36.333 -96 -49 -122c-65.333 -130 -169 -242.333 -311 -337c-83.333 -56 -212.833 -111 -388.5 -165s-312.5 -81 -410.5 -81h-110c-93.333 0 -189.666 36 -288.999 108
c-106.667 78 -160 161.333 -160 250c0 77.333 28.667 162 86 254c52 82.667 112 150 180 202c28.667 21.333 73.667 65.333 135 132c53.333 58.667 100 100 140 124c46 28 135.333 57.333 268 88c128 29.333 222 44 282 44c146.667 0 284 -27.333 412 -82
c164.667 -70 247 -167.333 247 -292zM1747 786c0 42.667 -12.998 77.333 -38.998 104c-116 120.667 -242 181 -378 181c-2.66699 0 -11.667 -0.666992 -27 -2s-24 -2 -26 -2c-4 0 -14 3.16699 -30 9.5s-25.333 9.5 -28 9.5c-5.33301 0 -22.333 -2.33301 -51 -7
s-45.334 -7 -50.001 -7c-54.667 0 -149.667 -16 -285 -48c-30 -6.66699 -63.333 -14.667 -100 -24c-41.333 -14 -68 -31.667 -80 -53l-16 -54c-108 -74 -168.667 -116.667 -182 -128c-61.333 -52.667 -104.333 -112 -129 -178
c-1.33301 -1.33301 -4.33301 -28.666 -9 -81.999c-3.33301 -32.667 -17 -53.667 -41 -63c-19.333 27.333 -33.333 59 -42 95c-60 -99.333 -90 -158.666 -90 -177.999c0 -57.333 40.333 -120.333 121 -189s153.334 -103 218.001 -103c2 0 7.66699 0.666992 17 2
s14.333 2 15 2c3.33301 0 14.333 -3 33 -9s29.667 -9 33 -9c6 0 55.333 5.66699 148 17c64.667 8 128 17.333 190 28c15.333 7.33301 43.666 18.666 84.999 33.999c168.667 51.333 315 121.666 439 210.999c155.333 112.667 250.666 238.667 285.999 378
c10.667 43.333 16.667 65 18 65v0zM1321 1306c0 -6.66699 -7.66797 -16.001 -23.001 -28.001c-25.333 -18.667 -51 -28 -77 -28c-14 0 -43 8.66699 -87 26l-92 37c-59.333 24 -125.333 58.333 -198 103c-79.333 48.667 -148.666 79.334 -207.999 92.001
c-31.333 32 -47 57 -47 75c0 16.667 2.33301 27 7 31c5.33301 3.33301 19.333 5 42 5c38 0 95 -18 171 -54c182 -85.333 348.667 -168.333 500 -249z" />
    <glyph glyph-name="Oacute" unicode="&#xd3;" horiz-adv-x="1731" 
d="M1809 796c0 -18.667 -10.668 -59.667 -32.001 -123c-20 -55.333 -36.333 -96 -49 -122c-65.333 -130 -169 -242.333 -311 -337c-83.333 -56 -212.833 -111 -388.5 -165s-312.5 -81 -410.5 -81h-110c-93.333 0 -189.666 36 -288.999 108
c-106.667 78 -160 161.333 -160 250c0 77.333 28.667 162 86 254c52 82.667 112 150 180 202c28.667 21.333 73.667 65.333 135 132c53.333 58.667 100 100 140 124c46 28 135.333 57.333 268 88c128 29.333 222 44 282 44c146.667 0 284 -27.333 412 -82
c164.667 -70 247 -167.333 247 -292zM1747 786c0 42.667 -12.998 77.333 -38.998 104c-116 120.667 -242 181 -378 181c-2.66699 0 -11.667 -0.666992 -27 -2s-24 -2 -26 -2c-4 0 -14 3.16699 -30 9.5s-25.333 9.5 -28 9.5c-5.33301 0 -22.333 -2.33301 -51 -7
s-45.334 -7 -50.001 -7c-54.667 0 -149.667 -16 -285 -48c-30 -6.66699 -63.333 -14.667 -100 -24c-41.333 -14 -68 -31.667 -80 -53l-16 -54c-108 -74 -168.667 -116.667 -182 -128c-61.333 -52.667 -104.333 -112 -129 -178
c-1.33301 -1.33301 -4.33301 -28.666 -9 -81.999c-3.33301 -32.667 -17 -53.667 -41 -63c-19.333 27.333 -33.333 59 -42 95c-60 -99.333 -90 -158.666 -90 -177.999c0 -57.333 40.333 -120.333 121 -189s153.334 -103 218.001 -103c2 0 7.66699 0.666992 17 2
s14.333 2 15 2c3.33301 0 14.333 -3 33 -9s29.667 -9 33 -9c6 0 55.333 5.66699 148 17c64.667 8 128 17.333 190 28c15.333 7.33301 43.666 18.666 84.999 33.999c168.667 51.333 315 121.666 439 210.999c155.333 112.667 250.666 238.667 285.999 378
c10.667 43.333 16.667 65 18 65v0zM1326 1586c0 -3.33301 -38.333 -27 -115 -71l-178 -96l-191 -102c-10.667 -9.33301 -26.667 -21.666 -48 -36.999c-110 -83.333 -185.667 -125 -227 -125c-38.667 0 -58 13.667 -58 41c0 30.667 18.5 55.334 55.5 74.001l168.5 82
c38.667 29.333 98.667 69.666 180 120.999l125 61l75 50l76 42c11.333 1.33301 37.333 9.66602 78 24.999c39.333 -24 59 -45.667 59 -65z" />
    <glyph glyph-name="Ocircumflex" unicode="&#xd4;" horiz-adv-x="1731" 
d="M1809 796c0 -18.667 -10.668 -59.667 -32.001 -123c-20 -55.333 -36.333 -96 -49 -122c-65.333 -130 -169 -242.333 -311 -337c-83.333 -56 -212.833 -111 -388.5 -165s-312.5 -81 -410.5 -81h-110c-93.333 0 -189.666 36 -288.999 108
c-106.667 78 -160 161.333 -160 250c0 77.333 28.667 162 86 254c52 82.667 112 150 180 202c28.667 21.333 73.667 65.333 135 132c53.333 58.667 100 100 140 124c46 28 135.333 57.333 268 88c128 29.333 222 44 282 44c146.667 0 284 -27.333 412 -82
c164.667 -70 247 -167.333 247 -292zM1747 786c0 42.667 -12.998 77.333 -38.998 104c-116 120.667 -242 181 -378 181c-2.66699 0 -11.667 -0.666992 -27 -2s-24 -2 -26 -2c-4 0 -14 3.16699 -30 9.5s-25.333 9.5 -28 9.5c-5.33301 0 -22.333 -2.33301 -51 -7
s-45.334 -7 -50.001 -7c-54.667 0 -149.667 -16 -285 -48c-30 -6.66699 -63.333 -14.667 -100 -24c-41.333 -14 -68 -31.667 -80 -53l-16 -54c-108 -74 -168.667 -116.667 -182 -128c-61.333 -52.667 -104.333 -112 -129 -178
c-1.33301 -1.33301 -4.33301 -28.666 -9 -81.999c-3.33301 -32.667 -17 -53.667 -41 -63c-19.333 27.333 -33.333 59 -42 95c-60 -99.333 -90 -158.666 -90 -177.999c0 -57.333 40.333 -120.333 121 -189s153.334 -103 218.001 -103c2 0 7.66699 0.666992 17 2
s14.333 2 15 2c3.33301 0 14.333 -3 33 -9s29.667 -9 33 -9c6 0 55.333 5.66699 148 17c64.667 8 128 17.333 190 28c15.333 7.33301 43.666 18.666 84.999 33.999c168.667 51.333 315 121.666 439 210.999c155.333 112.667 250.666 238.667 285.999 378
c10.667 43.333 16.667 65 18 65v0zM1688 1302c0 -39.333 -31 -59 -93 -59c-17.333 0 -36 4 -56 12c-16 24.667 -51.667 50 -107 76c-2 0.666992 -33 36.334 -93 107.001c-55.333 64 -98.333 96 -129 96c-6 0 -93.167 -49.667 -261.5 -149s-258.5 -149 -270.5 -149
c-18 0 -36.667 6 -56 18s-29 23.333 -29 34c0 12.667 20.667 28 62 46c52.667 22.667 82 36.334 88 41.001l118 102c14.667 12.667 42 27.667 82 45c54 23.333 85.333 37.666 94 42.999c14 8.66699 32 25.667 54 51c23.333 28 39 44.667 47 50c27.333 16.667 59 25 95 25
c48 0 84.333 -14 109 -42l151 -166c60 -65.333 123 -117 189 -155c4 -4.66699 6 -13.334 6 -26.001z" />
    <glyph glyph-name="Otilde" unicode="&#xd5;" horiz-adv-x="1731" 
d="M1809 796c0 -18.667 -10.668 -59.667 -32.001 -123c-20 -55.333 -36.333 -96 -49 -122c-65.333 -130 -169 -242.333 -311 -337c-83.333 -56 -212.833 -111 -388.5 -165s-312.5 -81 -410.5 -81h-110c-93.333 0 -189.666 36 -288.999 108
c-106.667 78 -160 161.333 -160 250c0 77.333 28.667 162 86 254c52 82.667 112 150 180 202c28.667 21.333 73.667 65.333 135 132c53.333 58.667 100 100 140 124c46 28 135.333 57.333 268 88c128 29.333 222 44 282 44c146.667 0 284 -27.333 412 -82
c164.667 -70 247 -167.333 247 -292zM1747 786c0 42.667 -12.998 77.333 -38.998 104c-116 120.667 -242 181 -378 181c-2.66699 0 -11.667 -0.666992 -27 -2s-24 -2 -26 -2c-4 0 -14 3.16699 -30 9.5s-25.333 9.5 -28 9.5c-5.33301 0 -22.333 -2.33301 -51 -7
s-45.334 -7 -50.001 -7c-54.667 0 -149.667 -16 -285 -48c-30 -6.66699 -63.333 -14.667 -100 -24c-41.333 -14 -68 -31.667 -80 -53l-16 -54c-108 -74 -168.667 -116.667 -182 -128c-61.333 -52.667 -104.333 -112 -129 -178
c-1.33301 -1.33301 -4.33301 -28.666 -9 -81.999c-3.33301 -32.667 -17 -53.667 -41 -63c-19.333 27.333 -33.333 59 -42 95c-60 -99.333 -90 -158.666 -90 -177.999c0 -57.333 40.333 -120.333 121 -189s153.334 -103 218.001 -103c2 0 7.66699 0.666992 17 2
s14.333 2 15 2c3.33301 0 14.333 -3 33 -9s29.667 -9 33 -9c6 0 55.333 5.66699 148 17c64.667 8 128 17.333 190 28c15.333 7.33301 43.666 18.666 84.999 33.999c168.667 51.333 315 121.666 439 210.999c155.333 112.667 250.666 238.667 285.999 378
c10.667 43.333 16.667 65 18 65v0zM1648 1521c0 -32 -35.335 -74.001 -106.002 -126.001c-57.333 -42 -108.666 -72.667 -153.999 -92c-55.333 -22.667 -121 -34 -197 -34v0c0 2 -44.333 34.667 -133 98c-91.333 65.333 -153 98 -185 98c-29.333 0 -79 -30.667 -149 -92
c-71.333 -62 -107.333 -93 -108 -93c-12 0 -24.667 6.33301 -38 19c-12.667 12.667 -19 25.334 -19 38.001c0 36 43 90.333 129 163c86.667 72 150 108 190 108c3.33301 0 67.333 -34 192 -102c124 -69.333 188 -104 192 -104c28 0 43.333 1 46 3
c7.33301 4 22.333 8.66699 45 14h2c4.66699 0 11.334 2.66699 20.001 8c11.333 8 24.333 14 39 18c2.66699 1.33301 33.667 26 93 74c48.667 38.667 78 58 88 58c35.333 0 53 -18.667 53 -56z" />
    <glyph glyph-name="Odieresis" unicode="&#xd6;" horiz-adv-x="1731" 
d="M1809 796c0 -18.667 -10.668 -59.667 -32.001 -123c-20 -55.333 -36.333 -96 -49 -122c-65.333 -130 -169 -242.333 -311 -337c-83.333 -56 -212.833 -111 -388.5 -165s-312.5 -81 -410.5 -81h-110c-93.333 0 -189.666 36 -288.999 108
c-106.667 78 -160 161.333 -160 250c0 77.333 28.667 162 86 254c52 82.667 112 150 180 202c28.667 21.333 73.667 65.333 135 132c53.333 58.667 100 100 140 124c46 28 135.333 57.333 268 88c128 29.333 222 44 282 44c146.667 0 284 -27.333 412 -82
c164.667 -70 247 -167.333 247 -292zM1747 786c0 42.667 -12.998 77.333 -38.998 104c-116 120.667 -242 181 -378 181c-2.66699 0 -11.667 -0.666992 -27 -2s-24 -2 -26 -2c-4 0 -14 3.16699 -30 9.5s-25.333 9.5 -28 9.5c-5.33301 0 -22.333 -2.33301 -51 -7
s-45.334 -7 -50.001 -7c-54.667 0 -149.667 -16 -285 -48c-30 -6.66699 -63.333 -14.667 -100 -24c-41.333 -14 -68 -31.667 -80 -53l-16 -54c-108 -74 -168.667 -116.667 -182 -128c-61.333 -52.667 -104.333 -112 -129 -178
c-1.33301 -1.33301 -4.33301 -28.666 -9 -81.999c-3.33301 -32.667 -17 -53.667 -41 -63c-19.333 27.333 -33.333 59 -42 95c-60 -99.333 -90 -158.666 -90 -177.999c0 -57.333 40.333 -120.333 121 -189s153.334 -103 218.001 -103c2 0 7.66699 0.666992 17 2
s14.333 2 15 2c3.33301 0 14.333 -3 33 -9s29.667 -9 33 -9c6 0 55.333 5.66699 148 17c64.667 8 128 17.333 190 28c15.333 7.33301 43.666 18.666 84.999 33.999c168.667 51.333 315 121.666 439 210.999c155.333 112.667 250.666 238.667 285.999 378
c10.667 43.333 16.667 65 18 65v0zM1449 1455c-10 -32.667 -30.334 -61.001 -61.001 -85.001c-35.333 -29.333 -69.666 -44 -102.999 -44h-5c-35.333 2 -65 15.667 -89 41l-26 32c-10 12 -15 26 -15 42c0 2.66699 0.333008 5.33398 1 8.00098c2 16 11.167 29 27.5 39
l48.5 29c22 16 52.667 36 92 60l105 -45l15 -51c1.33301 -5.33301 4 -14 8 -26h2zM964 1414c-6.66699 -15.333 -21.665 -34.333 -44.998 -57c-10.667 -12 -31.334 -25.333 -62.001 -40c-2 -0.666992 -4.33301 -1 -7 -1c-7.33301 0 -15 1.66699 -23 5
c-14 4.66699 -24.333 7 -31 7c-6 0.666992 -11.667 1 -17 1c-8 0 -15.333 -0.666992 -22 -2c-14.667 0.666992 -26.334 7.33398 -35.001 20.001c-4.66699 7.33301 -7 15.333 -7 24c0 3.33301 0.333008 6.66602 1 9.99902l-2 60l36 63l74 48l108 5
c28.667 -26 43 -56.667 43 -92c0 -16.667 -3.66699 -33.667 -11 -51z" />
    <glyph glyph-name="Oslash" unicode="&#xd8;" horiz-adv-x="1607" 
d="M1615 1319c-105.333 -66.667 -182.665 -121.333 -231.998 -164c121.333 -120.667 182 -253.334 182 -398.001c0 -58 -10 -117 -30 -177l-57 -170c-48 -146 -127.667 -240.333 -239 -283c-43.333 -17.333 -112.333 -37 -207 -59c-99.333 -24 -168.333 -36 -207 -36
c-5.33301 0 -22.333 4.33301 -51 13s-46 13 -52 13c-3.33301 0 -13.833 -2 -31.5 -6s-28.5 -6 -32.5 -6c-11.333 0 -56.333 10.5 -135 31.5s-123.667 31.5 -135 31.5c-44 0 -95 -81 -153 -243h-57c-2.66699 13.333 -16 32 -40 56c68 132 102 213.667 102 245
c0 12 -15.667 37.667 -47 77l-65 77c-30.667 44.667 -48.667 94.334 -54 149.001c-0.666992 6.66699 -1 60 -1 160c0 2.66699 -4 12 -12 28s-12.333 24.333 -13 25c29.333 22.667 44 39.667 44 51c0 2 -3.16699 8 -9.5 18s-9.5 16.333 -9.5 19c0 104 92 207 276 309
c135.333 75.333 276 131 422 167c17.333 4.66699 38.333 7 63 7h31l31 -1c15.333 0 66.666 -6.5 153.999 -19.5s138.333 -19.5 153 -19.5c23.333 0 77.666 30 162.999 90l129 90h106c4 -17.333 8.66699 -42.333 14 -75zM1422 757.001c0 56 -13.667 113.334 -41 172.001
c-32.667 70 -72.334 105 -119.001 105c-38.667 0 -182.167 -116 -430.5 -348s-372.5 -366.333 -372.5 -403c0 -32.667 53.333 -60.334 160 -83.001c80 -17.333 148.667 -26 206 -26c26.667 0 85.334 9 176.001 27c84 16.667 141.333 30 172 40
c64 20.667 122.333 89.334 175 206.001c49.333 109.333 74 212.666 74 309.999zM1062 1080c-81.333 20.667 -134.667 30.999 -160 30.999v0l-131 -18c-10.667 -15.333 -27.667 -38.333 -51 -69c-88 -2 -171.5 -21.833 -250.5 -59.5s-135.833 -86.167 -170.5 -145.5
c-14.667 -24 -27 -56.333 -37 -97c-2.66699 -12.667 -14.667 -42.667 -36 -90c-16.667 -36 -25 -66.667 -25 -92c0 -49.333 14.667 -97.666 44 -144.999c18 -29.333 49.667 -52 95 -68c84 124 198.333 255.667 343 395z" />
    <glyph glyph-name="Ugrave" unicode="&#xd9;" horiz-adv-x="1743" 
d="M1677 1013c0 -35.333 -23.335 -134.668 -70.002 -298.001c-24.667 -86 -60.667 -163.333 -108 -232c-94.667 -136.667 -229.167 -252.667 -403.5 -348s-339.5 -143 -495.5 -143c-62 0 -134.333 23.333 -217 70c-75.333 41.333 -135.333 88 -180 140
c-10 11.333 -29.667 43 -59 95c-9.33301 8.66699 -21 22.667 -35 42c-4.66699 14.667 -9 29.334 -13 44.001c-35.333 108 -53 189.333 -53 244c0 76.667 15.667 159.334 47 248.001c37.333 104.667 85 170.667 143 198c22 10 39.667 15 53 15c8.66699 0 13 -8.66699 13 -26
v0c-2.66699 0 -45.667 -85 -129 -255c-22 -46.667 -33 -110 -33 -190c0 -116 45.333 -230 136 -342c96 -118.667 200.333 -178 313 -178h44c117.333 0 246.333 34 387 102c134.667 64.667 244.667 141 330 229c56.667 57.333 105.334 126.333 146.001 207
c24.667 48.667 50.334 104 77.001 166c22.667 70.667 34 144.667 34 222c0 68 -16.667 107.667 -50 119c-1.33301 5.33301 -2 10.666 -2 15.999c0 40 13 60 39 60c3.33301 0 9 -1.33301 17 -4c46 -18 69 -85 69 -201zM1216 1329c0 -7.33301 -7.00098 -16.667 -21.001 -28
c-24 -18.667 -48 -28 -72 -28c-14 0 -42 8.66699 -84 26l-87 37c-56 24 -119 58.333 -189 103c-75.333 49.333 -141.333 80.333 -198 93c-30 32 -45 56.667 -45 74s2.33301 27.833 7 31.5s18 5.5 40 5.5c36 0 90.333 -18 163 -54c172.667 -86 331.334 -169.333 476.001 -250
z" />
    <glyph glyph-name="Uacute" unicode="&#xda;" horiz-adv-x="1743" 
d="M1677 1013c0 -35.333 -23.335 -134.668 -70.002 -298.001c-24.667 -86 -60.667 -163.333 -108 -232c-94.667 -136.667 -229.167 -252.667 -403.5 -348s-339.5 -143 -495.5 -143c-62 0 -134.333 23.333 -217 70c-75.333 41.333 -135.333 88 -180 140
c-10 11.333 -29.667 43 -59 95c-9.33301 8.66699 -21 22.667 -35 42c-4.66699 14.667 -9 29.334 -13 44.001c-35.333 108 -53 189.333 -53 244c0 76.667 15.667 159.334 47 248.001c37.333 104.667 85 170.667 143 198c22 10 39.667 15 53 15c8.66699 0 13 -8.66699 13 -26
v0c-2.66699 0 -45.667 -85 -129 -255c-22 -46.667 -33 -110 -33 -190c0 -116 45.333 -230 136 -342c96 -118.667 200.333 -178 313 -178h44c117.333 0 246.333 34 387 102c134.667 64.667 244.667 141 330 229c56.667 57.333 105.334 126.333 146.001 207
c24.667 48.667 50.334 104 77.001 166c22.667 70.667 34 144.667 34 222c0 68 -16.667 107.667 -50 119c-1.33301 5.33301 -2 10.666 -2 15.999c0 40 13 60 39 60c3.33301 0 9 -1.33301 17 -4c46 -18 69 -85 69 -201zM1312 1602c0 -3.33301 -38.333 -26.666 -115 -69.999
c-26.667 -16 -85.667 -48.333 -177 -97l-191 -101c-10.667 -9.33301 -26.667 -22 -48 -38c-110 -83.333 -185.333 -125 -226 -125c-39.333 0 -59 13.333 -59 40c0 30.667 18.333 56 55 76l169 82c38.667 28.667 98.667 68.667 180 120l125 61l75 50l76 42
c11.333 1.33301 37.333 9.66602 78 24.999c38.667 -24 58 -45.667 58 -65z" />
    <glyph glyph-name="Ucircumflex" unicode="&#xdb;" horiz-adv-x="1743" 
d="M1677 1013c0 -35.333 -23.335 -134.668 -70.002 -298.001c-24.667 -86 -60.667 -163.333 -108 -232c-94.667 -136.667 -229.167 -252.667 -403.5 -348s-339.5 -143 -495.5 -143c-62 0 -134.333 23.333 -217 70c-75.333 41.333 -135.333 88 -180 140
c-10 11.333 -29.667 43 -59 95c-9.33301 8.66699 -21 22.667 -35 42c-4.66699 14.667 -9 29.334 -13 44.001c-35.333 108 -53 189.333 -53 244c0 76.667 15.667 159.334 47 248.001c37.333 104.667 85 170.667 143 198c22 10 39.667 15 53 15c8.66699 0 13 -8.66699 13 -26
v0c-2.66699 0 -45.667 -85 -129 -255c-22 -46.667 -33 -110 -33 -190c0 -116 45.333 -230 136 -342c96 -118.667 200.333 -178 313 -178h44c117.333 0 246.333 34 387 102c134.667 64.667 244.667 141 330 229c56.667 57.333 105.334 126.333 146.001 207
c24.667 48.667 50.334 104 77.001 166c22.667 70.667 34 144.667 34 222c0 68 -16.667 107.667 -50 119c-1.33301 5.33301 -2 10.666 -2 15.999c0 40 13 60 39 60c3.33301 0 9 -1.33301 17 -4c46 -18 69 -85 69 -201zM1394 1347c0 -32 -28.332 -48 -84.999 -48
c-16 0 -33.333 3.33301 -52 10c-14.667 20 -47.667 40.333 -99 61c-2 1.33301 -31 30.666 -87 87.999c-51.333 52.667 -91 79 -119 79c-6 0 -86.833 -40.667 -242.5 -122s-239.167 -122 -250.5 -122c-16.667 0 -33.834 4.83301 -51.501 14.5s-26.5 18.834 -26.5 27.501
c0 11.333 19 24 57 38c48.667 18.667 75.834 30.167 81.501 34.5l109.5 83.5c14 10 39.333 22 76 36c50 19.333 79 31 87 35c12.667 7.33301 29.5 22 50.5 44s35.5 35 43.5 39c25.333 14 54.666 21 87.999 21c44 0 77.667 -11.667 101 -35l139 -136
c54.667 -52.667 112.667 -94.667 174 -126c4 -4.66699 6 -12 6 -22z" />
    <glyph glyph-name="Udieresis" unicode="&#xdc;" horiz-adv-x="1743" 
d="M1677 1013c0 -35.333 -23.335 -134.668 -70.002 -298.001c-24.667 -86 -60.667 -163.333 -108 -232c-94.667 -136.667 -229.167 -252.667 -403.5 -348s-339.5 -143 -495.5 -143c-62 0 -134.333 23.333 -217 70c-75.333 41.333 -135.333 88 -180 140
c-10 11.333 -29.667 43 -59 95c-9.33301 8.66699 -21 22.667 -35 42c-4.66699 14.667 -9 29.334 -13 44.001c-35.333 108 -53 189.333 -53 244c0 76.667 15.667 159.334 47 248.001c37.333 104.667 85 170.667 143 198c22 10 39.667 15 53 15c8.66699 0 13 -8.66699 13 -26
v0c-2.66699 0 -45.667 -85 -129 -255c-22 -46.667 -33 -110 -33 -190c0 -116 45.333 -230 136 -342c96 -118.667 200.333 -178 313 -178h44c117.333 0 246.333 34 387 102c134.667 64.667 244.667 141 330 229c56.667 57.333 105.334 126.333 146.001 207
c24.667 48.667 50.334 104 77.001 166c22.667 70.667 34 144.667 34 222c0 68 -16.667 107.667 -50 119c-1.33301 5.33301 -2 10.666 -2 15.999c0 40 13 60 39 60c3.33301 0 9 -1.33301 17 -4c46 -18 69 -85 69 -201zM1311 1478
c-10.667 -33.333 -30.667 -62.001 -60 -86.001c-36 -29.333 -70.667 -44 -104 -44h-5c-34 1.33301 -63.333 15 -88 41l-27 32c-10 12 -15 25.667 -15 41c0 3.33301 0.333008 6.33301 1 9c2 16.667 11.167 29.834 27.5 39.501l49.5 28.5c21.333 16 51.666 35.667 90.999 59
l106 -44c2.66699 -11.333 7.33398 -28.333 14.001 -51c1.33301 -4.66699 4 -13 8 -25h2zM825.998 1436c-6.66699 -15.333 -21.333 -34.3359 -44 -57.0029c-11.333 -11.333 -32 -24.666 -62 -39.999h-7c-7.33301 0 -15.333 1.33301 -24 4c-14 4.66699 -24.333 7 -31 7h-10
c-10.667 0 -20.334 -0.333008 -29.001 -1c-13.333 0.666992 -24.666 7.66699 -33.999 21c-4.66699 6.66699 -7 14.334 -7 23.001v10l-1 59l35 64l75 48l107 5c28.667 -26 43 -56.333 43 -91c0 -17.333 -3.66699 -34.666 -11 -51.999z" />
    <glyph glyph-name="germandbls" unicode="&#xdf;" horiz-adv-x="1164" 
d="M1109 398c0 -37.333 -23.0029 -82.333 -69.0029 -135c-36 -41.333 -74.667 -75.666 -116 -102.999c-22 -8.66699 -54.667 -22.667 -98 -42c-23.333 -23.333 -60.666 -54.666 -111.999 -93.999c-94 -61.333 -178.333 -111.666 -253 -150.999h-52
c-18.667 12 -28 25.667 -28 41c0 26 95.333 111.333 286 256c189.333 144.667 284 222.667 284 234c0 51.333 -32 96.666 -96 135.999l-156 92c-180 114 -270 214.333 -270 301c0 30 74.667 120 224 270c150 150.667 225 243 225 277
c0 73.333 -26.833 132.166 -80.5 176.499s-123.5 66.5 -209.5 66.5c-56 0 -114 -9.66699 -174 -29c-73.333 -24 -120 -54.667 -140 -92c-24.667 -47.333 -37 -147 -37 -299c0 -6.66699 1 -30 3 -70c2.66699 -40 4 -63.667 4 -71c0 -23.333 -15.333 -181 -46 -473l-24 -224
c0 -12 8.33301 -58.667 25 -140c15.333 -82 23 -129.333 23 -142c0 -4 -3.66699 -19.5 -11 -46.5s-11 -43.833 -11 -50.5c0 -6 1.66699 -26.167 5 -60.5s5 -54.5 5 -60.5c-4 0 -20.667 -5.66699 -50 -17c-28.667 -12 -46 -18 -52 -18c-14.667 0 -29.667 7.66699 -45 23
c-14.667 15.333 -22 30.333 -22 45l17 50c12 34 18 62 18 84c0 10 -1.83301 39.833 -5.5 89.5s-5.5 78.834 -5.5 87.501v358c0 10 2.83301 24.5 8.5 43.5s9.83398 31.167 12.501 36.5c20 135.333 30 314.666 30 537.999c0 166.667 12.667 295.667 38 387
c14.667 53.333 83.334 101 206.001 143c104 35.333 192 53 264 53h-2c0 -2 47.667 -16 143 -42c63.333 -18 120.333 -60 171 -126s76 -132 76 -198c0 -104.667 -38 -198.334 -114 -281.001c-35.333 -38 -105.333 -94.667 -210 -170c-75.333 -54 -113 -99 -113 -135
c0 -20.667 31 -51.667 93 -93l63 -46c65.333 -39.333 146 -90.666 242 -153.999c22 -14.667 50 -50.334 84 -107.001c34.667 -56 52 -95.333 52 -118z" />
    <glyph glyph-name="agrave" unicode="&#xe0;" 
d="M999 3c-14 -19.333 -29.3311 -29.0029 -45.998 -29.0029c-10.667 0 -46.667 32 -108 96c-61.333 64.667 -102.333 97 -123 97v0c0 -1.33301 -72.667 -29.333 -218 -84c-148.667 -55.333 -243.334 -83 -284.001 -83c-33.333 0 -70.333 16.333 -111 49
s-61 63.334 -61 92.001c0 74 81 160.333 243 259c152 93.333 268 140 348 140c33.333 0 63.333 -19 90 -57v-43c-13.333 -19.333 -28.666 -29 -45.999 -29c-3.33301 0 -14.833 4.33301 -34.5 13s-31.5 13 -35.5 13c-26.667 0 -87.667 -27.333 -183 -82
c-90.667 -51.333 -151.334 -89.666 -182.001 -114.999c-30.667 -26.667 -50.334 -57 -59.001 -91c23.333 -22 51 -33 83 -33c16.667 0 97 27.667 241 83c143.333 56 230 84 260 84c44 0 75.667 -11 95 -33c4.66699 -5.33301 21.667 -35.333 51 -90
c22 -41.333 48.667 -78.666 80 -111.999v-45zM871.002 663.997c0 -7.33301 -6.99902 -17.667 -20.999 -31c-23.333 -22 -47 -33 -71 -33c-14 0 -41.333 10.333 -82 31l-86 42c-55.333 28 -117.333 68.333 -186 121c-74.667 57.333 -139.667 93.666 -195 108.999
c-29.333 36.667 -44 65.334 -44 86.001c0 20 2.66699 32.333 8 37c4 3.33301 17 5 39 5c35.333 0 88.666 -20.667 159.999 -62c170 -100.667 326 -198 468 -292z" />
    <glyph glyph-name="aacute" unicode="&#xe1;" 
d="M999 3c-14 -19.333 -29.3311 -29.0029 -45.998 -29.0029c-10.667 0 -46.667 32 -108 96c-61.333 64.667 -102.333 97 -123 97v0c0 -1.33301 -72.667 -29.333 -218 -84c-148.667 -55.333 -243.334 -83 -284.001 -83c-33.333 0 -70.333 16.333 -111 49
s-61 63.334 -61 92.001c0 74 81 160.333 243 259c152 93.333 268 140 348 140c33.333 0 63.333 -19 90 -57v-43c-13.333 -19.333 -28.666 -29 -45.999 -29c-3.33301 0 -14.833 4.33301 -34.5 13s-31.5 13 -35.5 13c-26.667 0 -87.667 -27.333 -183 -82
c-90.667 -51.333 -151.334 -89.666 -182.001 -114.999c-30.667 -26.667 -50.334 -57 -59.001 -91c23.333 -22 51 -33 83 -33c16.667 0 97 27.667 241 83c143.333 56 230 84 260 84c44 0 75.667 -11 95 -33c4.66699 -5.33301 21.667 -35.333 51 -90
c22 -41.333 48.667 -78.666 80 -111.999v-45zM978.002 1006c0 -3.33301 -38.334 -26.999 -115.001 -70.999c-26.667 -15.333 -86 -47.333 -178 -96l-190 -102l-48 -37c-110.667 -83.333 -186.667 -125 -228 -125c-38.667 0 -58 13.333 -58 40c0 30.667 18.667 55.5 56 74.5
l169 82.5c38 29.333 97.667 69.666 179 120.999l126 60l74 50l77 42c10.667 1.33301 36.334 10 77.001 26c39.333 -24 59 -45.667 59 -65z" />
    <glyph glyph-name="acircumflex" unicode="&#xe2;" 
d="M999 3c-14 -19.333 -29.3311 -29.0029 -45.998 -29.0029c-10.667 0 -46.667 32 -108 96c-61.333 64.667 -102.333 97 -123 97v0c0 -1.33301 -72.667 -29.333 -218 -84c-148.667 -55.333 -243.334 -83 -284.001 -83c-33.333 0 -70.333 16.333 -111 49
s-61 63.334 -61 92.001c0 74 81 160.333 243 259c152 93.333 268 140 348 140c33.333 0 63.333 -19 90 -57v-43c-13.333 -19.333 -28.666 -29 -45.999 -29c-3.33301 0 -14.833 4.33301 -34.5 13s-31.5 13 -35.5 13c-26.667 0 -87.667 -27.333 -183 -82
c-90.667 -51.333 -151.334 -89.666 -182.001 -114.999c-30.667 -26.667 -50.334 -57 -59.001 -91c23.333 -22 51 -33 83 -33c16.667 0 97 27.667 241 83c143.333 56 230 84 260 84c44 0 75.667 -11 95 -33c4.66699 -5.33301 21.667 -35.333 51 -90
c22 -41.333 48.667 -78.666 80 -111.999v-45zM951.002 628.997c0 -32 -22.666 -48.001 -67.999 -48.001c-12 0 -25.333 3.33301 -40 10c-12 20 -38 40.667 -78 62c-1.33301 1.33301 -24 31 -68 89c-40 53.333 -71 80 -93 80c-4.66699 0 -68 -41.333 -190 -124
c-122 -82 -187.667 -123 -197 -123c-12.667 0 -26 4.83301 -40 14.5s-21 18.834 -21 27.501c0 11.333 15 24.333 45 39c38 19.333 59.167 30.833 63.5 34.5s32.833 31.834 85.5 84.501c10.667 10.667 30.667 23 60 37c39.333 19.333 62 31 68 35
c10 7.33301 23.167 22.166 39.5 44.499s27.833 35.833 34.5 40.5c19.333 13.333 42.333 20 69 20c34.667 0 61 -11.333 79 -34c19.333 -26 55.666 -72 108.999 -138c43.333 -54 89 -97 137 -129c3.33301 -4 5 -11.333 5 -22z" />
    <glyph glyph-name="atilde" unicode="&#xe3;" 
d="M999 3c-14 -19.333 -29.3311 -29.0029 -45.998 -29.0029c-10.667 0 -46.667 32 -108 96c-61.333 64.667 -102.333 97 -123 97v0c0 -1.33301 -72.667 -29.333 -218 -84c-148.667 -55.333 -243.334 -83 -284.001 -83c-33.333 0 -70.333 16.333 -111 49
s-61 63.334 -61 92.001c0 74 81 160.333 243 259c152 93.333 268 140 348 140c33.333 0 63.333 -19 90 -57v-43c-13.333 -19.333 -28.666 -29 -45.999 -29c-3.33301 0 -14.833 4.33301 -34.5 13s-31.5 13 -35.5 13c-26.667 0 -87.667 -27.333 -183 -82
c-90.667 -51.333 -151.334 -89.666 -182.001 -114.999c-30.667 -26.667 -50.334 -57 -59.001 -91c23.333 -22 51 -33 83 -33c16.667 0 97 27.667 241 83c143.333 56 230 84 260 84c44 0 75.667 -11 95 -33c4.66699 -5.33301 21.667 -35.333 51 -90
c22 -41.333 48.667 -78.666 80 -111.999v-45zM944.002 838.997c0 -28 -26.666 -65.332 -79.999 -111.999c-42.667 -36.667 -81.334 -63.334 -116.001 -80.001c-41.333 -20.667 -90.666 -31 -147.999 -31v0c0 2 -33 31.333 -99 88c-68.667 57.333 -115 86 -139 86
c-22 0 -59.5 -27.333 -112.5 -82s-79.833 -82 -80.5 -82c-9.33301 0 -19 5.66699 -29 17c-9.33301 11.333 -14 22.333 -14 33c0 32 32.333 80.333 97 145c64.667 63.333 112 95 142 95c3.33301 0 51.666 -30 144.999 -90c93.333 -61.333 141.333 -92 144 -92
c21.333 0 32.666 0.666992 33.999 2c7.33301 4.66699 18.666 9 33.999 13c4.66699 0 10.334 2.66699 17.001 8c8.66699 6.66699 18.334 11.667 29.001 15c2 1.33301 25.333 23 70 65c36.667 34 58.667 51 66 51c26.667 0 40 -16.333 40 -49z" />
    <glyph glyph-name="adieresis" unicode="&#xe4;" 
d="M999 3c-14 -19.333 -29.3311 -29.0029 -45.998 -29.0029c-10.667 0 -46.667 32 -108 96c-61.333 64.667 -102.333 97 -123 97v0c0 -1.33301 -72.667 -29.333 -218 -84c-148.667 -55.333 -243.334 -83 -284.001 -83c-33.333 0 -70.333 16.333 -111 49
s-61 63.334 -61 92.001c0 74 81 160.333 243 259c152 93.333 268 140 348 140c33.333 0 63.333 -19 90 -57v-43c-13.333 -19.333 -28.666 -29 -45.999 -29c-3.33301 0 -14.833 4.33301 -34.5 13s-31.5 13 -35.5 13c-26.667 0 -87.667 -27.333 -183 -82
c-90.667 -51.333 -151.334 -89.666 -182.001 -114.999c-30.667 -26.667 -50.334 -57 -59.001 -91c23.333 -22 51 -33 83 -33c16.667 0 97 27.667 241 83c143.333 56 230 84 260 84c44 0 75.667 -11 95 -33c4.66699 -5.33301 21.667 -35.333 51 -90
c22 -41.333 48.667 -78.666 80 -111.999v-45zM937.002 770.997c-11.333 -32.667 -31.665 -61 -60.998 -85c-35.333 -29.333 -69.333 -44 -102 -44h-6c-35.333 2 -65 15.667 -89 41l-27 32c-9.33301 12 -14 25.667 -14 41v9c1.33301 16 10.666 29.333 27.999 40l49 28
c21.333 16 51.666 35.667 90.999 59l106 -44c2 -12 6.66699 -29 14 -51c1.33301 -5.33301 4.33301 -14 9 -26h2zM407.003 672.997c-11.333 -11.333 -31.667 -24.6641 -61 -39.9971h-8c-7.33301 0 -15 1.33301 -23 4c-14.667 4 -25.334 6.33301 -32.001 7h-10
c-10 0 -19.667 -0.333008 -29 -1c-13.333 0 -24.666 6.66699 -33.999 20c-5.33301 7.33301 -8 15.666 -8 24.999c0 2.66699 0.333008 5.66699 1 9l-1 59l36 64l74 48l107 5c28.667 -26.667 43 -57.334 43 -92.001c0 -16.667 -3.5 -33.334 -10.5 -50.001
s-21.833 -36 -44.5 -58z" />
    <glyph glyph-name="aring" unicode="&#xe5;" 
d="M999 3c-14 -19.333 -29.3311 -29.0029 -45.998 -29.0029c-10.667 0 -46.667 32 -108 96c-61.333 64.667 -102.333 97 -123 97v0c0 -1.33301 -72.667 -29.333 -218 -84c-148.667 -55.333 -243.334 -83 -284.001 -83c-33.333 0 -70.333 16.333 -111 49
s-61 63.334 -61 92.001c0 74 81 160.333 243 259c152 93.333 268 140 348 140c33.333 0 63.333 -19 90 -57v-43c-13.333 -19.333 -28.666 -29 -45.999 -29c-3.33301 0 -14.833 4.33301 -34.5 13s-31.5 13 -35.5 13c-26.667 0 -87.667 -27.333 -183 -82
c-90.667 -51.333 -151.334 -89.666 -182.001 -114.999c-30.667 -26.667 -50.334 -57 -59.001 -91c23.333 -22 51 -33 83 -33c16.667 0 97 27.667 241 83c143.333 56 230 84 260 84c44 0 75.667 -11 95 -33c4.66699 -5.33301 21.667 -35.333 51 -90
c22 -41.333 48.667 -78.666 80 -111.999v-45zM765.002 797.997c0 -6 -6.66895 -18 -20.002 -36c-8.66699 -10 -17 -20.333 -25 -31c-4 -11.333 -11.333 -27.333 -22 -48c-20 -28.667 -48 -53.334 -84 -74.001c-36 -22 -69 -33 -99 -33
c-47.333 0 -85.666 7.33301 -114.999 22c-23.333 12 -48.666 38.167 -75.999 78.5s-41 72.833 -41 97.5c0 52 28.5 110.667 85.5 176s108.833 98 155.5 98c54.667 0 105.667 -11 153 -33c7.33301 -5.33301 32.333 -24.666 75 -57.999zM642 829.997
c0 38.667 -11 62.334 -33 71.001c-10 3.33301 -39 5 -87 5c-24.667 0 -51.5 -14.167 -80.5 -42.5s-43.5 -54.833 -43.5 -79.5c0 -14 12.667 -30.333 38 -49c25.333 -18 47 -27 65 -27c36 0 68.667 12.333 98 37c28.667 25.333 43 53.666 43 84.999z" />
    <glyph glyph-name="ae" unicode="&#xe6;" horiz-adv-x="1592" 
d="M1550 61c-139.333 -43.333 -240.331 -65 -302.998 -65c-27.333 0 -75.333 8 -144 24c-68 16.667 -114.667 31.334 -140 44.001c-14 7.33301 -43 30 -87 68c-42 36.667 -69.667 55 -83 55c0.666992 0 1 -0.333008 1 -1c0 -5.33301 -45.333 -39 -136 -101
c-99.333 -68.667 -159.333 -103 -180 -103h-85c-68 0 -123.333 19.333 -166 58c-42.667 39.333 -64 91 -64 155s30.667 117.333 92 160c23.333 15.333 89 44.666 197 87.999c104.667 42 167 71.333 187 88c-30 46.667 -71.667 85 -125 115c-98 55.333 -161.667 83 -191 83
c-24.667 0 -110.334 -30 -257.001 -90c-39.333 16 -59 41.333 -59 76c0 42 19 70.667 57 86c20 7.33301 68.833 20.5 146.5 39.5s123.834 28.5 138.501 28.5c58.667 0 187 -64.333 385 -193c16 16.667 45 57.334 87 122.001c32.667 51.333 67 86 103 104
c76 38 171 57 285 57c47.333 0 93.333 -39.333 138 -118c40.667 -71.333 61 -132.666 61 -183.999c0 -62.667 -41 -117.334 -123 -164.001c-50.667 -28.667 -131.334 -58.334 -242.001 -89.001c-96.667 -27.333 -150 -46.333 -160 -57c12 -30 57.167 -70.5 135.5 -121.5
s134.166 -76.5 167.499 -76.5h322l42 -42v-46zM1280 654c-13.333 68.667 -21.001 104.668 -23.001 108.001c-14 38 -43 57 -87 57c-3.33301 0 -25.666 -4.33301 -66.999 -13c-38.667 -7.33301 -63.334 -11 -74.001 -11h-1c-18 -11.333 -48.333 -44.333 -91 -99
c-44.667 -56.667 -67 -91.334 -67 -104.001v-69h69c34.667 0 95.334 15.667 182.001 47c92.667 33.333 145.667 61.333 159 84zM663.001 283.001v58h-55c-21.333 0 -72 -16.333 -152 -49c-74.667 -30 -125 -53.333 -151 -70v-56c29.333 -19.333 65.333 -29 108 -29
c60.667 0 109 11 145 33c32 19.333 67 57 105 113z" />
    <glyph glyph-name="ccedilla" unicode="&#xe7;" horiz-adv-x="1045" 
d="M1006 142c-39.333 -24 -79.668 -40.3311 -121.001 -48.998c-65.333 -13.333 -160.333 -29.666 -285 -48.999c-82 -13.333 -131.333 -20 -148 -20c-84 0 -167.667 17 -251 51c-106 42.667 -159 99 -159 169c0 79.333 57 150 171 212c166 90 270 135 312 135l127 -13h-1
c-8.66699 0 -13.667 -8 -15 -24c-2.66699 -22 -4.66699 -33.667 -6 -35c-65.333 -20.667 -149.333 -57.334 -252 -110.001c-130 -66.667 -195 -117.334 -195 -152.001c0 -64.667 81.333 -106.334 244 -125.001c28.667 -2.66699 47.334 -4 56.001 -4h3l502 76l18 -15v-47z
M716.998 -326.998c0 -94 -76.335 -146.663 -229.002 -157.996c-17.333 -0.666992 -50.666 -2.66699 -99.999 -6c-23.333 -2.66699 -42.666 -5.33398 -57.999 -8.00098c-10 -2.66699 -15 -4.33398 -15 -5.00098h4c-16 0 -40 -1.66699 -72 -5
c-34 -3.33301 -57.667 -5.33301 -71 -6l-18 12v58c0 3.33301 2.66699 12.666 8 27.999c6 14.667 9 23.334 9 26.001l19 -15c4.66699 0 27.667 -3 69 -9c36 -5.33301 61.667 -8 77 -8c34.667 0 86.667 8.66699 156 26c82 20 123 41 123 63
c0 33.333 -15.333 59.666 -46 78.999c-16.667 10 -48.667 22 -96 36c-40.667 12 -66.334 23 -77.001 33c0 11.333 0.666992 28.333 2 51c2.66699 17.333 20.334 55 53.001 113s55 87 67 87c22 0 33 -12 33 -36c0 -11.333 -7 -34.333 -21 -69
c-16.667 -39.333 -26 -65.333 -28 -78c14 -10 42.667 -20.667 86 -32c14 -3.33301 29.667 -13.333 47 -30c22.667 -20.667 36.667 -33 42 -37c24 -58.667 36 -95.334 36 -110.001z" />
    <glyph glyph-name="egrave" unicode="&#xe8;" horiz-adv-x="1053" 
d="M1025 53c-24.667 -29.333 -56.666 -44.002 -95.999 -44.002h-354c-82 0 -173.333 12.333 -274 37c-132 32 -206.667 72.333 -224 121c-19.333 54.667 -29 107 -29 157c0 100.667 43.333 178 130 232c73.333 46.667 162.666 70 267.999 70
c90.667 0 162.667 -19.5 216 -58.5s80 -92.167 80 -159.5c0 -37.333 -64 -78.333 -192 -123c-106 -38 -183 -57 -231 -57c-6 0 -11.333 0.333008 -16 1c0 -9.33301 -7.33301 -20.666 -22 -33.999c8 -13.333 47 -28.666 117 -45.999c62.667 -16 107.334 -24 134.001 -24h318
v0c0 -0.666992 40 -6.66699 120 -18c25.333 -16 43.666 -34 54.999 -54zM613.001 451.998c-37.333 38 -97.333 57 -180 57c-58 0 -111.667 -11.333 -161 -34c-64 -29.333 -96 -69 -96 -119c0 -18 6 -30.667 18 -38h64c22.667 0 84 19 184 57s157 63.667 171 77z
M739.001 737.998c0 -7.33301 -6.99902 -17.667 -20.999 -31c-23.333 -22 -47 -33 -71 -33c-14 0 -41.333 10.333 -82 31l-86 42c-55.333 28 -117.333 68.333 -186 121c-74.667 57.333 -139.667 93.666 -195 108.999c-29.333 36.667 -44 65.334 -44 86.001
c0 20 2.66699 32.333 8 37c4 3.33301 17 5 39 5c35.333 0 88.666 -20.667 159.999 -62c170 -100.667 326 -198 468 -292z" />
    <glyph glyph-name="eacute" unicode="&#xe9;" horiz-adv-x="1053" 
d="M1025 53c-24.667 -29.333 -56.666 -44.002 -95.999 -44.002h-354c-82 0 -173.333 12.333 -274 37c-132 32 -206.667 72.333 -224 121c-19.333 54.667 -29 107 -29 157c0 100.667 43.333 178 130 232c73.333 46.667 162.666 70 267.999 70
c90.667 0 162.667 -19.5 216 -58.5s80 -92.167 80 -159.5c0 -37.333 -64 -78.333 -192 -123c-106 -38 -183 -57 -231 -57c-6 0 -11.333 0.333008 -16 1c0 -9.33301 -7.33301 -20.666 -22 -33.999c8 -13.333 47 -28.666 117 -45.999c62.667 -16 107.334 -24 134.001 -24h318
v0c0 -0.666992 40 -6.66699 120 -18c25.333 -16 43.666 -34 54.999 -54zM613.001 451.998c-37.333 38 -97.333 57 -180 57c-58 0 -111.667 -11.333 -161 -34c-64 -29.333 -96 -69 -96 -119c0 -18 6 -30.667 18 -38h64c22.667 0 84 19 184 57s157 63.667 171 77z
M820.001 1058c0 -3.33301 -38.334 -26.999 -115.001 -70.999c-26.667 -15.333 -86 -47.333 -178 -96l-190 -102l-48 -37c-110.667 -83.333 -186.667 -125 -228 -125c-38.667 0 -58 13.333 -58 40c0 30.667 18.667 55.5 56 74.5l169 82.5
c38 29.333 97.667 69.666 179 120.999l126 60l74 50l77 42c10.667 1.33301 36.334 10 77.001 26c39.333 -24 59 -45.667 59 -65z" />
    <glyph glyph-name="ecircumflex" unicode="&#xea;" horiz-adv-x="1053" 
d="M1025 53c-24.667 -29.333 -56.666 -44.002 -95.999 -44.002h-354c-82 0 -173.333 12.333 -274 37c-132 32 -206.667 72.333 -224 121c-19.333 54.667 -29 107 -29 157c0 100.667 43.333 178 130 232c73.333 46.667 162.666 70 267.999 70
c90.667 0 162.667 -19.5 216 -58.5s80 -92.167 80 -159.5c0 -37.333 -64 -78.333 -192 -123c-106 -38 -183 -57 -231 -57c-6 0 -11.333 0.333008 -16 1c0 -9.33301 -7.33301 -20.666 -22 -33.999c8 -13.333 47 -28.666 117 -45.999c62.667 -16 107.334 -24 134.001 -24h318
v0c0 -0.666992 40 -6.66699 120 -18c25.333 -16 43.666 -34 54.999 -54zM613.001 451.998c-37.333 38 -97.333 57 -180 57c-58 0 -111.667 -11.333 -161 -34c-64 -29.333 -96 -69 -96 -119c0 -18 6 -30.667 18 -38h64c22.667 0 84 19 184 57s157 63.667 171 77z
M786.001 669.998c0 -32 -22.334 -48 -67.001 -48c-12 0 -25.333 3.33301 -40 10c-11.333 20 -37.333 40.667 -78 62c-1.33301 1.33301 -24 31 -68 89c-40 53.333 -71 80 -93 80c-4.66699 0 -68 -41.333 -190 -124c-121.333 -82 -186.666 -123 -195.999 -123
c-12.667 0 -26.167 4.83301 -40.5 14.5s-21.5 18.834 -21.5 27.501c0 11.333 15 24.333 45 39c38.667 19.333 60 31 64 35c4.66699 3.33301 33.334 31.333 86.001 84c10.667 10.667 30.667 23 60 37c39.333 19.333 61.666 31 66.999 35
c10.667 7.33301 24.167 22.166 40.5 44.499s27.5 35.833 33.5 40.5c20 13.333 43 20 69 20c34.667 0 61 -11.333 79 -34l109 -139c43.333 -53.333 89 -96 137 -128c2.66699 -4 4 -11.333 4 -22z" />
    <glyph glyph-name="edieresis" unicode="&#xeb;" horiz-adv-x="1053" 
d="M1025 53c-24.667 -29.333 -56.666 -44.002 -95.999 -44.002h-354c-82 0 -173.333 12.333 -274 37c-132 32 -206.667 72.333 -224 121c-19.333 54.667 -29 107 -29 157c0 100.667 43.333 178 130 232c73.333 46.667 162.666 70 267.999 70
c90.667 0 162.667 -19.5 216 -58.5s80 -92.167 80 -159.5c0 -37.333 -64 -78.333 -192 -123c-106 -38 -183 -57 -231 -57c-6 0 -11.333 0.333008 -16 1c0 -9.33301 -7.33301 -20.666 -22 -33.999c8 -13.333 47 -28.666 117 -45.999c62.667 -16 107.334 -24 134.001 -24h318
v0c0 -0.666992 40 -6.66699 120 -18c25.333 -16 43.666 -34 54.999 -54zM613.001 451.998c-37.333 38 -97.333 57 -180 57c-58 0 -111.667 -11.333 -161 -34c-64 -29.333 -96 -69 -96 -119c0 -18 6 -30.667 18 -38h64c22.667 0 84 19 184 57s157 63.667 171 77z
M826.001 876.998c-11.333 -32.667 -31.665 -61 -60.998 -85c-35.333 -29.333 -69.333 -44 -102 -44h-6c-35.333 2 -65 15.667 -89 41l-27 32c-9.33301 12 -14 25.667 -14 41v9c1.33301 16 10.666 29.333 27.999 40l49 28c21.333 16 51.666 35.667 90.999 59l106 -44
c2 -12 6.66699 -29 14 -51c1.33301 -5.33301 4.33301 -14 9 -26h2zM296.002 778.998c-11.333 -11.333 -31.667 -24.6641 -61 -39.9971h-8c-7.33301 0 -15 1.33301 -23 4c-14.667 4 -25.334 6.33301 -32.001 7h-10c-10 0 -19.667 -0.333008 -29 -1
c-13.333 0 -24.666 6.66699 -33.999 20c-5.33301 7.33301 -8 15.666 -8 24.999c0 2.66699 0.333008 5.66699 1 9l-1 59l36 64l74 48l107 5c28.667 -26.667 43 -57.334 43 -92.001c0 -16.667 -3.5 -33.334 -10.5 -50.001s-21.833 -36 -44.5 -58z" />
    <glyph glyph-name="igrave" unicode="&#xec;" horiz-adv-x="742" 
d="M390 616c6 -22.667 10.6689 -107.334 14.002 -254.001c1.33301 -63.333 2 -116 2 -158c0 -49.333 -1 -84.333 -3 -105c-0.666992 -10 -11.667 -49.667 -33 -119c-28 8.66699 -69.333 20.334 -124 35.001c-4 68.667 -6 135.667 -6 201c0 48.667 1 96.667 3 144
c8 186.667 29.333 284.667 64 294c5.33301 1.33301 9.66602 2 12.999 2c39.333 0 62.666 -13.333 69.999 -40zM719.002 695c0 -7.33301 -6.99902 -17.667 -20.999 -31c-23.333 -22 -47 -33 -71 -33c-14 0 -41.333 10.333 -82 31l-86 42c-55.333 28 -117.333 68.333 -186 121
c-74.667 57.333 -139.667 93.666 -195 108.999c-29.333 36.667 -44 65.334 -44 86.001c0 20 2.66699 32.333 8 37c4 3.33301 17 5 39 5c35.333 0 88.666 -20.667 159.999 -62c170 -100.667 326 -198 468 -292z" />
    <glyph glyph-name="iacute" unicode="&#xed;" horiz-adv-x="874" 
d="M518 616c6 -22.667 10.6689 -107.334 14.002 -254.001c1.33301 -63.333 2 -116 2 -158c0 -49.333 -1 -84.333 -3 -105c-0.666992 -10 -11.667 -49.667 -33 -119c-28 8.66699 -69.333 20.334 -124 35.001c-4 68.667 -6 135.667 -6 201c0 48.667 1 96.667 3 144
c8 186.667 29.333 284.667 64 294c5.33301 1.33301 9.66602 2 12.999 2c39.333 0 62.666 -13.333 69.999 -40zM847.002 1051c0 -3.33301 -38.334 -26.999 -115.001 -70.999c-26.667 -15.333 -86 -47.333 -178 -96l-190 -102l-48 -37
c-110.667 -83.333 -186.667 -125 -228 -125c-38.667 0 -58 13.333 -58 40c0 30.667 18.667 55.5 56 74.5l169 82.5c38 29.333 97.667 69.666 179 120.999l126 60l74 50l77 42c10.667 1.33301 36.334 10 77.001 26c39.333 -24 59 -45.667 59 -65z" />
    <glyph glyph-name="icircumflex" unicode="&#xee;" horiz-adv-x="860" 
d="M496 616c6.66699 -22.667 11.667 -107.334 15 -254.001c1.33301 -58.667 2 -108 2 -148c0 -54.667 -1.33301 -93 -4 -115c-0.666992 -10 -11.667 -49.667 -33 -119c-28 8.66699 -69.333 20.334 -124 35.001c-3.33301 68.667 -5 135.667 -5 201c0 48.667 1 96.667 3 144
c7.33301 186.667 28.333 284.667 63 294c6 1.33301 10.333 2 13 2c40 0 63.333 -13.333 70 -40zM806 692c0 -32.667 -22.6689 -49.001 -68.002 -49.001c-12 0 -25.333 3 -40 9c-11.333 20.667 -37.333 41.667 -78 63c-1.33301 0.666992 -24 30.334 -68 89.001
c-40 53.333 -71 80 -93 80c-4.66699 0 -68 -41.333 -190 -124c-122 -82 -187.333 -123 -196 -123c-13.333 0 -27 5 -41 15c-13.333 9.33301 -20 18.666 -20 27.999c0 10.667 14.667 23.334 44 38.001c38.667 19.333 60 31 64 35c4.66699 4 33.334 32 86.001 84
c10.667 10 30.334 22.333 59.001 37c39.333 20 62 31.667 68 35c10.667 7.33301 24 22.333 40 45c16.667 22 28 35 34 39c20 14 42.667 21 68 21c35.333 0 62 -11.333 80 -34l109 -138c43.333 -54 89 -96.667 137 -128c3.33301 -4.66699 5 -12 5 -22z" />
    <glyph glyph-name="idieresis" unicode="&#xef;" horiz-adv-x="770" 
d="M402 616c6 -22.667 10.6689 -107.334 14.002 -254.001c1.33301 -63.333 2 -116 2 -158c0 -49.333 -1 -84.333 -3 -105c-0.666992 -10 -11.667 -49.667 -33 -119c-28 8.66699 -69.333 20.334 -124 35.001c-4 68.667 -6 135.667 -6 201c0 48.667 1 96.667 3 144
c8 186.667 29.333 284.667 64 294c5.33301 1.33301 9.66602 2 12.999 2c39.333 0 62.666 -13.333 69.999 -40zM750.002 918c-11.333 -32.667 -31.665 -61 -60.998 -85c-35.333 -29.333 -69.333 -44 -102 -44h-6c-35.333 2 -65 15.667 -89 41l-27 32
c-9.33301 12 -14 25.667 -14 41v9c1.33301 16 10.666 29.333 27.999 40l49 28c21.333 16 51.666 35.667 90.999 59l106 -44c2 -12 6.66699 -29 14 -51c1.33301 -5.33301 4.33301 -14 9 -26h2zM220.003 820c-11.333 -11.333 -31.667 -24.6641 -61 -39.9971h-8
c-7.33301 0 -15 1.33301 -23 4c-14.667 4 -25.334 6.33301 -32.001 7h-10c-10 0 -19.667 -0.333008 -29 -1c-13.333 0 -24.666 6.66699 -33.999 20c-5.33301 7.33301 -8 15.666 -8 24.999c0 2.66699 0.333008 5.66699 1 9l-1 59l36 64l74 48l107 5
c28.667 -26.667 43 -57.334 43 -92.001c0 -16.667 -3.5 -33.334 -10.5 -50.001s-21.833 -36 -44.5 -58z" />
    <glyph glyph-name="ntilde" unicode="&#xf1;" horiz-adv-x="1041" 
d="M940 540c0 -14 -7.00293 -93.668 -21.0029 -239.001c-12 -120.667 -26.667 -252 -44 -394c-1.33301 -10.667 -12 -16 -32 -16c-26 0 -47.333 32.667 -64 98c-12.667 50 -19 94.333 -19 133c0 14.667 8.5 67.334 25.5 158.001s25.5 143 25.5 157
c0 39.333 -10.667 59 -32 59c-27.333 0 -85.666 -23.667 -174.999 -71c-77.333 -41.333 -133.666 -75 -168.999 -101c-67.333 -49.333 -143.666 -123.666 -228.999 -222.999l-82 -92c-16 -16.667 -47.667 -25.334 -95 -26.001v67c0 31.333 61.333 100.333 184 207
c98 85.333 200.667 162.666 308 231.999c150.667 98 262.667 147 336 147c19.333 0 38 -10.667 56 -32s27 -42.666 27 -63.999zM1261 939.999c0 -28 -26.335 -64.999 -79.002 -110.999c-43.333 -37.333 -82.333 -64.666 -117 -81.999c-41.333 -20 -90.666 -30 -147.999 -30
v0c0 1.33301 -33 30.333 -99 87c-68.667 58 -115 87 -139 87c-22 0 -59.5 -27.333 -112.5 -82s-79.833 -82 -80.5 -82c-9.33301 0 -18.833 5.5 -28.5 16.5s-14.5 22.167 -14.5 33.5c0 32 32.333 80 97 144c64.667 64.667 112.334 97 143.001 97
c2.66699 0 50.667 -30.5 144 -91.5s141.333 -91.5 144 -91.5c21.333 0 33 0.666992 35 2c6.66699 5.33301 17.667 9.66602 33 12.999h2c4 0 9 2.33301 15 7c8.66699 7.33301 18.667 12.666 30 15.999c1.33301 1.33301 24.333 23 69 65c36.667 34.667 58.667 52 66 52
c26.667 0 40 -16.667 40 -50z" />
    <glyph glyph-name="ograve" unicode="&#xf2;" horiz-adv-x="1243" 
d="M1166 365c0 -71.333 -15.001 -132.332 -45.001 -182.999c-27.333 -46 -124.333 -91.333 -291 -136c-148.667 -40 -261.667 -60 -339 -60c-90.667 0 -180.334 21.667 -269.001 65c-107.333 53.333 -161 119.666 -161 198.999c0 35.333 20.333 71.333 61 108
c36 26 90.333 75 163 147c48 58.667 136 106 264 142c108 30.667 209 46 303 46c25.333 0 63.333 -11 114 -33c50.667 -23.333 85.334 -44.666 104.001 -63.999c18.667 -20.667 39.334 -57.834 62.001 -111.501s34 -93.5 34 -119.5zM1064 373.001
c0 49.333 -29.667 96.335 -89 141.002c-54.667 42 -108.667 63 -162 63c-10 0 -87.667 -14.333 -233 -43c-56 -11.333 -107 -33 -153 -65c-157.333 -112 -236 -189.333 -236 -232c0 -36 43 -68.667 129 -98c73.333 -25.333 133 -38 179 -38c68.667 0 165 14 289 42
c113.333 25.333 194 63.666 242 114.999c22.667 23.333 34 61.666 34 114.999zM972.999 822.003c0 -7.33301 -6.99902 -17.667 -20.999 -31c-23.333 -22 -47 -33 -71 -33c-14 0 -41.333 10.333 -82 31l-86 42c-55.333 28 -117.333 68.333 -186 121
c-74.667 57.333 -139.667 93.666 -195 108.999c-29.333 36.667 -44 65.334 -44 86.001c0 20 2.66699 32.333 8 37c4 3.33301 17 5 39 5c35.333 0 88.666 -20.667 159.999 -62c170 -100.667 326 -198 468 -292z" />
    <glyph glyph-name="oacute" unicode="&#xf3;" horiz-adv-x="1243" 
d="M1166 365c0 -71.333 -15.001 -132.332 -45.001 -182.999c-27.333 -46 -124.333 -91.333 -291 -136c-148.667 -40 -261.667 -60 -339 -60c-90.667 0 -180.334 21.667 -269.001 65c-107.333 53.333 -161 119.666 -161 198.999c0 35.333 20.333 71.333 61 108
c36 26 90.333 75 163 147c48 58.667 136 106 264 142c108 30.667 209 46 303 46c25.333 0 63.333 -11 114 -33c50.667 -23.333 85.334 -44.666 104.001 -63.999c18.667 -20.667 39.334 -57.834 62.001 -111.501s34 -93.5 34 -119.5zM1064 373.001
c0 49.333 -29.667 96.335 -89 141.002c-54.667 42 -108.667 63 -162 63c-10 0 -87.667 -14.333 -233 -43c-56 -11.333 -107 -33 -153 -65c-157.333 -112 -236 -189.333 -236 -232c0 -36 43 -68.667 129 -98c73.333 -25.333 133 -38 179 -38c68.667 0 165 14 289 42
c113.333 25.333 194 63.666 242 114.999c22.667 23.333 34 61.666 34 114.999zM1025 1080c0 -3.33301 -38.334 -26.999 -115.001 -70.999c-26.667 -15.333 -86 -47.333 -178 -96l-190 -102l-48 -37c-110.667 -83.333 -186.667 -125 -228 -125c-38.667 0 -58 13.333 -58 40
c0 30.667 18.667 55.5 56 74.5l169 82.5c38 29.333 97.667 69.666 179 120.999l126 60l74 50l77 42c10.667 1.33301 36.334 10 77.001 26c39.333 -24 59 -45.667 59 -65z" />
    <glyph glyph-name="ocircumflex" unicode="&#xf4;" horiz-adv-x="1243" 
d="M1166 365c0 -71.333 -15.001 -132.332 -45.001 -182.999c-27.333 -46 -124.333 -91.333 -291 -136c-148.667 -40 -261.667 -60 -339 -60c-90.667 0 -180.334 21.667 -269.001 65c-107.333 53.333 -161 119.666 -161 198.999c0 35.333 20.333 71.333 61 108
c36 26 90.333 75 163 147c48 58.667 136 106 264 142c108 30.667 209 46 303 46c25.333 0 63.333 -11 114 -33c50.667 -23.333 85.334 -44.666 104.001 -63.999c18.667 -20.667 39.334 -57.834 62.001 -111.501s34 -93.5 34 -119.5zM1064 373.001
c0 49.333 -29.667 96.335 -89 141.002c-54.667 42 -108.667 63 -162 63c-10 0 -87.667 -14.333 -233 -43c-56 -11.333 -107 -33 -153 -65c-157.333 -112 -236 -189.333 -236 -232c0 -36 43 -68.667 129 -98c73.333 -25.333 133 -38 179 -38c68.667 0 165 14 289 42
c113.333 25.333 194 63.666 242 114.999c22.667 23.333 34 61.666 34 114.999zM1101 795.003c0 -32.667 -22.332 -49.001 -66.999 -49.001c-12.667 0 -26.334 3 -41.001 9c-11.333 20.667 -37 42 -77 64c-1.33301 0 -24.333 29.333 -69 88c-39.333 53.333 -70 80 -92 80
c-5.33301 0 -68.666 -41.333 -189.999 -124c-122.667 -82.667 -188.334 -124 -197.001 -124c-12.667 0 -26.167 5.16699 -40.5 15.5s-21.5 19.833 -21.5 28.5c0 10.667 15 23.334 45 38.001c38.667 19.333 60.167 31 64.5 35l85.5 83
c10.667 10.667 30.334 23.334 59.001 38.001c39.333 19.333 62.333 31 69 35c10 7.33301 23.167 22.166 39.5 44.499s27.5 35.5 33.5 39.5c20 14 43 21 69 21c35.333 0 61.666 -11.333 78.999 -34l109 -138c43.333 -54 89 -97 137 -129c3.33301 -4 5 -11 5 -21z" />
    <glyph glyph-name="otilde" unicode="&#xf5;" horiz-adv-x="1243" 
d="M1166 365c0 -71.333 -15.001 -132.332 -45.001 -182.999c-27.333 -46 -124.333 -91.333 -291 -136c-148.667 -40 -261.667 -60 -339 -60c-90.667 0 -180.334 21.667 -269.001 65c-107.333 53.333 -161 119.666 -161 198.999c0 35.333 20.333 71.333 61 108
c36 26 90.333 75 163 147c48 58.667 136 106 264 142c108 30.667 209 46 303 46c25.333 0 63.333 -11 114 -33c50.667 -23.333 85.334 -44.666 104.001 -63.999c18.667 -20.667 39.334 -57.834 62.001 -111.501s34 -93.5 34 -119.5zM1064 373.001
c0 49.333 -29.667 96.335 -89 141.002c-54.667 42 -108.667 63 -162 63c-10 0 -87.667 -14.333 -233 -43c-56 -11.333 -107 -33 -153 -65c-157.333 -112 -236 -189.333 -236 -232c0 -36 43 -68.667 129 -98c73.333 -25.333 133 -38 179 -38c68.667 0 165 14 289 42
c113.333 25.333 194 63.666 242 114.999c22.667 23.333 34 61.666 34 114.999zM1088 967.003c0 -29.333 -28.333 -68.334 -85 -117.001c-44 -38.667 -84 -66.667 -120 -84c-44 -21.333 -96 -32 -156 -32v0c0 2 -35 32.333 -105 91c-72 60 -121 90 -147 90
c-22 0 -61 -28.333 -117 -85s-84.333 -85 -85 -85c-10 0 -20 5.83301 -30 17.5s-15 23.167 -15 34.5c0 33.333 34 83.333 102 150s118 100 150 100c2.66699 0 53.167 -31.667 151.5 -95s148.833 -95 151.5 -95c22 0 34 1 36 3c8 4.66699 20 9 36 13
c4.66699 0 10.334 2.33301 17.001 7c9.33301 7.33301 20 13 32 17c1.33301 0.666992 25.666 23.334 72.999 68.001c38 35.333 61 53 69 53c28 0 42 -17 42 -51z" />
    <glyph glyph-name="odieresis" unicode="&#xf6;" horiz-adv-x="1243" 
d="M1166 365c0 -71.333 -15.001 -132.332 -45.001 -182.999c-27.333 -46 -124.333 -91.333 -291 -136c-148.667 -40 -261.667 -60 -339 -60c-90.667 0 -180.334 21.667 -269.001 65c-107.333 53.333 -161 119.666 -161 198.999c0 35.333 20.333 71.333 61 108
c36 26 90.333 75 163 147c48 58.667 136 106 264 142c108 30.667 209 46 303 46c25.333 0 63.333 -11 114 -33c50.667 -23.333 85.334 -44.666 104.001 -63.999c18.667 -20.667 39.334 -57.834 62.001 -111.501s34 -93.5 34 -119.5zM1064 373.001
c0 49.333 -29.667 96.335 -89 141.002c-54.667 42 -108.667 63 -162 63c-10 0 -87.667 -14.333 -233 -43c-56 -11.333 -107 -33 -153 -65c-157.333 -112 -236 -189.333 -236 -232c0 -36 43 -68.667 129 -98c73.333 -25.333 133 -38 179 -38c68.667 0 165 14 289 42
c113.333 25.333 194 63.666 242 114.999c22.667 23.333 34 61.666 34 114.999zM1019 949.003c-11.333 -32.667 -31.665 -61 -60.998 -85c-35.333 -29.333 -69.333 -44 -102 -44h-6c-35.333 2 -65 15.667 -89 41l-27 32c-9.33301 12 -14 25.667 -14 41v9
c1.33301 16 10.666 29.333 27.999 40l49 28c21.333 16 51.666 35.667 90.999 59l106 -44c2 -12 6.66699 -29 14 -51c1.33301 -5.33301 4.33301 -14 9 -26h2zM489 851.003c-11.333 -11.333 -31.667 -24.6641 -61 -39.9971h-8c-7.33301 0 -15 1.33301 -23 4
c-14.667 4 -25.334 6.33301 -32.001 7h-10c-10 0 -19.667 -0.333008 -29 -1c-13.333 0 -24.666 6.66699 -33.999 20c-5.33301 7.33301 -8 15.666 -8 24.999c0 2.66699 0.333008 5.66699 1 9l-1 59l36 64l74 48l107 5c28.667 -26.667 43 -57.334 43 -92.001
c0 -16.667 -3.5 -33.334 -10.5 -50.001s-21.833 -36 -44.5 -58z" />
    <glyph glyph-name="divide" unicode="&#xf7;" horiz-adv-x="1280" 
d="M755 764c0 -11.333 -10.668 -37.333 -32.001 -78l-64 23c-32 12 -52 35.667 -60 71l27 77c10.667 32 29.667 48 57 48c20.667 0 38.334 -19.667 53.001 -59c12.667 -32 19 -59.333 19 -82zM1248 481c-4.66699 -12.667 -21.8311 -29.667 -51.498 -51
s-50.834 -32 -63.501 -32c-5.33301 0 -19.666 3.66699 -42.999 11s-37.333 11 -42 11c-4 0 -18.667 -1.5 -44 -4.5s-40 -4.5 -44 -4.5c-12.667 0 -55.834 8.5 -129.501 25.5s-116.167 25.5 -127.5 25.5c-4.66699 0 -15.667 -4.33301 -33 -13
c-16.667 -8.66699 -27.667 -13 -33 -13l-92 5c-2 0 -25.333 2 -70 6c-40 3.33301 -64.667 5 -74 5c-10.667 0 -45.667 -3.66699 -105 -11c-58.667 -8 -93 -12 -103 -12c-46.667 0 -83.334 9 -110.001 27v88c49.333 26 160.333 39 333 39c-14.667 0 -22.667 -0.666992 -24 -2
c38 -4 220.667 -9.33301 548 -16h2c12 0 44 4 96 12c54.667 8.66699 86.334 13 95.001 13c33.333 0 71.666 -36.333 114.999 -109zM689.002 215c0 -10.667 -10.667 -22.667 -32 -36c-20.667 -14 -37.667 -21 -51 -21c-16 0 -34.167 9.83301 -54.5 29.5
s-30.5 37.5 -30.5 53.5c0 46.667 28.333 70 85 70c17.333 0 45 -9.33301 83 -28v-68z" />
    </font>
</defs>
</svg>
